<svg version="1.1" viewBox="0.0 0.0 960.0 540.0" fill="none" stroke="none" stroke-linecap="square" stroke-miterlimit="10" xmlns:xlink="http://www.w3.org/1999/xlink" xmlns="http://www.w3.org/2000/svg"><clipPath id="g35f391192_00.0"><path d="m0 0l960.0 0l0 540.0l-960.0 0l0 -540.0z" clip-rule="nonzero"/></clipPath><g clip-path="url(#g35f391192_00.0)"><path fill="#0e293c" d="m0 0l960.0 0l0 540.0l-960.0 0z" fill-rule="evenodd"/><defs><linearGradient id="g35f391192_00.1" gradientUnits="userSpaceOnUse" gradientTransform="matrix(12.920803015339633 0.0 0.0 -12.920803015339633 0.0 0.0)" spreadMethod="pad" x1="33.94497804441509" y1="-45.700757519735554" x2="28.200665673054864" y2="-34.1270793687998"><stop offset="0.0" stop-color="#3393e2"/><stop offset="1.0" stop-color="#00e2c7"/></linearGradient></defs><path fill="url(#g35f391192_00.1)" d="m445.76047 535.993l-34.212616 -59.222412l34.212616 -59.234283l68.4252 0l34.212585 59.234283l-34.212585 59.222412l-68.4252 0zm9.667328 -16.731995l49.089386 0l24.531586 -42.490417l-24.531586 -42.490417l-49.089386 0l-24.544128 42.490417l24.544128 42.490417z" fill-rule="evenodd"/><defs><radialGradient id="g35f391192_00.2" gradientUnits="userSpaceOnUse" gradientTransform="matrix(0.0 15.64138314324722 -15.64138314324722 0.0 0.0 0.0)" spreadMethod="pad" cx="10.488023448660059" cy="-36.5985626528191" fx="10.488023448660059" fy="-36.5985626528191" r="15.641383171081543"><stop offset="0.0" stop-color="#3393e2"/><stop offset="1.0" stop-color="#00e2c7"/></radialGradient></defs><path fill="url(#g35f391192_00.2)" d="m572.45215 83.96845l-46.236206 80.07874l-92.47247 0l-46.236206 -80.07874l46.236206 -80.07874l92.47247 0z" fill-rule="evenodd"/><path fill="#000000" fill-opacity="0.0" d="m295.0 32.37008l28.976074 50.51966l58.740753 0l28.976074 -50.51966l-28.976074 -50.51966l-58.740753 0z" fill-rule="evenodd"/><path stroke="#19bbd5" stroke-width="2.0" stroke-linejoin="round" stroke-linecap="butt" d="m295.0 32.37008l28.976074 50.51966l58.740753 0l28.976074 -50.51966l-28.976074 -50.51966l-58.740753 0z" fill-rule="evenodd"/><path fill="#184769" d="m378.23868 165.23457l12.871246 22.440948l26.100037 0l12.871246 -22.440948l-12.871246 -22.440933l-26.100037 0z" fill-rule="evenodd"/><path fill="#000000" fill-opacity="0.0" d="m554.2168 132.73795l24.63147 42.944855l49.91815 0l24.63147 -42.944855l-24.63147 -42.94487l-49.91815 0z" fill-rule="evenodd"/><path stroke="#184769" stroke-width="8.0" stroke-miterlimit="8.0" stroke-linecap="butt" d="m554.2168 132.73795l24.63147 42.944855l49.91815 0l24.63147 -42.944855l-24.63147 -42.94487l-49.91815 0z" fill-rule="evenodd"/><path fill="#00e1c6" d="m563.33844 59.41463l12.862244 22.42519l26.118103 0l12.862183 -22.42519l-12.862183 -22.425186l-26.118103 0z" fill-rule="evenodd"/><path fill="#184769" d="m588.7012 125.52686l0.37158203 0.063201904l0.30847168 0.12135315l0.30841064 0.12387085l0.2477417 0.24775696l0.2477417 0.24774933l0.18457031 0.3084259l0.060668945 0.3084259l0.06323242 0.36910248l-0.06323242 0.3716278l-0.060668945 0.3084259l-0.18457031 0.30843353l-0.2477417 0.3084259l-0.2477417 0.18707275l-0.30841064 0.18455505l-0.30847168 0.060668945l-0.37158203 0.063201904l-0.36914062 -0.063201904l-0.30841064 -0.060668945l-0.30841064 -0.18455505l-0.2477417 -0.18707275l-0.2477417 -0.3084259l-0.18457031 -0.30843353l-0.060668945 -0.3084259l-0.06323242 -0.3716278l0.06323242 -0.36910248l0.060668945 -0.3084259l0.18457031 -0.3084259l0.2477417 -0.24774933l0.2477417 -0.24775696l0.30841064 -0.12387085l0.30841064 -0.12135315l0.36914062 -0.063201904zm-6.1104126 -2.5306091l0 22.28759l9.94043 0l0 -22.28759z" fill-rule="evenodd"/><path fill="#184769" d="m610.0028 108.11595l-0.92529297 0.060676575l-0.6168823 0.12387085l-0.4954834 0.18455505l-0.3690796 0.18707275l-0.9885254 3.1474686l-0.49291992 1.420784l-0.49554443 1.2969055l-0.49298096 1.1730347l-0.49298096 0.9884796l-0.43225098 0.74072266l-0.37164307 0.61685944l-0.5562134 0.55617523l-0.864563 0.86460114l-2.0376587 1.913765l-2.715149 2.4699326l-3.6430054 0l0 18.212326l3.8275146 0l1.2362671 0.6193695l1.7266846 0.7407379l2.2247314 0.8645935l2.4699097 0.9252777l2.65448 0.8039398l1.357605 0.36909485l1.357544 0.3084259l1.296936 0.3084259l1.296875 0.18708801l1.1730347 0.12133789l1.1730347 0.063201904l1.9769897 0l1.0491333 -0.063201904l0.98846436 -0.12133789l0.864624 -0.24775696l0.432312 -0.12387085l0.30841064 -0.12388611l0.30847168 -0.1845398l0.24517822 -0.24775696l0.12390137 -0.245224l0.12384033 -0.31095886l0.18457031 -1.7898865l-0.060668945 -0.43229675l-0.12390137 -0.36909485l-0.2477417 -0.3716278l-0.3690796 -0.3084259l0.30841064 -0.060684204l0.30841064 -0.12387085l0.30847168 -0.12387085l0.2477417 -0.24775696l0.18457031 -0.245224l0.18450928 -0.31095886l0.12390137 -0.36909485l0.06317139 -0.3084259l0.18457031 -2.2221832l0 -0.31095886l0 -0.245224l-0.060668945 -0.3084259l-0.12390137 -0.24775696l-0.30841064 -0.43229675l-0.18707275 -0.18455505l-0.18457031 -0.18707275l0.30847168 -0.060684204l0.2477417 -0.12387085l0.2477417 -0.18455505l0.24523926 -0.2477417l0.18707275 -0.24775696l0.12133789 -0.245224l0.12384033 -0.3084259l0.06323242 -0.3716278l0.18457031 -2.1615143l0 -0.3084259l0 -0.3084259l-0.060668945 -0.3084259l-0.12390137 -0.24775696l-0.12390137 -0.245224l-0.18450928 -0.18707275l-0.18707275 -0.18455505l-0.24523926 -0.1845398l0.24523926 -0.063201904l0.2477417 -0.18455505l0.2477417 -0.18455505l0.18457031 -0.1845398l0.18450928 -0.24775696l0.12390137 -0.24775696l0.060668945 -0.3084259l0.06323242 -0.3084259l0.2477417 -2.2221832l-0.06323242 -0.3084259l-0.060668945 -0.31095123l-0.12384033 -0.245224l-0.12390137 -0.24775696l-0.18457031 -0.24774933l-0.2477417 -0.18454742l-0.55615234 -0.36910248l-0.6168823 -0.31095886l-0.74072266 -0.245224l-0.8039551 -0.18454742l-0.8013916 -0.12387848l-1.729187 -0.24774933l-2.65448 -0.24774933l-3.1500244 -0.18455505l-3.2106323 -0.18454742l0.432312 -0.7407303l0.37158203 -0.86460114l0.36914062 -0.92781067l0.2477417 -0.9859543l0.2477417 -0.9884796l0.24523926 -1.0491562l0.2477417 -2.0376358l0.18457031 -1.8530807l0.12384033 -1.5446625l0 -1.418251l0 -0.43230438l-0.18450928 -0.4955063l-0.18457031 -0.36909485l-0.30841064 -0.37163544l-0.37164307 -0.36909485l-0.432312 -0.18708038l-0.49298096 -0.18454742l-0.4954834 -0.060676575z" fill-rule="evenodd"/><path fill="#19bbd5" d="m354.06866 13.837245l0.2428894 0.049770355l0.14730835 0.14532948l0.1453247 0.14532948l0.047790527 0.24287987l-0.047790527 0.19509983l-0.1453247 0.19509888l-0.14730835 0.09755039l-0.2428894 0.047779083l-1.4572754 0l-0.24487305 -0.047779083l-0.1453247 -0.09755039l-0.1453247 -0.19509888l-0.047790527 -0.19509983l0.047790527 -0.24287987l0.1453247 -0.14532948l0.1453247 -0.14532948l0.24487305 -0.049770355zm8.508728 3.1614122l0 28.152096l-18.474731 0l0 -28.152096zm-9.237366 30.29023l0.34042358 0.049770355l0.34042358 0.09754944l0.29067993 0.14532852l0.24285889 0.19509888l0.19509888 0.24288177l0.1453247 0.29065704l0.0975647 0.3404312l0.04977417 0.3404274l-0.04977417 0.3404312l-0.0975647 0.3404274l-0.1453247 0.29264832l-0.19509888 0.24288177l-0.24285889 0.1931076l-0.29067993 0.1473198l-0.34042358 0.09555817l-0.34042358 0.049770355l-0.34042358 -0.049770355l-0.34042358 -0.09555817l-0.29266357 -0.1473198l-0.2428894 -0.1931076l-0.19308472 -0.24288177l-0.14733887 -0.29264832l-0.09555054 -0.3404274l-0.04977417 -0.3404312l0.04977417 -0.3404274l0.09555054 -0.3404312l0.14733887 -0.29065704l0.19308472 -0.24288177l0.2428894 -0.19509888l0.29266357 -0.14532852l0.34042358 -0.09754944l0.34042358 -0.049770355zm-9.237366 -35.396667l-0.535553 0.049770355l-0.4857483 0.14532948l-0.43798828 0.24287891l-0.39019775 0.29265022l-0.2906494 0.3882084l-0.2428894 0.43797874l-0.1453247 0.48575878l-0.04977417 0.53552914l0 35.784874l0.04977417 0.5355263l0.1453247 0.48575974l0.2428894 0.43798065l0.2906494 0.38820648l0.39019775 0.29265213l0.43798828 0.24287796l0.4857483 0.14532852l0.535553 0.049770355l18.474731 0l0.53552246 -0.049770355l0.4857788 -0.14532852l0.43795776 -0.24287796l0.3882141 -0.29265213l0.29266357 -0.38820648l0.24285889 -0.43798065l0.14535522 -0.48575974l0.049743652 -0.5355263l0 -35.784874l-0.049743652 -0.53552914l-0.14535522 -0.48575878l-0.24285889 -0.43797874l-0.29266357 -0.3882084l-0.3882141 -0.29265022l-0.43795776 -0.24287891l-0.4857788 -0.14532948l-0.53552246 -0.049770355z" fill-rule="evenodd"/><path fill="#000000" fill-opacity="0.0" d="m488.0041 113.15672l0 -3.5242996l-16.00711 0l0 3.5242996l16.00711 0z" fill-rule="evenodd"/><path stroke="#ffffff" stroke-width="1.2782152230971129" stroke-linejoin="round" stroke-linecap="round" d="m488.0041 113.15672l0 -3.5242996l-16.00711 0l0 3.5242996l16.00711 0z" fill-rule="evenodd"/><path fill="#000000" fill-opacity="0.0" d="m488.0041 109.53463l0 -3.5242996l-16.00711 0l0 3.5242996l16.00711 0z" fill-rule="evenodd"/><path stroke="#ffffff" stroke-width="1.2782152230971129" stroke-linejoin="round" stroke-linecap="round" d="m488.0041 109.53463l0 -3.5242996l-16.00711 0l0 3.5242996l16.00711 0z" fill-rule="evenodd"/><path fill="#000000" fill-opacity="0.0" d="m471.99698 113.15672l0 0.66496277l0 0l0.09387207 0.5750046l0.28948975 0.57108307l0.37942505 0.47329712l0.5711365 0.2894516l6.000702 1.9988022l0 0l0.6689453 0.0938797l0 0l0.66500854 -0.0938797l6.004608 -1.9988022l0 0l0.5711365 -0.2894516l0.37945557 -0.47329712l0.28555298 -0.57108307l0.09777832 -0.5750046l0 -0.66496277l-16.00711 0z" fill-rule="evenodd"/><path stroke="#ffffff" stroke-width="1.2782152230971129" stroke-linejoin="round" stroke-linecap="round" d="m471.99698 113.15672l0 0.66496277l0 0l0.09387207 0.5750046l0.28948975 0.57108307l0.37942505 0.47329712l0.5711365 0.2894516l6.000702 1.9988022l0 0l0.6689453 0.0938797l0 0l0.66500854 -0.0938797l6.004608 -1.9988022l0 0l0.5711365 -0.2894516l0.37945557 -0.47329712l0.28555298 -0.57108307l0.09777832 -0.5750046l0 -0.66496277l-16.00711 0z" fill-rule="evenodd"/><path fill="#000000" fill-opacity="0.0" d="m475.80707 102.20048l0 0l-3.2389832 -14.957764l-2.2844849 -11.143997" fill-rule="evenodd"/><path stroke="#ffffff" stroke-width="1.2782152230971129" stroke-linejoin="round" stroke-linecap="round" d="m475.80707 102.20048l0 0l-3.2389832 -14.957764l-2.2844849 -11.143997" fill-rule="evenodd"/><path fill="#000000" fill-opacity="0.0" d="m488.0041 102.20048l0 0l0.4772644 -2.0965881l0.66500854 -1.9988022l0.76278687 -1.9049225l0.85668945 -1.7171707l0.9544983 -1.6193848l0.9505615 -1.6193771l2.0967407 -3.0470963l1.0483398 -1.5255051l0.95059204 -1.5215912l0.8605957 -1.5255051l0.85668945 -1.7132568l0.66500854 -1.7171707l0.4772339 -1.9049225l0.28555298 -1.9988022l0.09390259 -1.0482941l0.09777832 -1.0483017l0 0l-0.19168091 -2.0965881l-0.28555298 -1.9988022l-0.4772339 -1.9088364l-0.66500854 -1.8071365l-0.85668945 -1.8110428l-0.9544983 -1.619381l-1.2400208 -1.5255051l-1.236145 -1.4277153l-1.4317322 -1.3338394l-1.521698 -1.14217l-1.7172852 -0.9544182l-1.7133484 -0.8566284l-1.8111877 -0.66887665l-1.9989319 -0.5710869l-1.9050598 -0.28554153l-2.0967102 -0.093875885l0 0l-2.0967407 0.093875885l-1.9050598 0.28554153l-1.9989319 0.5710869l-1.8111572 0.66887665l-1.7172852 0.8566284l-1.7133789 0.9544182l-1.5256042 1.14217l-1.4278259 1.3338394l-1.2400208 1.4277153l-1.236145 1.5255051l-0.9544678 1.619381l-0.85668945 1.8110428l-0.66500854 1.8071365l-0.4772644 1.9088364l-0.28555298 1.9988022l-0.19168091 2.0965881l0 0l0.09390259 1.0483017l0.09777832 1.0482941l0.28555298 1.9988022l0.4772644 1.9049225l0.66500854 1.7171707l0.85668945 1.7132568l0.85665894 1.5255051l0.9544983 1.5215912l1.0483704 1.5255051l2.0967102 3.0470963l0.95059204 1.6193771l0.9544678 1.6193848l0.85668945 1.7171707l0.7628174 1.9049225l0.66500854 1.9988022l0.4772339 2.0965881" fill-rule="evenodd"/><path stroke="#ffffff" stroke-width="1.2782152230971129" stroke-linejoin="round" stroke-linecap="round" d="m488.0041 102.20048l0 0l0.4772644 -2.0965881l0.66500854 -1.9988022l0.76278687 -1.9049225l0.85668945 -1.7171707l0.9544983 -1.6193848l0.9505615 -1.6193771l2.0967407 -3.0470963l1.0483398 -1.5255051l0.95059204 -1.5215912l0.8605957 -1.5255051l0.85668945 -1.7132568l0.66500854 -1.7171707l0.4772339 -1.9049225l0.28555298 -1.9988022l0.09390259 -1.0482941l0.09777832 -1.0483017l0 0l-0.19168091 -2.0965881l-0.28555298 -1.9988022l-0.4772339 -1.9088364l-0.66500854 -1.8071365l-0.85668945 -1.8110428l-0.9544983 -1.619381l-1.2400208 -1.5255051l-1.236145 -1.4277153l-1.4317322 -1.3338394l-1.521698 -1.14217l-1.7172852 -0.9544182l-1.7133484 -0.8566284l-1.8111877 -0.66887665l-1.9989319 -0.5710869l-1.9050598 -0.28554153l-2.0967102 -0.093875885l0 0l-2.0967407 0.093875885l-1.9050598 0.28554153l-1.9989319 0.5710869l-1.8111572 0.66887665l-1.7172852 0.8566284l-1.7133789 0.9544182l-1.5256042 1.14217l-1.4278259 1.3338394l-1.2400208 1.4277153l-1.236145 1.5255051l-0.9544678 1.619381l-0.85668945 1.8110428l-0.66500854 1.8071365l-0.4772644 1.9088364l-0.28555298 1.9988022l-0.19168091 2.0965881l0 0l0.09390259 1.0483017l0.09777832 1.0482941l0.28555298 1.9988022l0.4772644 1.9049225l0.66500854 1.7171707l0.85668945 1.7132568l0.85665894 1.5255051l0.9544983 1.5215912l1.0483704 1.5255051l2.0967102 3.0470963l0.95059204 1.6193771l0.9544678 1.6193848l0.85668945 1.7171707l0.7628174 1.9049225l0.66500854 1.9988022l0.4772339 2.0965881" fill-rule="evenodd"/><path fill="#000000" fill-opacity="0.0" d="m489.71747 76.09872l0 0l-2.2844849 11.143997l-3.2389832 14.957764" fill-rule="evenodd"/><path stroke="#ffffff" stroke-width="1.2782152230971129" stroke-linejoin="round" stroke-linecap="round" d="m489.71747 76.09872l0 0l-2.2844849 11.143997l-3.2389832 14.957764" fill-rule="evenodd"/><path fill="#000000" fill-opacity="0.0" d="m472.95145 75.42984l3.2389832 2.7654648l3.2389832 -2.7654648l0 0l0.28555298 -0.18775177l0.2855835 -0.09779358l0.28555298 0.09779358l0.28555298 0.18775177l3.2389832 2.7654648l3.2389832 -2.7654648" fill-rule="evenodd"/><path stroke="#ffffff" stroke-width="1.2782152230971129" stroke-linejoin="round" stroke-linecap="round" d="m472.95145 75.42984l3.2389832 2.7654648l3.2389832 -2.7654648l0 0l0.28555298 -0.18775177l0.2855835 -0.09779358l0.28555298 0.09779358l0.28555298 0.18775177l3.2389832 2.7654648l3.2389832 -2.7654648" fill-rule="evenodd"/><path fill="#000000" fill-opacity="0.0" d="m471.99698 102.58381l16.00711 0" fill-rule="evenodd"/><path stroke="#ffffff" stroke-width="1.2782152230971129" stroke-linejoin="round" stroke-linecap="round" d="m471.99698 102.58381l16.00711 0" fill-rule="evenodd"/><path fill="#000000" fill-opacity="0.0" d="m351.8723 94.80133l0 0l-0.80566406 0.06099701l-0.8031006 0.06099701l-0.80563354 0.0635376l-0.80566406 0.18552399l-0.74209595 0.18553162l-0.74212646 0.18552399l-0.74209595 0.246521l-0.7446594 0.31006622l-0.74209595 0.3100586l-0.6811218 0.37104797l-0.6811218 0.3710556l-0.6175537 0.3710556l-1.2377014 0.9276352l-1.1157227 1.0547104l-1.0521545 1.1131668l-0.9276428 1.2376938l-0.43460083 0.6811142l-0.3710327 0.6811142l-0.37106323 0.6811142l-0.3100586 0.6811142l-0.246521 0.7421112l-0.24905396 0.7421036l-0.24655151 0.7421112l-0.18551636 0.8056488l-0.12454224 0.7421112l-0.12197876 0.8056412l-0.0635376 0.8056488l0 0.8640976l0 0l0 0.8056488l0.0635376 0.8056412l0.12197876 0.8031082l0.12454224 0.8056412l0.18551636 0.7421112l0.24655151 0.8056488l0.24905396 0.7421112l0.246521 0.6811142l0.3100586 0.7421036l0.37106323 0.6811142l0.3710327 0.6811142l0.43460083 0.6201172l0.9276428 1.2377014l1.0521545 1.1131592l1.1157227 1.0521698l1.2377014 0.9276352l0.6175537 0.4345932l0.6811218 0.3710556l0.6811218 0.3710556l0.74209595 0.3100586l0.7446594 0.246521l0.74209595 0.24906158l0.74212646 0.24652863l0.74209595 0.18552399l0.80566406 0.12453461l0.80563354 0.12452698l0.8031006 0.06099701l0.80566406 0l0 0l0.8666382 0l0.8031006 -0.06099701l0.80563354 -0.12452698l0.74212646 -0.12453461l0.80563354 -0.18552399l0.74209595 -0.24652863l0.74212646 -0.24906158l0.7446594 -0.246521l0.6810913 -0.3100586l0.67858887 -0.3710556l0.6811218 -0.3710556l0.6810913 -0.4345932l1.2377014 -0.9276352l1.1157227 -1.0521698l1.0521545 -1.1131592l0.9276428 -1.2377014l0.37106323 -0.6201172l0.3710327 -0.6811142l0.37106323 -0.6811142l0.3100586 -0.7421036l0.3100586 -0.6811142l0.246521 -0.7421112l0.24905396 -0.8056488l0.12454224 -0.7421112l0.18551636 -0.8056412l0.06100464 -0.8031082l0.06100464 -0.8056412l0.0635376 -0.8056488l0 0l-0.0635376 -0.8640976l-0.06100464 -0.8056488l-0.06100464 -0.8056412l-0.18551636 -0.7421112l-0.12454224 -0.8056488l-0.24905396 -0.7421112l-0.246521 -0.7421036l-0.3100586 -0.7421112l-0.3100586 -0.6811142l-0.37106323 -0.6811142l-0.3710327 -0.6811142l-0.37106323 -0.6811142l-0.9276428 -1.2376938l-1.0521545 -1.1131668l-1.1157227 -1.0547104l-1.2377014 -0.9276352l-0.6810913 -0.3710556l-0.6811218 -0.3710556l-0.67858887 -0.37104797l-0.6810913 -0.3100586l-0.7446594 -0.31006622l-0.74212646 -0.246521l-0.74209595 -0.18552399l-0.80563354 -0.18553162l-0.74212646 -0.18552399l-0.80563354 -0.0635376l-0.8031006 -0.06099701l-0.8666382 -0.06099701l0 0z" fill-rule="evenodd"/><path stroke="#184769" stroke-width="2.0" stroke-linejoin="round" stroke-linecap="round" d="m351.8723 94.80133l0 0l-0.80566406 0.06099701l-0.8031006 0.06099701l-0.80563354 0.0635376l-0.80566406 0.18552399l-0.74209595 0.18553162l-0.74212646 0.18552399l-0.74209595 0.246521l-0.7446594 0.31006622l-0.74209595 0.3100586l-0.6811218 0.37104797l-0.6811218 0.3710556l-0.6175537 0.3710556l-1.2377014 0.9276352l-1.1157227 1.0547104l-1.0521545 1.1131668l-0.9276428 1.2376938l-0.43460083 0.6811142l-0.3710327 0.6811142l-0.37106323 0.6811142l-0.3100586 0.6811142l-0.246521 0.7421112l-0.24905396 0.7421036l-0.24655151 0.7421112l-0.18551636 0.8056488l-0.12454224 0.7421112l-0.12197876 0.8056412l-0.0635376 0.8056488l0 0.8640976l0 0l0 0.8056488l0.0635376 0.8056412l0.12197876 0.8031082l0.12454224 0.8056412l0.18551636 0.7421112l0.24655151 0.8056488l0.24905396 0.7421112l0.246521 0.6811142l0.3100586 0.7421036l0.37106323 0.6811142l0.3710327 0.6811142l0.43460083 0.6201172l0.9276428 1.2377014l1.0521545 1.1131592l1.1157227 1.0521698l1.2377014 0.9276352l0.6175537 0.4345932l0.6811218 0.3710556l0.6811218 0.3710556l0.74209595 0.3100586l0.7446594 0.246521l0.74209595 0.24906158l0.74212646 0.24652863l0.74209595 0.18552399l0.80566406 0.12453461l0.80563354 0.12452698l0.8031006 0.06099701l0.80566406 0l0 0l0.8666382 0l0.8031006 -0.06099701l0.80563354 -0.12452698l0.74212646 -0.12453461l0.80563354 -0.18552399l0.74209595 -0.24652863l0.74212646 -0.24906158l0.7446594 -0.246521l0.6810913 -0.3100586l0.67858887 -0.3710556l0.6811218 -0.3710556l0.6810913 -0.4345932l1.2377014 -0.9276352l1.1157227 -1.0521698l1.0521545 -1.1131592l0.9276428 -1.2377014l0.37106323 -0.6201172l0.3710327 -0.6811142l0.37106323 -0.6811142l0.3100586 -0.7421036l0.3100586 -0.6811142l0.246521 -0.7421112l0.24905396 -0.8056488l0.12454224 -0.7421112l0.18551636 -0.8056412l0.06100464 -0.8031082l0.06100464 -0.8056412l0.0635376 -0.8056488l0 0l-0.0635376 -0.8640976l-0.06100464 -0.8056488l-0.06100464 -0.8056412l-0.18551636 -0.7421112l-0.12454224 -0.8056488l-0.24905396 -0.7421112l-0.246521 -0.7421036l-0.3100586 -0.7421112l-0.3100586 -0.6811142l-0.37106323 -0.6811142l-0.3710327 -0.6811142l-0.37106323 -0.6811142l-0.9276428 -1.2376938l-1.0521545 -1.1131668l-1.1157227 -1.0547104l-1.2377014 -0.9276352l-0.6810913 -0.3710556l-0.6811218 -0.3710556l-0.67858887 -0.37104797l-0.6810913 -0.3100586l-0.7446594 -0.31006622l-0.74212646 -0.246521l-0.74209595 -0.18552399l-0.80563354 -0.18553162l-0.74212646 -0.18552399l-0.80563354 -0.0635376l-0.8031006 -0.06099701l-0.8666382 -0.06099701l0 0z" fill-rule="evenodd"/><path fill="#000000" fill-opacity="0.0" d="m351.8723 98.51442l0 0l-1.2377014 0.06099701l-1.2377014 0.18552399l-1.1766968 0.31006622l-1.1157227 0.43458557l-1.0521545 0.49304962l-0.98864746 0.6201172l-0.9911499 0.7421112l-0.8666382 0.8056412l-0.80566406 0.8666458l-0.67855835 0.9276352l-0.6201172 0.9911728l-0.49560547 1.1131592l-0.43203735 1.1157074l-0.3100586 1.1741638l-0.18551636 1.1766968l-0.06100464 1.2986908l0 0l0.06100464 1.2402344l0.18551636 1.2377014l0.3100586 1.1741562l0.43203735 1.1157074l0.49560547 1.0521698l0.6201172 0.9911728l0.67855835 0.9886322l0.80566406 0.8666382l0.8666382 0.8056488l0.9911499 0.6811142l0.98864746 0.6175766l1.0521545 0.49558258l1.1157227 0.4345932l1.1766968 0.307518l1.2377014 0.18552399l1.2377014 0.0635376l0 0l1.2986755 -0.0635376l1.1766968 -0.18552399l1.1766968 -0.307518l1.1131592 -0.4345932l1.1131897 -0.49558258l0.9911499 -0.6175766l0.9301758 -0.6811142l0.8641052 -0.8056488l0.80566406 -0.8666382l0.74209595 -0.9886322l0.6201172 -0.9911728l0.49560547 -1.0521698l0.43203735 -1.1157074l0.3100586 -1.1741562l0.18551636 -1.2377014l0.06100464 -1.2402344l0 0l-0.06100464 -1.2986908l-0.18551636 -1.1766968l-0.3100586 -1.1741638l-0.43203735 -1.1157074l-0.49560547 -1.1131592l-0.6201172 -0.9911728l-0.74209595 -0.9276352l-0.80566406 -0.8666458l-0.8641052 -0.8056412l-0.9301758 -0.7421112l-0.9911499 -0.6201172l-1.1131897 -0.49304962l-1.1131592 -0.43458557l-1.1766968 -0.31006622l-1.1766968 -0.18552399l-1.2986755 -0.06099701l0 0" fill-rule="evenodd"/><path stroke="#184769" stroke-width="2.0" stroke-linejoin="round" stroke-linecap="round" d="m351.8723 98.51442l0 0l-1.2377014 0.06099701l-1.2377014 0.18552399l-1.1766968 0.31006622l-1.1157227 0.43458557l-1.0521545 0.49304962l-0.98864746 0.6201172l-0.9911499 0.7421112l-0.8666382 0.8056412l-0.80566406 0.8666458l-0.67855835 0.9276352l-0.6201172 0.9911728l-0.49560547 1.1131592l-0.43203735 1.1157074l-0.3100586 1.1741638l-0.18551636 1.1766968l-0.06100464 1.2986908l0 0l0.06100464 1.2402344l0.18551636 1.2377014l0.3100586 1.1741562l0.43203735 1.1157074l0.49560547 1.0521698l0.6201172 0.9911728l0.67855835 0.9886322l0.80566406 0.8666382l0.8666382 0.8056488l0.9911499 0.6811142l0.98864746 0.6175766l1.0521545 0.49558258l1.1157227 0.4345932l1.1766968 0.307518l1.2377014 0.18552399l1.2377014 0.0635376l0 0l1.2986755 -0.0635376l1.1766968 -0.18552399l1.1766968 -0.307518l1.1131592 -0.4345932l1.1131897 -0.49558258l0.9911499 -0.6175766l0.9301758 -0.6811142l0.8641052 -0.8056488l0.80566406 -0.8666382l0.74209595 -0.9886322l0.6201172 -0.9911728l0.49560547 -1.0521698l0.43203735 -1.1157074l0.3100586 -1.1741562l0.18551636 -1.2377014l0.06100464 -1.2402344l0 0l-0.06100464 -1.2986908l-0.18551636 -1.1766968l-0.3100586 -1.1741638l-0.43203735 -1.1157074l-0.49560547 -1.1131592l-0.6201172 -0.9911728l-0.74209595 -0.9276352l-0.80566406 -0.8666458l-0.8641052 -0.8056412l-0.9301758 -0.7421112l-0.9911499 -0.6201172l-1.1131897 -0.49304962l-1.1131592 -0.43458557l-1.1766968 -0.31006622l-1.1766968 -0.18552399l-1.2986755 -0.06099701l0 0" fill-rule="evenodd"/><path fill="#000000" fill-opacity="0.0" d="m343.26688 110.83038l0 0l0.0635376 -0.9276352l0.12454224 -0.8031082l0.18551636 -0.8666382l0.30752563 -0.7446518l0.37106323 -0.8031006l0.4345703 -0.6811142l0.49560547 -0.6811142l0.5565796 -0.6201172l0.6201172 -0.5565872l0.67855835 -0.49558258l0.6811218 -0.4320526l0.7446594 -0.3710556l0.8031006 -0.24906158l0.80563354 -0.246521l0.8666382 -0.12453461l0.8666687 0" fill-rule="evenodd"/><path stroke="#184769" stroke-width="2.0" stroke-linejoin="round" stroke-linecap="round" d="m343.26688 110.83038l0 0l0.0635376 -0.9276352l0.12454224 -0.8031082l0.18551636 -0.8666382l0.30752563 -0.7446518l0.37106323 -0.8031006l0.4345703 -0.6811142l0.49560547 -0.6811142l0.5565796 -0.6201172l0.6201172 -0.5565872l0.67855835 -0.49558258l0.6811218 -0.4320526l0.7446594 -0.3710556l0.8031006 -0.24906158l0.80563354 -0.246521l0.8666382 -0.12453461l0.8666687 0" fill-rule="evenodd"/><path fill="#000000" fill-opacity="0.0" d="m361.71286 124.14006l12.628571 12.626022l0 0l0.18554688 0.12452698l0.18551636 0.12454224l0.246521 0.06098938l0.24905396 0.06098938l0.246521 -0.06098938l0.18554688 -0.06098938l0.246521 -0.12454224l0.18804932 -0.12452698l0.9276428 -0.9276428l0 0l0.18554688 -0.18551636l0.12451172 -0.24906921l0.06100464 -0.246521l0 -0.18553162l0 -0.24905396l-0.06100464 -0.24653625l-0.12451172 -0.18551636l-0.18554688 -0.246521l-12.565033 -12.504036" fill-rule="evenodd"/><path stroke="#184769" stroke-width="2.0" stroke-linejoin="round" stroke-linecap="round" d="m361.71286 124.14006l12.628571 12.626022l0 0l0.18554688 0.12452698l0.18551636 0.12454224l0.246521 0.06098938l0.24905396 0.06098938l0.246521 -0.06098938l0.18554688 -0.06098938l0.246521 -0.12454224l0.18804932 -0.12452698l0.9276428 -0.9276428l0 0l0.18554688 -0.18551636l0.12451172 -0.24906921l0.06100464 -0.246521l0 -0.18553162l0 -0.24905396l-0.06100464 -0.24653625l-0.12451172 -0.18551636l-0.18554688 -0.246521l-12.565033 -12.504036" fill-rule="evenodd"/><path fill="#000000" fill-opacity="0.0" d="m526.0402 527.44855l26.934753 46.960632l54.571472 0l26.934753 -46.960632l-26.934753 -46.96057l-54.571472 0z" fill-rule="evenodd"/><path stroke="#184769" stroke-width="2.0" stroke-linejoin="round" stroke-linecap="butt" d="m526.0402 527.44855l26.934753 46.960632l54.571472 0l26.934753 -46.960632l-26.934753 -46.96057l-54.571472 0z" fill-rule="evenodd"/><path fill="#3292e1" d="m538.96893 450.40945l14.072571 24.53543l28.547852 0l14.07251 -24.53543l-14.07251 -24.53543l-28.547852 0z" fill-rule="evenodd"/><path fill="#184769" d="m325.6388 428.002l26.916656 46.929108l54.607605 0l26.916656 -46.929108l-26.916656 -46.929108l-54.607605 0z" fill-rule="evenodd"/><path fill="#000000" fill-opacity="0.0" d="m370.64404 501.02484l11.77829 20.535461l23.907959 0l11.77829 -20.535461l-11.77829 -20.5354l-23.907959 0z" fill-rule="evenodd"/><path stroke="#00e1c6" stroke-width="2.0" stroke-linejoin="round" stroke-linecap="butt" d="m370.64404 501.02484l11.77829 20.535461l23.907959 0l11.77829 -20.535461l-11.77829 -20.5354l-23.907959 0z" fill-rule="evenodd"/><path fill="#184769" d="m580.777 522.1287l0.5172119 0.09265137l0.47283936 0.14282227l0.5172119 0.14086914l0.47094727 0.23547363l0.42456055 0.2836914l0.42456055 0.28173828l0.42462158 0.3782959l0.37628174 0.42260742l0.28375244 0.42462158l0.28173828 0.42456055l0.23547363 0.47088623l0.14282227 0.51916504l0.14086914 0.47088623l0.09454346 0.51916504l0 0.5172119l0 0.51916504l-0.09454346 0.51916504l-0.14086914 0.47088623l-0.14282227 0.51916504l-0.23547363 0.47088623l-0.28173828 0.42456055l-0.28375244 0.42266846l-0.37628174 0.42456055l-0.42462158 0.3782959l-0.42456055 0.28173828l-0.42456055 0.2836914l-0.47094727 0.23547363l-0.5172119 0.14086914l-0.47283936 0.14086914l-0.5172119 0.09460449l-1.038269 0l-0.5172119 -0.09460449l-0.47094727 -0.14086914l-0.519104 -0.14086914l-0.47094727 -0.23547363l-0.42456055 -0.2836914l-0.42456055 -0.28173828l-0.42462158 -0.3782959l-0.37634277 -0.42456055l-0.2836914 -0.42266846l-0.28173828 -0.42456055l-0.23547363 -0.47088623l-0.14282227 -0.51916504l-0.14086914 -0.47088623l-0.09454346 -0.51916504l0 -0.51916504l0 -0.5172119l0.09454346 -0.51916504l0.14086914 -0.47088623l0.14282227 -0.51916504l0.23547363 -0.47088623l0.28173828 -0.42456055l0.2836914 -0.42462158l0.37634277 -0.42260742l0.42462158 -0.3782959l0.42456055 -0.28173828l0.42456055 -0.2836914l0.47094727 -0.23547363l0.519104 -0.14086914l0.47094727 -0.14282227l0.5172119 -0.09265137zm-1.6500854 -11.077759l-0.3300171 0.04824829l-0.2836914 0.09265137l-0.2354126 0.14282227l-0.28179932 0.18719482l-0.18914795 0.18911743l-0.18908691 0.28372192l-0.09265137 0.2817688l-0.09460449 0.2836914l-0.37823486 3.3928223l-0.6600342 0.18908691l-0.70635986 0.28179932l-0.6600342 0.2836914l-0.6600342 0.3300171l-2.6401367 -2.074646l-0.28173828 -0.18725586l-0.2836914 -0.09454346l-0.28179932 -0.09454346l-0.2836914 0l-0.3300171 0.046325684l-0.28179932 0.09454346l-0.2836914 0.14086914l-0.2354126 0.18914795l-1.6018677 1.6037598l-0.18908691 0.23547363l-0.14093018 0.28173828l-0.09454346 0.2836914l-0.046325684 0.3300171l0 0.28179932l0.09265137 0.2836914l0.09454346 0.28173828l0.18914795 0.2836914l2.074646 2.6401367l-0.3300171 0.6581421l-0.2836914 0.6600342l-0.28173828 0.70825195l-0.18914795 0.6600342l-3.3947144 0.37634277l-0.28179932 0.09454346l-0.2836914 0.09460449l-0.28173828 0.18719482l-0.18914795 0.18914795l-0.18914795 0.2836914l-0.14086914 0.2354126l-0.09460449 0.28179932l-0.04626465 0.3300171l0 2.263794l0.04626465 0.3300171l0.09460449 0.28173828l0.14086914 0.23547363l0.18914795 0.2836914l0.18914795 0.18719482l0.28173828 0.18914795l0.2836914 0.09454346l0.28179932 0.09460449l3.3947144 0.37634277l0.18914795 0.6600342l0.28173828 0.70635986l0.2836914 0.65997314l0.3300171 0.6600342l-2.074646 2.6401367l-0.18914795 0.28375244l-0.09454346 0.28173828l-0.09265137 0.2836914l0 0.28179932l0.046325684 0.3300171l0.09454346 0.2836914l0.14093018 0.28173828l0.18908691 0.23547363l1.6018677 1.6037598l0.2354126 0.18719482l0.2836914 0.14282227l0.28179932 0.09265137l0.3300171 0.048217773l0.2836914 0l0.28179932 -0.09454346l0.2836914 -0.09460449l0.28173828 -0.14086914l2.6401367 -2.1209717l0.6600342 0.3300171l0.6600342 0.28173828l0.70635986 0.28375244l0.6600342 0.18908691l0.37823486 3.3928223l0.09460449 0.2836914l0.09265137 0.28179932l0.18908691 0.2836914l0.18914795 0.18719482l0.28179932 0.18914795l0.2354126 0.14086914l0.2836914 0.09454346l0.3300171 0.04827881l2.2619019 0l0.3300171 -0.04827881l0.2836914 -0.09454346l0.2354126 -0.14086914l0.28179932 -0.18914795l0.18914795 -0.18719482l0.18908691 -0.2836914l0.09460449 -0.28179932l0.09265137 -0.2836914l0.37823486 -3.3928223l0.6600342 -0.18908691l0.70635986 -0.28375244l0.6600342 -0.28173828l0.6600342 -0.3300171l2.6401367 2.1209717l0.28173828 0.14086914l0.2836914 0.09460449l0.28179932 0.09454346l0.2836914 0l0.3300171 -0.048217773l0.28173828 -0.09265137l0.28375244 -0.14282227l0.2354126 -0.18719482l1.6018677 -1.6037598l0.18908691 -0.23547363l0.14093018 -0.28173828l0.09454346 -0.2836914l0.048217773 -0.3300171l0 -0.28179932l-0.09454346 -0.2836914l-0.09454346 -0.28173828l-0.14086914 -0.28375244l-2.1210327 -2.6401367l0.328125 -0.6600342l0.2836914 -0.65997314l0.2836914 -0.70635986l0.18719482 -0.6600342l3.3947144 -0.37634277l0.28179932 -0.09460449l0.2836914 -0.09454346l0.28173828 -0.18914795l0.18914795 -0.18719482l0.18914795 -0.2836914l0.14086914 -0.23547363l0.09460449 -0.28173828l0.04626465 -0.3300171l0 -2.263794l-0.04626465 -0.3300171l-0.09460449 -0.28179932l-0.14086914 -0.2354126l-0.18914795 -0.2836914l-0.18914795 -0.18914795l-0.28173828 -0.18719482l-0.2836914 -0.09460449l-0.28179932 -0.09454346l-3.3947144 -0.37634277l-0.18719482 -0.6600342l-0.2836914 -0.70825195l-0.2836914 -0.6600342l-0.328125 -0.6581421l2.1210327 -2.6401367l0.14086914 -0.2836914l0.09454346 -0.28173828l0.09454346 -0.2836914l0 -0.28179932l-0.048217773 -0.3300171l-0.09454346 -0.2836914l-0.14093018 -0.28173828l-0.18908691 -0.23547363l-1.6018677 -1.6037598l-0.2354126 -0.18914795l-0.28375244 -0.14086914l-0.28173828 -0.09454346l-0.3300171 -0.046325684l-0.2836914 0l-0.28179932 0.09454346l-0.2836914 0.09454346l-0.28173828 0.18725586l-2.6401367 2.074646l-0.6600342 -0.3300171l-0.6600342 -0.2836914l-0.70635986 -0.28179932l-0.6600342 -0.18908691l-0.37823486 -3.3928223l-0.09265137 -0.2836914l-0.09460449 -0.2817688l-0.18908691 -0.28372192l-0.18914795 -0.18911743l-0.28179932 -0.18719482l-0.2354126 -0.14282227l-0.2836914 -0.09265137l-0.3300171 -0.04824829z" fill-rule="evenodd"/><path fill="#184769" d="m656.2198 425.87302l-0.4772339 0.06976318l-0.4772339 0.066986084l-0.4772339 0.13674927l-0.4772339 0.13674927l-0.47717285 0.20373535l-0.4074707 0.27349854l-0.34326172 0.27072144l-0.34051514 0.34326172l-0.3404541 0.34048462l-0.27349854 0.4074402l-0.27075195 0.4102478l-0.20367432 0.4074707l-0.20654297 0.4772339l-0.06695557 0.4772339l-0.06982422 0.47720337l-0.06695557 0.5470276l0.06695557 0.7479248l0.20654297 0.7507324l0.27069092 0.6809387l0.34051514 0.61398315l-8.86084 10.429291l1.024231 0.7479248l0.9544678 0.8874817l8.86084 -10.362305l0.47717285 0.20654297l0.5442505 0.13674927l0.54418945 0.066986084l0.5469971 0.06695557l0.54418945 -0.06695557l0.4772339 -0.066986084l0.4772339 -0.06976318l0.4772339 -0.20373535l0.41027832 -0.20373535l0.4074707 -0.27349854l0.4102173 -0.27349854l0.34051514 -0.34048462l0.3404541 -0.34048462l0.27349854 -0.34048462l0.27069092 -0.47720337l0.20654297 -0.41027832l0.13397217 -0.47720337l0.13671875 -0.4772339l0.06976318 -0.4744568l0.0670166 -0.47720337l-0.0670166 -0.5470276l-0.06976318 -0.47720337l-0.13671875 -0.4772339l-0.13397217 -0.4772339l-0.20654297 -0.4074707l-0.27069092 -0.4102478l-0.27349854 -0.4074402l-0.3404541 -0.34048462l-0.34051514 -0.34326172l-0.4102173 -0.27072144l-0.4074707 -0.27349854l-0.41027832 -0.20373535l-0.4772339 -0.13674927l-0.4772339 -0.13674927l-0.4772339 -0.066986084l-0.54418945 -0.06976318z" fill-rule="evenodd"/><path fill="#184769" d="m620.3662 428.80338l-0.4772339 0.06976318l-0.4772339 0.13674927l-0.4074707 0.20373535l-0.4772339 0.20373535l-0.4102173 0.27349854l-0.3404541 0.27349854l-0.34051514 0.34048462l-0.3404541 0.3404541l-0.27349854 0.4074707l-0.27075195 0.4102478l-0.20648193 0.4074707l-0.13397217 0.4772339l-0.13677979 0.5469971l-0.06976318 0.4772339l0 0.47720337l0 0.54422l0.06976318 0.4772339l0.13677979 0.4772339l0.20373535 0.4102478l0.20373535 0.4772339l0.27349854 0.3404541l0.27069092 0.4074707l0.34326172 0.34048462l0.34051514 0.34048462l0.40740967 0.27349854l0.41027832 0.27349854l0.4074707 0.20373535l0.4772339 0.13674927l0.5469971 0.13674927l0.68096924 0.06695557l0.7507324 0l0.6809082 -0.13674927l0.68096924 -0.20370483l5.383484 6.9519043l0.9544678 -0.8177185l1.0911865 -0.7479248l-5.383484 -7.021698l0.34051514 -0.4772339l0.27069092 -0.47720337l0.20654297 -0.54422l0.13671875 -0.61398315l0.0670166 -0.4772339l0 -0.5469971l0 -0.47442627l-0.13677979 -0.4772339l-0.13671875 -0.4772339l-0.13677979 -0.4102478l-0.20373535 -0.4772339l-0.27069092 -0.4074402l-0.27349854 -0.34329224l-0.34051514 -0.34048462l-0.3404541 -0.3404541l-0.4102173 -0.27072144l-0.4074707 -0.27349854l-0.4772339 -0.20373535l-0.4772339 -0.13674927l-0.4772339 -0.13674927l-0.4772339 -0.06976318z" fill-rule="evenodd"/><path fill="#184769" d="m625.07153 457.36456l-10.088806 4.1582947l-0.3404541 -0.34326172l-0.34051514 -0.34048462l-0.3404541 -0.3404541l-0.4772339 -0.27352905l-0.41027832 -0.20370483l-0.47717285 -0.20373535l-0.4772339 -0.13674927l-0.4772339 -0.066986084l-0.4772339 -0.06976318l-0.4772339 0.06976318l-0.4772339 0l-0.4772339 0.13674927l-0.4772339 0.13397217l-0.4074707 0.20651245l-0.4102173 0.20373535l-0.4074707 0.27349854l-0.41027832 0.34048462l-0.3404541 0.3404541l-0.3404541 0.34048462l-0.27349854 0.4772339l-0.20373535 0.4074707l-0.20373535 0.4772339l-0.13677979 0.47720337l-0.06695557 0.4772339l-0.06976318 0.4772339l0 0.4772339l0.06976318 0.4772339l0.13397217 0.4772339l0.13671875 0.47720337l0.20373535 0.41027832l0.20654297 0.47720337l0.27069092 0.34048462l0.27349854 0.4074707l0.4102173 0.34048462l0.34051514 0.34326172l0.4772339 0.27069092l0.4074707 0.20373535l0.4772339 0.20654297l0.47717285 0.13674927l0.4772339 0.06695557l0.4772339 0.066986084l0.4772339 0l0.4772339 -0.066986084l0.4772339 -0.13674927l0.4772339 -0.13674927l0.41027832 -0.13674927l0.40740967 -0.27069092l0.41027832 -0.27349854l0.4074707 -0.27349854l0.3404541 -0.34048462l0.34051514 -0.4074707l0.27349854 -0.4102478l0.3404541 -0.8177185l0.20373535 -0.7507019l0.13671875 -0.8177185l-0.06695557 -0.8177185l10.155762 -4.1555176l-0.61395264 -1.1609802l-0.4074707 -1.2251587z" fill-rule="evenodd"/><path fill="#184769" d="m634.75006 465.81516l-0.27349854 7.9761353l-0.54418945 0.13674927l-0.5469971 0.27072144l-0.5442505 0.27349854l-0.4772339 0.3404541l-0.4102173 0.34048462l-0.27069092 0.4102478l-0.34326172 0.4074707l-0.20373535 0.4102478l-0.20373535 0.4074707l-0.13677979 0.47720337l-0.13671875 0.4772339l-0.0670166 0.4772339l0 0.4772339l0 0.4772339l0.0670166 0.4772339l0.13671875 0.47720337l0.13677979 0.41027832l0.20373535 0.47720337l0.27349854 0.4074707l0.3404541 0.4102478l0.3404541 0.4074707l0.34051514 0.3404541l0.4102173 0.27352905l0.4074707 0.20370483l0.4772339 0.20373535l0.41027832 0.20651245l0.4772339 0.066986084l0.4772339 0.06976318l0.47717285 0.066986084l0.4772339 -0.066986084l0.4772339 -0.06976318l0.4772339 -0.13674927l0.4772339 -0.13674927l0.4074707 -0.20373535l0.4772339 -0.27069092l0.4102173 -0.27349854l0.34051514 -0.34048462l0.3404541 -0.4102478l0.27075195 -0.4074707l0.27349854 -0.4102478l0.20367432 -0.4074402l0.13677979 -0.4772339l0.13671875 -0.4772339l0.06982422 -0.4772339l0 -0.4772339l0 -0.4772339l-0.06982422 -0.4772339l-0.13671875 -0.47720337l-0.20373535 -0.4772339l-0.20373535 -0.4102478l-0.20648193 -0.4074707l-0.34051514 -0.4102478l-0.4772339 -0.54422l-0.61120605 -0.47720337l-0.61395264 -0.34048462l-0.61395264 -0.20373535l0.27349854 -8.043121l0 0l-0.817749 0.066986084l-0.8874512 -0.066986084l-0.8847046 -0.06976318z" fill-rule="evenodd"/><path fill="#184769" d="m660.9893 452.11505l-0.4744873 0.06976318l-0.47717285 0.13394165l-0.4772339 0.13674927l-0.5469971 0.20654297l-0.4772339 0.27069092l-0.4074707 0.27349854l-0.41027832 0.34048462l-0.3404541 0.4102478l-0.27349854 0.4074707l-0.27069092 0.4102478l-0.20654297 0.4772339l-8.177063 -1.024231l-0.06976318 1.2949219l-0.20373535 1.2279663l8.110107 1.0214233l0.06976318 0.5470276l0.20373535 0.54418945l0.20367432 0.4102478l0.20654297 0.4772339l0.27069092 0.4074707l0.34051514 0.34048462l0.3404541 0.3404541l0.34326172 0.34048462l0.4074707 0.27349854l0.41027832 0.20373535l0.4772339 0.20651245l0.4772339 0.13397217l0.47717285 0.06976318l0.4744873 0.066986084l0.4772339 0l0.4772339 -0.066986084l0.47717285 -0.06976318l0.4772339 -0.20373535l0.4772339 -0.13674927l0.4772339 -0.27072144l0.41027832 -0.27349854l0.3404541 -0.3404541l0.34051514 -0.34048462l0.3404541 -0.34048462l0.20373535 -0.4102478l0.27349854 -0.4074707l0.13671875 -0.4772339l0.13677979 -0.47720337l0.13671875 -0.4102478l0.0670166 -0.54422l0 -0.4772339l-0.0670166 -0.4772339l-0.06976318 -0.4772339l-0.20373535 -0.4772339l-0.20373535 -0.47720337l-0.20648193 -0.4772339l-0.27069092 -0.4102478l-0.34051514 -0.34048462l-0.34326172 -0.34048462l-0.3404541 -0.34048462l-0.4074707 -0.20373535l-0.41027832 -0.27349854l-0.4772339 -0.13674927l-0.4772339 -0.13674927l-0.47717285 -0.13394165l-0.4772339 0l-0.4772339 -0.06976318z" fill-rule="evenodd"/><path fill="#184769" d="m636.5222 443.39096l-1.0911865 0.066986084l-1.024231 0.13674927l-1.0214233 0.27349854l-0.9544678 0.3404541l-0.9544678 0.4772339l-0.8847046 0.54422l-0.7507324 0.61398315l-0.7507324 0.6809387l-0.6809082 0.7507324l-0.6140137 0.8177185l-0.54418945 0.8177185l-0.4772339 0.95443726l-0.3404541 0.9544678l-0.27349854 1.0214539l-0.13677979 1.0911865l-0.06695557 1.024231l0.06695557 1.0884094l0.13677979 1.091217l0.27349854 1.0214539l0.3404541 0.95443726l0.4772339 0.8874817l0.54418945 0.8847046l0.6140137 0.817688l0.6809082 0.7507324l0.7507324 0.68096924l0.7507324 0.61398315l0.8847046 0.5469971l0.9544678 0.4074402l0.9544678 0.4102478l1.0214233 0.20373535l1.024231 0.20373535l1.0911865 0.06976318l1.08844 -0.06976318l1.0911865 -0.20373535l0.9544678 -0.20373535l1.0214233 -0.4102478l0.8875122 -0.4074402l0.8847046 -0.5469971l0.817688 -0.61398315l0.7507324 -0.68096924l0.68096924 -0.7507324l0.61395264 -0.817688l0.5469971 -0.8847046l0.4074707 -0.8874817l0.4102173 -0.95443726l0.20373535 -1.0214539l0.20373535 -1.091217l0 -1.0884094l0 -1.024231l-0.20373535 -1.0911865l-0.20373535 -1.0214539l-0.4102173 -0.9544678l-0.4074707 -0.95443726l-0.5469971 -0.8177185l-0.61395264 -0.8177185l-0.68096924 -0.7507324l-0.7507324 -0.6809387l-0.817688 -0.61398315l-0.8847046 -0.54422l-0.8875122 -0.4772339l-1.0214233 -0.3404541l-0.9544678 -0.27349854l-1.0911865 -0.13674927l-1.08844 -0.066986084z" fill-rule="evenodd"/><path fill="#3292e1" d="m378.84085 409.9518l-1.0150452 0.061157227l-1.0175171 0.11984253l-0.95391846 0.11984253l-0.95635986 0.17855835l-0.95635986 0.23724365l-0.89520264 0.3008728l-0.89764404 0.29840088l-0.89523315 0.29840088l-0.8364868 0.4182434l-0.83651733 0.3571167l-0.83651733 0.47940063l-0.7753601 0.47695923l-0.7166443 0.47695923l-0.7166748 0.53808594l-0.7166443 0.53811646l-0.657959 0.59680176l-0.59680176 0.5992737l-0.5992737 0.65548706l-0.53564453 0.657959l-0.53811646 0.657959l-0.47940063 0.7166748l-0.415802 0.7166443l-0.4182434 0.7753601l-0.3595581 0.7778015l-0.29840088 0.7753601l-0.29840088 0.7778015l-0.17855835 0.83651733l-0.18099976 0.83651733l-0.11984253 0.8340454l-0.11743164 0.83651733l0 0.89764404l0 0.89523315l0.11743164 0.95635986l0.11984253 0.89520264l0.23968506 0.83651733l0.23971558 0.89520264l0.29840088 0.83651733l0.3571167 0.8364868l0.4182434 0.83651733l0.4182434 0.7778015l0.47940063 0.7166748l0.5968323 0.7753601l0.53808594 0.7166443l0.6555176 0.657959l0.657959 0.657959l0.7166443 0.6555176l0.7166748 0.59924316l-0.47695923 0.89520264l-0.53811646 0.89523315l-0.59680176 0.95635986l-0.7778015 0.89520264l-0.83651733 0.89764404l-0.47695923 0.41827393l-0.53808594 0.35708618l-0.53811646 0.3595581l-0.53811646 0.3571167l-0.59680176 0.23968506l-0.6555176 0.29840088l0.2984314 0l0.89520264 0.11987305l2.1499634 0l0.83651733 -0.05871582l0.95635986 -0.18099976l0.95635986 -0.17855835l1.0150452 -0.29840088l1.0150757 -0.3595581l1.0762024 -0.47695923l1.0150757 -0.59680176l1.0150452 -0.657959l0.95635986 -0.89520264l0.89520264 0.29840088l0.89767456 0.29840088l0.95391846 0.17855835l0.95635986 0.17855835l0.95635986 0.18099976l0.95635986 0.11984253l1.0150452 0.05871582l2.0301208 0l1.0150757 -0.05871582l1.0175171 -0.11984253l0.95388794 -0.18099976l0.95635986 -0.17855835l0.95635986 -0.23724365l0.89523315 -0.23971558l0.89764404 -0.29840088l0.89520264 -0.3595581l0.83651733 -0.35708618l0.83651733 -0.41827393l0.8364868 -0.4182434l0.7753601 -0.47940063l0.7166748 -0.47695923l0.7166443 -0.53811646l0.7166748 -0.59680176l0.657959 -0.53808594l0.59680176 -0.657959l0.59924316 -0.5968323l0.53567505 -0.65548706l0.53808594 -0.7191162l0.47940063 -0.7166443l0.41827393 -0.7166748l0.415802 -0.7166443l0.3595581 -0.7753601l0.29840088 -0.7778015l0.29840088 -0.83651733l0.18099976 -0.7753601l0.17855835 -0.83651733l0.11984253 -0.83651733l0.11740112 -0.89520264l0 -0.83651733l0 -0.89764404l-0.11740112 -0.83651733l-0.11984253 -0.8340454l-0.17855835 -0.83651733l-0.18099976 -0.83651733l-0.29840088 -0.7778015l-0.29840088 -0.7753601l-0.3595581 -0.7778015l-0.415802 -0.7753601l-0.41827393 -0.7166443l-0.47940063 -0.7166748l-0.53808594 -0.657959l-0.53567505 -0.657959l-0.59924316 -0.65548706l-0.59680176 -0.5992737l-0.657959 -0.59680176l-0.7166748 -0.53811646l-0.7166443 -0.53808594l-0.7166748 -0.47695923l-0.7753601 -0.47695923l-0.8364868 -0.47940063l-0.83651733 -0.3571167l-0.83651733 -0.4182434l-0.89520264 -0.29840088l-0.89764404 -0.29840088l-0.89523315 -0.3008728l-0.95635986 -0.23724365l-0.95635986 -0.17855835l-0.95388794 -0.11984253l-1.0175171 -0.11984253l-1.0150757 -0.061157227z" fill-rule="evenodd"/><path fill="#000000" fill-opacity="0.0" d="m147.0 209.11548l665.98425 0l0 121.763794l-665.98425 0z" fill-rule="evenodd"/><path fill="#19bbd5" d="m284.4427 292.93738q-0.96875 0 -0.96875 -0.953125q0 -0.96875 0.96875 -0.96875l4.484375 0q0.953125 0 0.953125 -0.953125l0 -39.04689q0 -0.953125 -0.953125 -0.953125l-4.484375 0q-0.96875 0 -0.96875 -0.953125q0 -0.96875 0.96875 -0.96875l12.796875 0q0.953125 0 0.953125 0.96875q0 0.953125 -0.953125 0.953125l-4.484375 0q-0.953125 0 -0.953125 0.953125l0 39.04689q0 0.953125 0.953125 0.953125l4.484375 0q0.953125 0 0.953125 0.96875q0 0.953125 -0.953125 0.953125l-12.796875 0zm19.647339 -1.921875l4.484375 0q0.953125 0 0.953125 -0.953125l0 -26.25q0 -0.953125 -0.953125 -0.953125l-4.484375 0q-0.96875 0 -0.96875 -0.953125q0 -0.96875 0.96875 -0.96875l6.390625 0q0.96875 0 0.96875 0.953125l0 3.59375q0 0.640625 0.25 0.90625q0.265625 0.25 0.765625 -0.265625q5.1875 -5.828125 11.265625 -5.828125q6.078125 0 9.375 3.296875q3.296875 3.296875 3.296875 9.5l0 16.96875q0 0.953125 0.96875 0.953125l4.484375 0q0.953125 0 0.953125 0.96875q0 0.953125 -0.953125 0.953125l-12.171875 0q-0.953125 0 -0.953125 -0.953125q0 -0.96875 0.953125 -0.96875l3.84375 0q0.953125 0 0.953125 -0.953125l0 -16.96875q0 -5.4375 -2.8125 -8.15625q-2.8125 -2.71875 -7.6875 -2.71875q-4.859375 0 -9.203125 4.34375q-1.921875 1.921875 -3.328125 4.296875l0 19.203125q0 0.953125 0.953125 0.953125l3.84375 0q0.96875 0 0.96875 0.96875q0 0.953125 -0.96875 0.953125l-12.15625 0q-0.96875 0 -0.96875 -0.953125q0 -0.96875 0.96875 -0.96875zm62.590332 -2.5625q0.640625 -0.640625 1.140625 -0.125q0.515625 0.515625 0.515625 0.828125q0.078125 0.328125 -0.4375 0.84375q-1.53125 1.53125 -3.078125 2.296875q-3.96875 1.34375 -4.546875 1.3125q-0.5625 -0.03125 -0.640625 -0.03125q-4.46875 0 -7.03125 -2.875q-2.5625 -2.890625 -2.5625 -8.328125l0 -18.5625q0 -0.953125 -0.953125 -0.953125l-4.484375 0q-0.96875 0 -0.96875 -0.96875q0 -0.953125 0.96875 -0.953125l4.484375 0q0.953125 0 0.953125 -0.953125l0 -10.89064q0 -0.953125 0.953125 -0.953125q0.96875 0 0.96875 0.953125l0 10.89064q0 0.953125 0.953125 0.953125l10.890625 0q0.953125 0 0.953125 0.953125q0 0.96875 -0.953125 0.96875l-10.890625 0q-0.953125 0 -0.953125 0.953125l0 18.5625q0 4.609375 2.046875 6.953125q2.046875 2.328125 5.65625 2.328125q3.625 0 7.015625 -3.203125zm28.416931 -26.234375q-8.0625 0 -13.4375 6.328125q-1.546875 1.796875 -2.5625 3.59375l0 17.921875q0 0.953125 0.953125 0.953125l5.125 0q0.953125 0 0.953125 0.96875q0 0.953125 -0.953125 0.953125l-13.4375 0q-0.96875 0 -0.96875 -0.953125q0 -0.96875 0.96875 -0.96875l4.484375 0q0.953125 0 0.953125 -0.953125l0 -26.25q0 -0.953125 -0.953125 -0.953125l-4.484375 0q-0.96875 0 -0.96875 -0.96875q0 -0.953125 0.96875 -0.953125l6.390625 0q0.96875 0 0.96875 0.953125l0 5.0625q0 1.59375 1.34375 0.0625q2.375 -2.6875 6.171875 -4.703125q3.8125 -2.015625 8.484375 -2.015625l3.140625 0q0.953125 0 0.953125 0.953125l0 8.0q0 0.96875 -0.96875 0.96875q-0.953125 0 -0.953125 -0.96875l0 -6.078125q0 -0.953125 -0.953125 -0.953125l-1.21875 0zm13.432343 26.75q-4.34375 -4.609375 -4.34375 -12.03125q0 -7.421875 4.34375 -12.03125q4.359375 -4.609375 11.328125 -4.609375q6.984375 0 11.328125 4.609375q4.359375 4.609375 4.359375 12.03125q0 7.421875 -4.359375 12.03125q-4.34375 4.609375 -11.328125 4.609375q-6.96875 0 -11.328125 -4.609375zm11.328125 -26.75q-6.203125 0 -9.984375 4.03125q-3.765625 4.03125 -3.765625 10.71875q0 6.6875 3.734375 10.6875q3.75 4.0 10.015625 4.0q6.28125 0 10.015625 -4.0q3.75 -4.0 3.75 -10.6875q0 -6.6875 -3.78125 -10.71875q-3.765625 -4.03125 -9.984375 -4.03125zm49.028564 -11.20314q0 -0.953125 -0.953125 -0.953125l-5.125 0q-0.953125 0 -0.953125 -0.96875q0 -0.953125 0.953125 -0.953125l7.046875 0q0.953125 0 0.953125 0.953125l0 40.968765q0 0.953125 0.953125 0.953125l4.484375 0q0.96875 0 0.96875 0.96875q0 0.953125 -0.96875 0.953125l-6.390625 0q-0.96875 0 -0.96875 -0.953125l0 -3.59375q0 -0.640625 -0.265625 -0.890625q-0.25 -0.265625 -0.75 0.25q-1.609375 2.109375 -4.71875 3.96875q-3.09375 1.859375 -6.6875 1.859375q-6.78125 0 -10.625 -4.4375q-3.828125 -4.453125 -3.828125 -12.125q0 -7.6875 4.578125 -11.875q4.578125 -4.203125 12.703125 -4.203125l8.640625 0q0.953125 0 0.953125 -0.953125l0 -8.968765zm0 12.79689q0 -0.953125 -0.953125 -0.953125l-8.640625 0q-7.296875 0 -11.328125 3.59375q-4.03125 3.578125 -4.03125 10.515625q0 6.9375 3.359375 10.8125q3.359375 3.875 8.703125 3.875q5.34375 0 9.625 -4.28125q1.796875 -1.796875 3.265625 -4.359375l0 -19.203125zm11.962067 -2.875l6.40625 0q0.96875 0 0.96875 0.953125l0 18.890625q0 5.4375 2.8125 8.15625q2.8125 2.71875 7.671875 2.71875q4.875 0 9.15625 -4.28125q1.921875 -1.984375 3.390625 -4.359375l0 -19.203125q0 -0.953125 -0.953125 -0.953125l-4.484375 0q-0.96875 0 -0.96875 -0.953125q0 -0.96875 0.96875 -0.96875l6.40625 0q0.953125 0 0.953125 0.953125l0 28.171875q0 0.953125 0.953125 0.953125l4.484375 0q0.96875 0 0.96875 0.96875q0 0.953125 -0.96875 0.953125l-6.390625 0q-0.96875 0 -0.96875 -0.953125l0 -3.59375q0 -0.640625 -0.265625 -0.890625q-0.25 -0.265625 -0.75 0.25q-5.1875 5.828125 -11.265625 5.828125q-6.078125 0 -9.375 -3.296875q-3.296875 -3.296875 -3.296875 -9.5l0 -16.96875q0 -0.953125 -0.96875 -0.953125l-4.484375 0q-0.953125 0 -0.953125 -0.953125q0 -0.96875 0.953125 -0.96875zm69.05969 8.0q-5.1875 -6.71875 -12.15625 -6.71875q-5.1875 0 -8.703125 4.09375q-3.453125 4.15625 -3.453125 10.75q0 6.59375 3.640625 10.59375q3.65625 4.0 9.609375 4.0q5.875 0 9.84375 -3.203125q1.03125 -0.765625 1.609375 -1.265625q0.578125 -0.515625 0.890625 -0.359375q0.328125 0.15625 0.640625 0.546875q0.328125 0.375 0.328125 0.671875q0 0.28125 -0.578125 0.859375q-2.109375 1.859375 -5.15625 3.265625q-3.046875 1.40625 -7.71875 1.40625q-6.78125 0 -10.90625 -4.640625q-4.125 -4.640625 -4.125 -12.0q0 -7.359375 4.03125 -12.0q4.03125 -4.640625 10.203125 -4.640625q6.1875 0 10.984375 4.796875q1.015625 0.90625 1.015625 -0.640625l0 -2.5625q0 -0.953125 0.96875 -0.953125q0.953125 0 0.953125 0.953125l0 10.25q0 0.953125 -0.953125 0.953125q-0.96875 0 -0.96875 -0.953125l0 -3.203125zm29.635925 19.515625q0.640625 -0.640625 1.140625 -0.125q0.515625 0.515625 0.515625 0.828125q0.078125 0.328125 -0.4375 0.84375q-1.53125 1.53125 -3.078125 2.296875q-3.96875 1.34375 -4.546875 1.3125q-0.5625 -0.03125 -0.640625 -0.03125q-4.46875 0 -7.03125 -2.875q-2.5625 -2.890625 -2.5625 -8.328125l0 -18.5625q0 -0.953125 -0.953125 -0.953125l-4.484375 0q-0.96875 0 -0.96875 -0.96875q0 -0.953125 0.96875 -0.953125l4.484375 0q0.953125 0 0.953125 -0.953125l0 -10.89064q0 -0.953125 0.953125 -0.953125q0.96875 0 0.96875 0.953125l0 10.89064q0 0.953125 0.953125 0.953125l10.890625 0q0.953125 0 0.953125 0.953125q0 0.96875 -0.953125 0.96875l-10.890625 0q-0.953125 0 -0.953125 0.953125l0 18.5625q0 4.609375 2.046875 6.953125q2.046875 2.328125 5.65625 2.328125q3.625 0 7.015625 -3.203125zm5.120056 4.484375q-0.953125 0 -0.953125 -0.953125q0 -0.96875 0.953125 -0.96875l4.484375 0q0.953125 0 0.953125 -0.953125l0 -26.25q0 -0.953125 -0.953125 -0.953125l-4.484375 0q-0.953125 0 -0.953125 -0.953125q0 -0.96875 0.953125 -0.96875l6.40625 0q0.953125 0 0.953125 0.953125l0 28.171875q0 0.953125 0.953125 0.953125l4.484375 0q0.96875 0 0.96875 0.96875q0 0.953125 -0.96875 0.953125l-12.796875 0zm4.25 -37.85939q-0.734375 -0.734375 -0.734375 -1.8125q0 -1.09375 0.734375 -1.828125q0.734375 -0.734375 1.828125 -0.734375q1.09375 0 1.828125 0.734375q0.734375 0.734375 0.734375 1.828125q0 1.078125 -0.734375 1.8125q-0.734375 0.734375 -1.828125 0.734375q-1.09375 0 -1.828125 -0.734375zm17.951233 33.89064q-4.34375 -4.609375 -4.34375 -12.03125q0 -7.421875 4.34375 -12.03125q4.359375 -4.609375 11.328125 -4.609375q6.984375 0 11.328125 4.609375q4.359375 4.609375 4.359375 12.03125q0 7.421875 -4.359375 12.03125q-4.34375 4.609375 -11.328125 4.609375q-6.96875 0 -11.328125 -4.609375zm11.328125 -26.75q-6.203125 0 -9.984375 4.03125q-3.765625 4.03125 -3.765625 10.71875q0 6.6875 3.734375 10.6875q3.75 4.0 10.015625 4.0q6.28125 0 10.015625 -4.0q3.75 -4.0 3.75 -10.6875q0 -6.6875 -3.78125 -10.71875q-3.765625 -4.03125 -9.984375 -4.03125zm21.768066 28.796875l4.484375 0q0.953125 0 0.953125 -0.953125l0 -26.25q0 -0.953125 -0.953125 -0.953125l-4.484375 0q-0.96875 0 -0.96875 -0.953125q0 -0.96875 0.96875 -0.96875l6.390625 0q0.96875 0 0.96875 0.953125l0 3.59375q0 0.640625 0.25 0.90625q0.265625 0.25 0.765625 -0.265625q5.1875 -5.828125 11.265625 -5.828125q6.078125 0 9.375 3.296875q3.296875 3.296875 3.296875 9.5l0 16.96875q0 0.953125 0.96875 0.953125l4.484375 0q0.953125 0 0.953125 0.96875q0 0.953125 -0.953125 0.953125l-12.171875 0q-0.953125 0 -0.953125 -0.953125q0 -0.96875 0.953125 -0.96875l3.84375 0q0.953125 0 0.953125 -0.953125l0 -16.96875q0 -5.4375 -2.8125 -8.15625q-2.8125 -2.71875 -7.6875 -2.71875q-4.859375 0 -9.203125 4.34375q-1.921875 1.921875 -3.328125 4.296875l0 19.203125q0 0.953125 0.953125 0.953125l3.84375 0q0.96875 0 0.96875 0.96875q0 0.953125 -0.96875 0.953125l-12.15625 0q-0.96875 0 -0.96875 -0.953125q0 -0.96875 0.96875 -0.96875z" fill-rule="nonzero"/></g></svg>