<svg version="1.1" viewBox="0.0 0.0 960.0 540.0" fill="none" stroke="none" stroke-linecap="square" stroke-miterlimit="10" xmlns:xlink="http://www.w3.org/1999/xlink" xmlns="http://www.w3.org/2000/svg"><clipPath id="g725e9828b3_0_1.0"><path d="m0 0l960.0 0l0 540.0l-960.0 0l0 -540.0z" clip-rule="nonzero"/></clipPath><g clip-path="url(#g725e9828b3_0_1.0)"><path fill="#0e293c" d="m0 0l960.0 0l0 540.0l-960.0 0z" fill-rule="evenodd"/><defs><linearGradient id="g725e9828b3_0_1.1" gradientUnits="userSpaceOnUse" gradientTransform="matrix(11.512445472166055 0.0 0.0 -11.512445472166055 0.0 0.0)" spreadMethod="pad" x1="0.9989379908601301" y1="-14.697515438524837" x2="-4.119248919143056" y2="-4.385359334980402"><stop offset="0.0" stop-color="#3393e2"/><stop offset="1.0" stop-color="#00e2c7"/></linearGradient></defs><path fill="url(#g725e9828b3_0_1.1)" d="m17.18698 125.945l-27.15748 -47.018913l27.15748 -47.028328l54.314957 0l27.157486 47.028328l-27.157486 47.018913l-54.314957 0zm7.6737995 -13.284172l38.966457 0l19.47282 -33.73474l-19.47282 -33.73475l-38.966457 0l-19.482777 33.73475l19.482777 33.73474z" fill-rule="evenodd"/><defs><radialGradient id="g725e9828b3_0_1.2" gradientUnits="userSpaceOnUse" gradientTransform="matrix(0.0 16.933439928002688 -16.933439928002688 0.0 0.0 0.0)" spreadMethod="pad" cx="21.4836828371951" cy="-15.411275235371189" fx="21.4836828371951" fy="-15.411275235371189" r="16.933439254760742"><stop offset="0.0" stop-color="#3393e2"/><stop offset="1.0" stop-color="#00e2c7"/></radialGradient></defs><path fill="url(#g725e9828b3_0_1.2)" d="m260.9659 269.9344l-54.18898 93.85828l-108.37796 0l-54.188972 -93.85828l54.188972 -93.85828l108.37796 0z" fill-rule="evenodd"/><path fill="#000000" fill-opacity="0.0" d="m6.9999065 366.45407l21.379787 37.275574l43.319168 0l21.379784 -37.275574l-21.379784 -37.275574l-43.319168 0z" fill-rule="evenodd"/><path stroke="#19bbd5" stroke-width="1.0" stroke-linejoin="round" stroke-linecap="butt" d="m6.9999065 366.45407l21.379787 37.275574l43.319168 0l21.379784 -37.275574l-21.379784 -37.275574l-43.319168 0z" fill-rule="evenodd"/><path fill="#184769" d="m86.99996 388.6719l11.173126 19.480316l22.661613 0l11.173126 -19.480316l-11.173126 -19.480286l-22.661613 0z" fill-rule="evenodd"/><path fill="#000000" fill-opacity="0.0" d="m79.99991 129.44882l21.379784 37.275574l43.31916 0l21.379791 -37.275574l-21.379791 -37.275574l-43.31916 0z" fill-rule="evenodd"/><path stroke="#184769" stroke-width="8.0" stroke-miterlimit="8.0" stroke-linecap="butt" d="m79.99991 129.44882l21.379784 37.275574l43.31916 0l21.379791 -37.275574l-21.379791 -37.275574l-43.31916 0z" fill-rule="evenodd"/><path fill="#00e1c6" d="m83.34396 516.19434l13.4854355 23.51184l27.35984 0l13.485428 -23.51184l-13.485428 -23.51178l-27.35984 0z" fill-rule="evenodd"/><path fill="#184769" d="m109.91025 127.51991l0.32255554 0.054855347l0.26769257 0.10532379l0.2677002 0.10752106l0.21503448 0.21502686l0.21503448 0.21504211l0.16017914 0.2677002l0.05265808 0.26768494l0.054855347 0.32035828l-0.054855347 0.32255554l-0.05265808 0.2677002l-0.16017914 0.26768494l-0.21503448 0.2677002l-0.21503448 0.16236877l-0.2677002 0.16018677l-0.26769257 0.05265808l-0.32255554 0.054855347l-0.32035065 -0.054855347l-0.2677002 -0.05265808l-0.26769257 -0.16018677l-0.21503448 -0.16236877l-0.21503448 -0.2677002l-0.16017914 -0.26768494l-0.05265808 -0.2677002l-0.054855347 -0.32255554l0.054855347 -0.32035828l0.05265808 -0.26768494l0.16017914 -0.2677002l0.21503448 -0.21504211l0.21503448 -0.21502686l0.26769257 -0.10752106l0.2677002 -0.10532379l0.32035065 -0.054855347zm-5.3034363 -2.1964188l0 19.344292l8.627693 0l0 -19.344292z" fill-rule="evenodd"/><path fill="#184769" d="m128.3988 112.40828l-0.80309296 0.05266571l-0.53539276 0.10751343l-0.43006897 0.16017914l-0.32035065 0.1623764l-0.8579483 2.7318115l-0.4278717 1.2331543l-0.43006897 1.1256332l-0.4278717 1.0181198l-0.4278717 0.8579483l-0.37521362 0.6429062l-0.32255554 0.53539276l-0.48272705 0.48272705l-0.75042725 0.75042725l-1.768547 1.661026l-2.356598 2.1437607l-3.1618805 0l0 15.807198l3.3220596 0l1.0729752 0.5375824l1.4986572 0.6429138l1.9309235 0.75042725l2.143753 0.8030853l2.3039398 0.69776917l1.178299 0.32035828l1.1782913 0.26768494l1.1256409 0.2677002l1.1256409 0.16236877l1.0181274 0.10533142l1.0181122 0.054855347l1.7158813 0l0.910614 -0.054855347l0.8579407 -0.10533142l0.75042725 -0.21502686l0.37521362 -0.10751343l0.26768494 -0.10752869l0.2677002 -0.16017151l0.21284485 -0.21504211l0.10751343 -0.21282959l0.10751343 -0.26989746l0.16018677 -1.5535126l-0.05267334 -0.37521362l-0.10751343 -0.32035828l-0.21502686 -0.32254028l-0.32035828 -0.2677002l0.2677002 -0.05265808l0.26768494 -0.10751343l0.2677002 -0.10752869l0.21502686 -0.21502686l0.16018677 -0.21284485l0.16017151 -0.2698822l0.10752869 -0.32035828l0.054855347 -0.2677002l0.16017151 -1.9287262l0 -0.2698822l0 -0.21284485l-0.05265808 -0.2677002l-0.10751343 -0.21502686l-0.2677002 -0.37521362l-0.16236877 -0.16018677l-0.16018677 -0.16236877l0.2677002 -0.05265808l0.21502686 -0.10751343l0.21504211 -0.16018677l0.21282959 -0.21502686l0.16238403 -0.21504211l0.10531616 -0.21282959l0.10751343 -0.2677002l0.054855347 -0.32255554l0.16018677 -1.8760529l0 -0.2677002l0 -0.2677002l-0.05265808 -0.2677002l-0.10752869 -0.21502686l-0.10751343 -0.21284485l-0.16017151 -0.16236877l-0.16238403 -0.16017151l-0.21282959 -0.16018677l0.21282959 -0.054855347l0.21504211 -0.16017151l0.21502686 -0.16018677l0.16018677 -0.16017151l0.16017151 -0.21504211l0.10752869 -0.21502686l0.05265808 -0.2677002l0.054855347 -0.2677002l0.21502686 -1.9287109l-0.054855347 -0.2677002l-0.05265808 -0.26988983l-0.10751343 -0.21284485l-0.10751343 -0.21503448l-0.16018677 -0.21503448l-0.21502686 -0.16017914l-0.4827423 -0.32035065l-0.53538513 -0.26988983l-0.6429138 -0.21284485l-0.6977539 -0.16017914l-0.6955719 -0.10751343l-1.5008545 -0.21503448l-2.3039398 -0.21503448l-2.7339935 -0.16017914l-2.7866669 -0.16017914l0.37521362 -0.6429062l0.32254028 -0.75042725l0.32035828 -0.8052826l0.21504211 -0.8557434l0.21502686 -0.8579407l0.21284485 -0.9106064l0.21502686 -1.768547l0.16018677 -1.6083679l0.10751343 -1.3406677l0 -1.2309647l0 -0.37521362l-0.16017151 -0.43006897l-0.16018677 -0.32035828l-0.2677002 -0.3225479l-0.32254028 -0.32035828l-0.37521362 -0.16236877l-0.4278717 -0.16017914l-0.43006897 -0.05266571z" fill-rule="evenodd"/><path fill="#19bbd5" d="m50.577553 352.78687l0.17918777 0.036712646l0.108688354 0.10720825l0.107219696 0.10723877l0.035251617 0.1791687l-0.035251617 0.14395142l-0.107219696 0.14395142l-0.108688354 0.07196045l-0.17918777 0.035247803l-1.0751381 0l-0.18065643 -0.035247803l-0.107219696 -0.07196045l-0.107219696 -0.14395142l-0.035251617 -0.14395142l0.035251617 -0.1791687l0.107219696 -0.10723877l0.107219696 -0.10720825l0.18065643 -0.036712646zm6.277508 2.3323975l0 20.769806l-13.630154 0l0 -20.769806zm-6.8150787 22.34726l0.25115967 0.036743164l0.25115967 0.07196045l0.21443939 0.10720825l0.17919159 0.14395142l0.14393997 0.17919922l0.107219696 0.2144165l0.07196808 0.25115967l0.036720276 0.25115967l-0.036720276 0.25115967l-0.07196808 0.25115967l-0.107219696 0.21591187l-0.14393997 0.17919922l-0.17919159 0.14245605l-0.21443939 0.10870361l-0.25115967 0.070495605l-0.25115967 0.036712646l-0.25115585 -0.036712646l-0.25115967 -0.070495605l-0.21590805 -0.10870361l-0.17919159 -0.14245605l-0.14247131 -0.17919922l-0.108688354 -0.21591187l-0.07049942 -0.25115967l-0.036720276 -0.25115967l0.036720276 -0.25115967l0.07049942 -0.25115967l0.108688354 -0.2144165l0.14247131 -0.17919922l0.17919159 -0.14395142l0.21590805 -0.10720825l0.25115967 -0.07196045l0.25115585 -0.036743164zm-6.815075 -26.114655l-0.39509583 0.036712646l-0.35837936 0.10723877l-0.32313156 0.1791687l-0.28787613 0.21591187l-0.21443939 0.28640747l-0.17919159 0.32315063l-0.107219696 0.35836792l-0.03671646 0.39511108l0 26.401062l0.03671646 0.39511108l0.107219696 0.35836792l0.17919159 0.32312012l0.21443939 0.28640747l0.28787613 0.21591187l0.32313156 0.17919922l0.35837936 0.10720825l0.39509583 0.036712646l13.630154 0l0.39509583 -0.036712646l0.35837936 -0.10720825l0.32313156 -0.17919922l0.28640747 -0.21591187l0.21590805 -0.28640747l0.17919159 -0.32312012l0.107219696 -0.35836792l0.03671646 -0.39511108l0 -26.401062l-0.03671646 -0.39511108l-0.107219696 -0.35836792l-0.17919159 -0.32315063l-0.21590805 -0.28640747l-0.28640747 -0.21591187l-0.32313156 -0.1791687l-0.35837936 -0.10723877l-0.39509583 -0.036712646z" fill-rule="evenodd"/><path fill="#000000" fill-opacity="0.0" d="m50.20996 96.31626l0 -2.2773361l-10.343845 0l0 2.2773361l10.343845 0z" fill-rule="evenodd"/><path stroke="#19bbd5" stroke-width="1.2782152230971129" stroke-linejoin="round" stroke-linecap="round" d="m50.20996 96.31626l0 -2.2773361l-10.343845 0l0 2.2773361l10.343845 0z" fill-rule="evenodd"/><path fill="#000000" fill-opacity="0.0" d="m50.20996 93.97574l0 -2.2773285l-10.343845 0l0 2.2773285l10.343845 0z" fill-rule="evenodd"/><path stroke="#19bbd5" stroke-width="1.2782152230971129" stroke-linejoin="round" stroke-linecap="round" d="m50.20996 93.97574l0 -2.2773285l-10.343845 0l0 2.2773285l10.343845 0z" fill-rule="evenodd"/><path fill="#000000" fill-opacity="0.0" d="m39.866116 96.31626l0 0.42967987l0 0l0.060668945 0.3715515l0.1870575 0.36902618l0.24520111 0.3058319l0.36906052 0.18704224l3.877678 1.2915802l0 0l0.4322586 0.060661316l0 0l0.42972946 -0.060661316l3.880207 -1.2915802l0 0l0.36906052 -0.18704224l0.2451973 -0.3058319l0.18453217 -0.36902618l0.063194275 -0.3715515l0 -0.42967987l-10.343845 0z" fill-rule="evenodd"/><path stroke="#19bbd5" stroke-width="1.2782152230971129" stroke-linejoin="round" stroke-linecap="round" d="m39.866116 96.31626l0 0.42967987l0 0l0.060668945 0.3715515l0.1870575 0.36902618l0.24520111 0.3058319l0.36906052 0.18704224l3.877678 1.2915802l0 0l0.4322586 0.060661316l0 0l0.42972946 -0.060661316l3.880207 -1.2915802l0 0l0.36906052 -0.18704224l0.2451973 -0.3058319l0.18453217 -0.36902618l0.063194275 -0.3715515l0 -0.42967987l-10.343845 0z" fill-rule="evenodd"/><path fill="#000000" fill-opacity="0.0" d="m42.328213 89.236565l0 0l-2.0930328 -9.665382l-1.4762497 -7.2010193" fill-rule="evenodd"/><path stroke="#19bbd5" stroke-width="1.2782152230971129" stroke-linejoin="round" stroke-linecap="round" d="m42.328213 89.236565l0 0l-2.0930328 -9.665382l-1.4762497 -7.2010193" fill-rule="evenodd"/><path fill="#000000" fill-opacity="0.0" d="m50.20996 89.236565l0 0l0.3083954 -1.3547668l0.42972946 -1.2915878l0.49292374 -1.2309189l0.5535965 -1.1095963l0.61678696 -1.0464096l0.6142616 -1.0464096l1.3549118 -1.9689713l0.6774559 -0.9857483l0.6142616 -0.98322296l0.556118 -0.9857483l0.5535927 -1.1070709l0.42972946 -1.1095963l0.3083954 -1.2309189l0.18453217 -1.2915802l0.060668945 -0.67739105l0.063194275 -0.6773834l0 0l-0.12386322 -1.3547745l-0.18453217 -1.2915802l-0.3083954 -1.2334518l-0.42972946 -1.1677322l-0.5535927 -1.1702576l-0.61678696 -1.0464096l-0.8013191 -0.9857483l-0.7987938 -0.92255783l-0.92518234 -0.8618965l-0.98332214 -0.73804855l-1.1097145 -0.6167259l-1.1071854 -0.55353546l-1.1703796 -0.43221283l-1.2917175 -0.36902237l-1.2310486 -0.18451309l-1.3549118 -0.060661316l0 0l-1.3549118 0.060661316l-1.2310486 0.18451309l-1.2917175 0.36902237l-1.1703835 0.43221283l-1.1097145 0.55353546l-1.1071854 0.6167259l-0.9858475 0.73804855l-0.922657 0.8618965l-0.8013191 0.92255783l-0.79879 0.9857483l-0.6167908 1.0464096l-0.5535927 1.1702576l-0.42972946 1.1677322l-0.3083954 1.2334518l-0.18452835 1.2915802l-0.12386322 1.3547745l0 0l0.06066513 0.6773834l0.06319809 0.67739105l0.18452835 1.2915802l0.3083954 1.2309189l0.42972946 1.1095963l0.5535927 1.1070709l0.5535927 0.9857483l0.6167908 0.98322296l0.6774559 0.9857483l1.3549118 1.9689713l0.6142616 1.0464096l0.61678696 1.0464096l0.5535927 1.1095963l0.49292374 1.2309189l0.42973328 1.2915878l0.30839157 1.3547668" fill-rule="evenodd"/><path stroke="#19bbd5" stroke-width="1.2782152230971129" stroke-linejoin="round" stroke-linecap="round" d="m50.20996 89.236565l0 0l0.3083954 -1.3547668l0.42972946 -1.2915878l0.49292374 -1.2309189l0.5535965 -1.1095963l0.61678696 -1.0464096l0.6142616 -1.0464096l1.3549118 -1.9689713l0.6774559 -0.9857483l0.6142616 -0.98322296l0.556118 -0.9857483l0.5535927 -1.1070709l0.42972946 -1.1095963l0.3083954 -1.2309189l0.18453217 -1.2915802l0.060668945 -0.67739105l0.063194275 -0.6773834l0 0l-0.12386322 -1.3547745l-0.18453217 -1.2915802l-0.3083954 -1.2334518l-0.42972946 -1.1677322l-0.5535927 -1.1702576l-0.61678696 -1.0464096l-0.8013191 -0.9857483l-0.7987938 -0.92255783l-0.92518234 -0.8618965l-0.98332214 -0.73804855l-1.1097145 -0.6167259l-1.1071854 -0.55353546l-1.1703796 -0.43221283l-1.2917175 -0.36902237l-1.2310486 -0.18451309l-1.3549118 -0.060661316l0 0l-1.3549118 0.060661316l-1.2310486 0.18451309l-1.2917175 0.36902237l-1.1703835 0.43221283l-1.1097145 0.55353546l-1.1071854 0.6167259l-0.9858475 0.73804855l-0.922657 0.8618965l-0.8013191 0.92255783l-0.79879 0.9857483l-0.6167908 1.0464096l-0.5535927 1.1702576l-0.42972946 1.1677322l-0.3083954 1.2334518l-0.18452835 1.2915802l-0.12386322 1.3547745l0 0l0.06066513 0.6773834l0.06319809 0.67739105l0.18452835 1.2915802l0.3083954 1.2309189l0.42972946 1.1095963l0.5535927 1.1070709l0.5535927 0.9857483l0.6167908 0.98322296l0.6774559 0.9857483l1.3549118 1.9689713l0.6142616 1.0464096l0.61678696 1.0464096l0.5535927 1.1095963l0.49292374 1.2309189l0.42973328 1.2915878l0.30839157 1.3547668" fill-rule="evenodd"/><path fill="#000000" fill-opacity="0.0" d="m51.317146 72.37016l0 0l-1.4762459 7.2010193l-2.0930367 9.665382" fill-rule="evenodd"/><path stroke="#19bbd5" stroke-width="1.2782152230971129" stroke-linejoin="round" stroke-linecap="round" d="m51.317146 72.37016l0 0l-1.4762459 7.2010193l-2.0930367 9.665382" fill-rule="evenodd"/><path fill="#000000" fill-opacity="0.0" d="m40.482906 71.93795l2.0930367 1.7869873l2.0930328 -1.7869873l0 0l0.18453217 -0.12132263l0.18453217 -0.063186646l0.18452835 0.063186646l0.18453217 0.12132263l2.0930367 1.7869873l2.0930367 -1.7869873" fill-rule="evenodd"/><path stroke="#19bbd5" stroke-width="1.2782152230971129" stroke-linejoin="round" stroke-linecap="round" d="m40.482906 71.93795l2.0930367 1.7869873l2.0930328 -1.7869873l0 0l0.18453217 -0.12132263l0.18453217 -0.063186646l0.18452835 0.063186646l0.18453217 0.12132263l2.0930367 1.7869873l2.0930367 -1.7869873" fill-rule="evenodd"/><path fill="#000000" fill-opacity="0.0" d="m39.866116 89.48427l10.343845 0" fill-rule="evenodd"/><path stroke="#19bbd5" stroke-width="1.2782152230971129" stroke-linejoin="round" stroke-linecap="round" d="m39.866116 89.48427l10.343845 0" fill-rule="evenodd"/><path fill="#000000" fill-opacity="0.0" d="m162.94243 381.55927l0 0l-0.69932556 0.052947998l-0.6970978 0.052947998l-0.69932556 0.055145264l-0.6993103 0.16104126l-0.64416504 0.16104126l-0.6441498 0.16104126l-0.64416504 0.21398926l-0.64637756 0.26913452l-0.64416504 0.26913452l-0.59121704 0.32208252l-0.59121704 0.32208252l-0.5360565 0.32208252l-1.0743408 0.8052063l-0.9684601 0.9154968l-0.91329956 0.96624756l-0.80519104 1.0743408l-0.37724304 0.59121704l-0.32208252 0.59121704l-0.32208252 0.59121704l-0.26913452 0.59121704l-0.213974 0.64416504l-0.21620178 0.64416504l-0.21398926 0.64416504l-0.16104126 0.6993103l-0.10809326 0.64416504l-0.10588074 0.6993103l-0.055160522 0.6993103l0 0.75006104l0 0l0 0.6993103l0.055160522 0.6993103l0.10588074 0.69711304l0.10809326 0.6993103l0.16104126 0.64416504l0.21398926 0.6993103l0.21620178 0.64416504l0.213974 0.59121704l0.26913452 0.64416504l0.32208252 0.59121704l0.32208252 0.59121704l0.37724304 0.53826904l0.80519104 1.0743408l0.91329956 0.96624756l0.9684601 0.91329956l1.0743408 0.8052063l0.5360565 0.37722778l0.59121704 0.32208252l0.59121704 0.32208252l0.64416504 0.26913452l0.64637756 0.21398926l0.64416504 0.21618652l0.6441498 0.21398926l0.64416504 0.16104126l0.6993103 0.10809326l0.69932556 0.10809326l0.6970978 0.052947998l0.69932556 0l0 0l0.7522583 0l0.6970978 -0.052947998l0.6993103 -0.10809326l0.64416504 -0.10809326l0.6993103 -0.16104126l0.64416504 -0.21398926l0.64416504 -0.21618652l0.64637756 -0.21398926l0.59121704 -0.26913452l0.5890045 -0.32208252l0.59121704 -0.32208252l0.59121704 -0.37722778l1.0743408 -0.8052063l0.9684601 -0.91329956l0.91329956 -0.96624756l0.80519104 -1.0743408l0.32208252 -0.53826904l0.32208252 -0.59121704l0.32208252 -0.59121704l0.26913452 -0.64416504l0.26913452 -0.59121704l0.21398926 -0.64416504l0.21618652 -0.6993103l0.10810852 -0.64416504l0.16104126 -0.6993103l0.05293274 -0.69711304l0.052947998 -0.6993103l0.055160522 -0.6993103l0 0l-0.055160522 -0.75006104l-0.052947998 -0.6993103l-0.05293274 -0.6993103l-0.16104126 -0.64416504l-0.10810852 -0.6993103l-0.21618652 -0.64416504l-0.21398926 -0.64416504l-0.26913452 -0.64416504l-0.26913452 -0.59121704l-0.32208252 -0.59121704l-0.32208252 -0.59121704l-0.32208252 -0.59121704l-0.80519104 -1.0743408l-0.91329956 -0.96624756l-0.9684601 -0.9154968l-1.0743408 -0.8052063l-0.59121704 -0.32208252l-0.59121704 -0.32208252l-0.5890045 -0.32208252l-0.59121704 -0.26913452l-0.64637756 -0.26913452l-0.64416504 -0.21398926l-0.64416504 -0.16104126l-0.6993103 -0.16104126l-0.64416504 -0.16104126l-0.6993103 -0.055145264l-0.6970978 -0.052947998l-0.7522583 -0.052947998l0 0z" fill-rule="evenodd"/><path stroke="#184769" stroke-width="2.0" stroke-linejoin="round" stroke-linecap="round" d="m162.94243 381.55927l0 0l-0.69932556 0.052947998l-0.6970978 0.052947998l-0.69932556 0.055145264l-0.6993103 0.16104126l-0.64416504 0.16104126l-0.6441498 0.16104126l-0.64416504 0.21398926l-0.64637756 0.26913452l-0.64416504 0.26913452l-0.59121704 0.32208252l-0.59121704 0.32208252l-0.5360565 0.32208252l-1.0743408 0.8052063l-0.9684601 0.9154968l-0.91329956 0.96624756l-0.80519104 1.0743408l-0.37724304 0.59121704l-0.32208252 0.59121704l-0.32208252 0.59121704l-0.26913452 0.59121704l-0.213974 0.64416504l-0.21620178 0.64416504l-0.21398926 0.64416504l-0.16104126 0.6993103l-0.10809326 0.64416504l-0.10588074 0.6993103l-0.055160522 0.6993103l0 0.75006104l0 0l0 0.6993103l0.055160522 0.6993103l0.10588074 0.69711304l0.10809326 0.6993103l0.16104126 0.64416504l0.21398926 0.6993103l0.21620178 0.64416504l0.213974 0.59121704l0.26913452 0.64416504l0.32208252 0.59121704l0.32208252 0.59121704l0.37724304 0.53826904l0.80519104 1.0743408l0.91329956 0.96624756l0.9684601 0.91329956l1.0743408 0.8052063l0.5360565 0.37722778l0.59121704 0.32208252l0.59121704 0.32208252l0.64416504 0.26913452l0.64637756 0.21398926l0.64416504 0.21618652l0.6441498 0.21398926l0.64416504 0.16104126l0.6993103 0.10809326l0.69932556 0.10809326l0.6970978 0.052947998l0.69932556 0l0 0l0.7522583 0l0.6970978 -0.052947998l0.6993103 -0.10809326l0.64416504 -0.10809326l0.6993103 -0.16104126l0.64416504 -0.21398926l0.64416504 -0.21618652l0.64637756 -0.21398926l0.59121704 -0.26913452l0.5890045 -0.32208252l0.59121704 -0.32208252l0.59121704 -0.37722778l1.0743408 -0.8052063l0.9684601 -0.91329956l0.91329956 -0.96624756l0.80519104 -1.0743408l0.32208252 -0.53826904l0.32208252 -0.59121704l0.32208252 -0.59121704l0.26913452 -0.64416504l0.26913452 -0.59121704l0.21398926 -0.64416504l0.21618652 -0.6993103l0.10810852 -0.64416504l0.16104126 -0.6993103l0.05293274 -0.69711304l0.052947998 -0.6993103l0.055160522 -0.6993103l0 0l-0.055160522 -0.75006104l-0.052947998 -0.6993103l-0.05293274 -0.6993103l-0.16104126 -0.64416504l-0.10810852 -0.6993103l-0.21618652 -0.64416504l-0.21398926 -0.64416504l-0.26913452 -0.64416504l-0.26913452 -0.59121704l-0.32208252 -0.59121704l-0.32208252 -0.59121704l-0.32208252 -0.59121704l-0.80519104 -1.0743408l-0.91329956 -0.96624756l-0.9684601 -0.9154968l-1.0743408 -0.8052063l-0.59121704 -0.32208252l-0.59121704 -0.32208252l-0.5890045 -0.32208252l-0.59121704 -0.26913452l-0.64637756 -0.26913452l-0.64416504 -0.21398926l-0.64416504 -0.16104126l-0.6993103 -0.16104126l-0.64416504 -0.16104126l-0.6993103 -0.055145264l-0.6970978 -0.052947998l-0.7522583 -0.052947998l0 0z" fill-rule="evenodd"/><path fill="#000000" fill-opacity="0.0" d="m162.94243 384.7823l0 0l-1.0743408 0.052947998l-1.0743408 0.16104126l-1.0213928 0.26913452l-0.9684601 0.37722778l-0.91329956 0.42797852l-0.85813904 0.53826904l-0.8603668 0.64416504l-0.7522583 0.6993103l-0.6993103 0.7522583l-0.5890045 0.8052063l-0.5382843 0.86035156l-0.43017578 0.96624756l-0.37501526 0.9684448l-0.26914978 1.0191956l-0.161026 1.0213928l-0.052947998 1.1272888l0 0l0.052947998 1.0765381l0.161026 1.0743408l0.26914978 1.0191956l0.37501526 0.9684448l0.43017578 0.91329956l0.5382843 0.86035156l0.5890045 0.8581543l0.6993103 0.7522583l0.7522583 0.6993103l0.8603668 0.59121704l0.85813904 0.5360718l0.91329956 0.43017578l0.9684601 0.37722778l1.0213928 0.26693726l1.0743408 0.16104126l1.0743408 0.055145264l0 0l1.1272736 -0.055145264l1.0213928 -0.16104126l1.0214081 -0.26693726l0.9662323 -0.37722778l0.96624756 -0.43017578l0.86035156 -0.5360718l0.8074188 -0.59121704l0.7500458 -0.6993103l0.6993103 -0.7522583l0.64416504 -0.8581543l0.53826904 -0.86035156l0.43019104 -0.91329956l0.37501526 -0.9684448l0.26913452 -1.0191956l0.16104126 -1.0743408l0.052947998 -1.0765381l0 0l-0.052947998 -1.1272888l-0.16104126 -1.0213928l-0.26913452 -1.0191956l-0.37501526 -0.9684448l-0.43019104 -0.96624756l-0.53826904 -0.86035156l-0.64416504 -0.8052063l-0.6993103 -0.7522583l-0.7500458 -0.6993103l-0.8074188 -0.64416504l-0.86035156 -0.53826904l-0.96624756 -0.42797852l-0.9662323 -0.37722778l-1.0214081 -0.26913452l-1.0213928 -0.16104126l-1.1272736 -0.052947998l0 0" fill-rule="evenodd"/><path stroke="#184769" stroke-width="2.0" stroke-linejoin="round" stroke-linecap="round" d="m162.94243 384.7823l0 0l-1.0743408 0.052947998l-1.0743408 0.16104126l-1.0213928 0.26913452l-0.9684601 0.37722778l-0.91329956 0.42797852l-0.85813904 0.53826904l-0.8603668 0.64416504l-0.7522583 0.6993103l-0.6993103 0.7522583l-0.5890045 0.8052063l-0.5382843 0.86035156l-0.43017578 0.96624756l-0.37501526 0.9684448l-0.26914978 1.0191956l-0.161026 1.0213928l-0.052947998 1.1272888l0 0l0.052947998 1.0765381l0.161026 1.0743408l0.26914978 1.0191956l0.37501526 0.9684448l0.43017578 0.91329956l0.5382843 0.86035156l0.5890045 0.8581543l0.6993103 0.7522583l0.7522583 0.6993103l0.8603668 0.59121704l0.85813904 0.5360718l0.91329956 0.43017578l0.9684601 0.37722778l1.0213928 0.26693726l1.0743408 0.16104126l1.0743408 0.055145264l0 0l1.1272736 -0.055145264l1.0213928 -0.16104126l1.0214081 -0.26693726l0.9662323 -0.37722778l0.96624756 -0.43017578l0.86035156 -0.5360718l0.8074188 -0.59121704l0.7500458 -0.6993103l0.6993103 -0.7522583l0.64416504 -0.8581543l0.53826904 -0.86035156l0.43019104 -0.91329956l0.37501526 -0.9684448l0.26913452 -1.0191956l0.16104126 -1.0743408l0.052947998 -1.0765381l0 0l-0.052947998 -1.1272888l-0.16104126 -1.0213928l-0.26913452 -1.0191956l-0.37501526 -0.9684448l-0.43019104 -0.96624756l-0.53826904 -0.86035156l-0.64416504 -0.8052063l-0.6993103 -0.7522583l-0.7500458 -0.6993103l-0.8074188 -0.64416504l-0.86035156 -0.53826904l-0.96624756 -0.42797852l-0.9662323 -0.37722778l-1.0214081 -0.26913452l-1.0213928 -0.16104126l-1.1272736 -0.052947998l0 0" fill-rule="evenodd"/><path fill="#000000" fill-opacity="0.0" d="m155.47278 395.47275l0 0l0.055160522 -0.8052063l0.10809326 -0.69711304l0.16104126 -0.7522583l0.266922 -0.6463623l0.32208252 -0.69711304l0.37722778 -0.59121704l0.43019104 -0.59121704l0.48310852 -0.53826904l0.5382843 -0.48312378l0.5890045 -0.43017578l0.59121704 -0.37503052l0.64637756 -0.32208252l0.6970978 -0.21618652l0.69932556 -0.21398926l0.7522583 -0.10809326l0.7522583 0" fill-rule="evenodd"/><path stroke="#184769" stroke-width="2.0" stroke-linejoin="round" stroke-linecap="round" d="m155.47278 395.47275l0 0l0.055160522 -0.8052063l0.10809326 -0.69711304l0.16104126 -0.7522583l0.266922 -0.6463623l0.32208252 -0.69711304l0.37722778 -0.59121704l0.43019104 -0.59121704l0.48310852 -0.53826904l0.5382843 -0.48312378l0.5890045 -0.43017578l0.59121704 -0.37503052l0.64637756 -0.32208252l0.6970978 -0.21618652l0.69932556 -0.21398926l0.7522583 -0.10809326l0.7522583 0" fill-rule="evenodd"/><path fill="#000000" fill-opacity="0.0" d="m171.48419 407.02576l10.961807 10.959595l0 0l0.16104126 0.10809326l0.161026 0.10809326l0.21398926 0.052947998l0.21620178 0.052947998l0.213974 -0.052947998l0.16104126 -0.052947998l0.21398926 -0.10809326l0.16325378 -0.10809326l0.80519104 -0.8052063l0 0l0.16104126 -0.16104126l0.10810852 -0.21618652l0.05293274 -0.21398926l0 -0.16104126l0 -0.21618652l-0.05293274 -0.21398926l-0.10810852 -0.16104126l-0.16104126 -0.21398926l-10.906647 -10.853699" fill-rule="evenodd"/><path stroke="#184769" stroke-width="2.0" stroke-linejoin="round" stroke-linecap="round" d="m171.48419 407.02576l10.961807 10.959595l0 0l0.16104126 0.10809326l0.161026 0.10809326l0.21398926 0.052947998l0.21620178 0.052947998l0.213974 -0.052947998l0.16104126 -0.052947998l0.21398926 -0.10809326l0.16325378 -0.10809326l0.80519104 -0.8052063l0 0l0.16104126 -0.16104126l0.10810852 -0.21618652l0.05293274 -0.21398926l0 -0.16104126l0 -0.21618652l-0.05293274 -0.21398926l-0.10810852 -0.16104126l-0.16104126 -0.21398926l-10.906647 -10.853699" fill-rule="evenodd"/><path fill="#000000" fill-opacity="0.0" d="m76.99991 450.50656l21.379784 37.275574l43.31916 0l21.379791 -37.275574l-21.379791 -37.275574l-43.31916 0z" fill-rule="evenodd"/><path stroke="#184769" stroke-width="1.0" stroke-linejoin="round" stroke-linecap="butt" d="m76.99991 450.50656l21.379784 37.275574l43.31916 0l21.379791 -37.275574l-21.379791 -37.275574l-43.31916 0z" fill-rule="evenodd"/><path fill="#3292e1" d="m77.535385 30.068241l11.173134 19.480305l22.661613 0l11.173134 -19.480305l-11.173134 -19.480305l-22.661613 0z" fill-rule="evenodd"/><path fill="#184769" d="m-30.585299 489.26773l30.818687 53.73227l62.488613 0l30.818687 -53.73227l-30.818687 -53.73227l-62.488613 0z" fill-rule="evenodd"/><path fill="#000000" fill-opacity="0.0" d="m44.170597 9.451444l9.348579 16.299206l18.972134 0l9.348579 -16.299206l-9.348579 -16.299206l-18.972134 0z" fill-rule="evenodd"/><path stroke="#00e1c6" stroke-width="2.0" stroke-linejoin="round" stroke-linecap="butt" d="m44.170597 9.451444l9.348579 16.299206l18.972134 0l9.348579 -16.299206l-9.348579 -16.299206l-18.972134 0z" fill-rule="evenodd"/><path fill="#184769" d="m120.451454 446.28018l0.4105835 0.07354736l0.37534332 0.1133728l0.4105835 0.111816406l0.3738098 0.18692017l0.33704376 0.22518921l0.3370514 0.22369385l0.33704376 0.30026245l0.2987442 0.33551025l0.22520447 0.33706665l0.22367859 0.33703613l0.1869049 0.3738098l0.11336517 0.41210938l0.111839294 0.3738098l0.07507324 0.41210938l0 0.4105835l0 0.4121399l-0.07507324 0.41210938l-0.111839294 0.3738098l-0.11336517 0.41210938l-0.1869049 0.3738098l-0.22367859 0.33703613l-0.22520447 0.33551025l-0.2987442 0.33706665l-0.33704376 0.30026245l-0.3370514 0.22366333l-0.33704376 0.22521973l-0.3738098 0.18692017l-0.4105835 0.111816406l-0.37534332 0.111846924l-0.4105835 0.07507324l-0.8242264 0l-0.4105835 -0.07507324l-0.3738098 -0.111846924l-0.412117 -0.111816406l-0.3738098 -0.18692017l-0.33704376 -0.22521973l-0.33704376 -0.22366333l-0.3370514 -0.30026245l-0.2987442 -0.33706665l-0.22520447 -0.33551025l-0.22367096 -0.33703613l-0.18691254 -0.3738098l-0.11336517 -0.41210938l-0.111839294 -0.3738098l-0.07506561 -0.41210938l0 -0.4121399l0 -0.4105835l0.07506561 -0.41210938l0.111839294 -0.3738098l0.11336517 -0.41210938l0.18691254 -0.3738098l0.22367096 -0.33703613l0.22520447 -0.33706665l0.2987442 -0.33551025l0.3370514 -0.30026245l0.33704376 -0.22369385l0.33704376 -0.22518921l0.3738098 -0.18692017l0.412117 -0.111816406l0.3738098 -0.1133728l0.4105835 -0.07354736zm-1.3098755 -8.793793l-0.26197815 0.03829956l-0.22520447 0.07354736l-0.1869049 0.113342285l-0.22367859 0.1486206l-0.15013885 0.15014648l-0.15013885 0.22518921l-0.073532104 0.22369385l-0.07507324 0.22518921l-0.3002777 2.6932983l-0.52394867 0.15014648l-0.56072235 0.22366333l-0.52394867 0.22521973l-0.52394867 0.2619629l-2.09581 -1.6469116l-0.22367096 -0.1486206l-0.22520447 -0.07507324l-0.22367859 -0.075042725l-0.22520447 0l-0.26197815 0.036743164l-0.22367859 0.07507324l-0.22520447 0.111846924l-0.1869049 0.15014648l-1.2715759 1.2731018l-0.15013885 0.18688965l-0.111839294 0.22369385l-0.07506561 0.22518921l-0.03677368 0.2619934l0 0.22366333l0.073539734 0.22521973l0.07506561 0.22366333l0.15013885 0.22521973l1.6469269 2.0957947l-0.26197815 0.5224304l-0.22520447 0.5239563l-0.22367859 0.56222534l-0.15013885 0.5239563l-2.6948242 0.2987671l-0.22367096 0.075042725l-0.2252121 0.07507324l-0.22367096 0.1486206l-0.15013885 0.15014648l-0.15013885 0.22518921l-0.111839294 0.18692017l-0.07506561 0.22366333l-0.03677368 0.2619629l0 1.7970886l0.03677368 0.2619629l0.07506561 0.22366333l0.111839294 0.18692017l0.15013885 0.22518921l0.15013885 0.1486206l0.22367096 0.15014648l0.2252121 0.07507324l0.22367096 0.075042725l2.6948242 0.2987671l0.15013885 0.5239563l0.22367859 0.56069946l0.22520447 0.5239563l0.26197815 0.5239563l-1.6469269 2.0957947l-0.15013885 0.22521973l-0.07506561 0.22366333l-0.073539734 0.22521973l0 0.22366333l0.03677368 0.2619934l0.07506561 0.22518921l0.111839294 0.22369385l0.15013885 0.18688965l1.2715759 1.2731018l0.1869049 0.1486206l0.22520447 0.1133728l0.22367859 0.073516846l0.26197815 0.03829956l0.22520447 0l0.22367859 -0.075042725l0.22520447 -0.07507324l0.22367096 -0.111846924l2.09581 -1.6836853l0.52394867 0.2619629l0.52394867 0.22369385l0.56072235 0.22518921l0.52394867 0.15014648l0.3002777 2.6932983l0.07507324 0.22518921l0.073532104 0.22369385l0.15013885 0.22518921l0.15013885 0.1486206l0.22367859 0.15014648l0.1869049 0.111816406l0.22520447 0.07507324l0.26197815 0.03829956l1.7955246 0l0.26197815 -0.03829956l0.22520447 -0.07507324l0.18691254 -0.111816406l0.22367096 -0.15014648l0.15013885 -0.1486206l0.15013885 -0.22518921l0.07506561 -0.22369385l0.073539734 -0.22518921l0.3002777 -2.6932983l0.52394867 -0.15014648l0.56072235 -0.22518921l0.52394867 -0.22369385l0.52394867 -0.2619629l2.09581 1.6836853l0.22367096 0.111846924l0.2252121 0.07507324l0.22367096 0.075042725l0.22520447 0l0.26197815 -0.03829956l0.22367096 -0.073516846l0.22521973 -0.1133728l0.1869049 -0.1486206l1.2715759 -1.2731018l0.15013123 -0.18688965l0.111846924 -0.22369385l0.07505798 -0.22518921l0.03829956 -0.2619934l0 -0.22366333l-0.07505798 -0.22521973l-0.07507324 -0.22366333l-0.111831665 -0.22521973l-1.6837006 -2.0957947l0.26045227 -0.5239563l0.22520447 -0.5239563l0.22520447 -0.56069946l0.14860535 -0.5239563l2.6948242 -0.2987671l0.22367859 -0.075042725l0.22520447 -0.07507324l0.22367859 -0.15014648l0.15013123 -0.1486206l0.15014648 -0.22518921l0.111831665 -0.18692017l0.07507324 -0.22366333l0.036758423 -0.2619629l0 -1.7970886l-0.036758423 -0.2619629l-0.07507324 -0.22366333l-0.111831665 -0.18692017l-0.15014648 -0.22518921l-0.15013123 -0.15014648l-0.22367859 -0.1486206l-0.22520447 -0.07507324l-0.22367859 -0.075042725l-2.6948242 -0.2987671l-0.14860535 -0.5239563l-0.22520447 -0.56222534l-0.22520447 -0.5239563l-0.26045227 -0.5224304l1.6837006 -2.0957947l0.111831665 -0.22521973l0.07507324 -0.22366333l0.07505798 -0.22521973l0 -0.22366333l-0.03829956 -0.2619934l-0.07505798 -0.22518921l-0.111846924 -0.22369385l-0.15013123 -0.18688965l-1.2715759 -1.2731018l-0.1869049 -0.15014648l-0.22521973 -0.111846924l-0.22367096 -0.07507324l-0.26197815 -0.036743164l-0.22520447 0l-0.22367096 0.075042725l-0.2252121 0.07507324l-0.22367096 0.1486206l-2.09581 1.6469116l-0.52394867 -0.2619629l-0.52394867 -0.22521973l-0.56072235 -0.22366333l-0.52394867 -0.15014648l-0.3002777 -2.6932983l-0.073539734 -0.22518921l-0.07506561 -0.22369385l-0.15013885 -0.22518921l-0.15013885 -0.15014648l-0.22367096 -0.1486206l-0.18691254 -0.113342285l-0.22520447 -0.07354736l-0.26197815 -0.03829956z" fill-rule="evenodd"/><path fill="#184769" d="m49.41053 152.52432l-0.51955414 0.07595825l-0.5195503 0.07292175l-0.51955414 0.14888l-0.51955414 0.14888l-0.5195503 0.22180176l-0.4435959 0.29774475l-0.37371445 0.2947235l-0.37067413 0.37371826l-0.37067413 0.3706665l-0.2977562 0.44360352l-0.29471588 0.44662476l-0.22179794 0.44360352l-0.22483444 0.5195465l-0.07292175 0.5195465l-0.07595825 0.51956177l-0.07291794 0.59550476l0.07291794 0.81427l0.22483444 0.8173065l0.2947197 0.74134827l0.37067413 0.6684418l-9.6466675 11.354202l1.1150627 0.81427l1.0391083 0.9661865l9.6466675 -11.281296l0.5195503 0.22483826l0.5924721 0.14888l0.5924721 0.07292175l0.5955124 0.07292175l0.5924721 -0.07292175l0.51955414 -0.07292175l0.5195503 -0.07595825l0.51955414 -0.22180176l0.4466324 -0.2217865l0.4435959 -0.29776l0.4466324 -0.29776l0.37067413 -0.3706665l0.37067795 -0.37068176l0.29775238 -0.3706665l0.2947197 -0.51956177l0.22483444 -0.44662476l0.14583969 -0.51956177l0.14887619 -0.5195465l0.07595825 -0.51651l0.07292175 -0.51956177l-0.07292175 -0.59550476l-0.07595825 -0.51956177l-0.14887619 -0.5195465l-0.14583969 -0.5195465l-0.22483444 -0.44360352l-0.2947197 -0.44662476l-0.29775238 -0.44360352l-0.37067795 -0.3706665l-0.37067413 -0.37371826l-0.4466324 -0.2947235l-0.4435959 -0.29774475l-0.4466324 -0.22180176l-0.51955414 -0.14888l-0.5195503 -0.14888l-0.51955414 -0.07292175l-0.5924721 -0.07595825z" fill-rule="evenodd"/><path fill="#184769" d="m10.377229 155.71457l-0.5195532 0.07595825l-0.51955223 0.14888l-0.44359493 0.2217865l-0.5195532 0.22180176l-0.44663286 0.29776l-0.3706751 0.29774475l-0.3706751 0.37068176l-0.3706751 0.3706665l-0.29775524 0.44360352l-0.2947173 0.44662476l-0.2248354 0.44360352l-0.14583969 0.5195465l-0.14887762 0.59552l-0.075957775 0.5195465l0 0.51956177l0 0.59246826l0.075957775 0.5195465l0.14887762 0.51956177l0.22179747 0.44662476l0.22179747 0.51956177l0.29775524 0.3706665l0.2947173 0.44360352l0.3737135 0.3706665l0.3706751 0.37068176l0.44359446 0.29774475l0.44663334 0.29776l0.44359493 0.22180176l0.51955223 0.14888l0.59551144 0.14886475l0.7413502 0.07292175l0.8173075 0l0.7413502 -0.14886475l0.7413502 -0.22180176l5.860921 7.568451l1.0391045 -0.8902283l1.1879845 -0.81427l-5.860921 -7.644409l0.3706751 -0.51956177l0.2947178 -0.5195465l0.22483444 -0.59246826l0.1488781 -0.6684418l0.072919846 -0.5195465l0 -0.59550476l0 -0.51652527l-0.1488781 -0.5195465l-0.1488781 -0.5195465l-0.14887619 -0.44664l-0.22179794 -0.5195465l-0.29471684 -0.44360352l-0.29775524 -0.373703l-0.3706751 -0.37068176l-0.3706751 -0.37068176l-0.44663334 -0.29470825l-0.44359493 -0.29776l-0.5195532 -0.22180176l-0.51955223 -0.14886475l-0.5195532 -0.14888l-0.51955223 -0.07595825z" fill-rule="evenodd"/><path fill="#184769" d="m15.499837 186.80873l-10.983528 4.5270996l-0.3706751 -0.37371826l-0.3706751 -0.3706665l-0.3706751 -0.37068176l-0.51955295 -0.29774475l-0.4466331 -0.22180176l-0.5195527 -0.22180176l-0.5195528 -0.14888l-0.5195527 -0.07292175l-0.5195528 -0.07595825l-0.51955277 0.07595825l-0.5195528 0l-0.5195527 0.14888l-0.5195528 0.1458435l-0.4435947 0.22483826l-0.4466331 0.22180176l-0.44359493 0.29774475l-0.4466331 0.37068176l-0.37067485 0.3706665l-0.3706751 0.37068176l-0.29775572 0.5195465l-0.22179699 0.44360352l-0.22179747 0.5195465l-0.14887762 0.51956177l-0.072919846 0.5195465l-0.07595825 0.5195465l0 0.51956177l0.07595825 0.5195465l0.14583921 0.51956177l0.14887762 0.5195465l0.22179747 0.44664l0.22483587 0.5195465l0.29471684 0.37068176l0.29775572 0.44358826l0.44663286 0.37068176l0.3706751 0.373703l0.51955295 0.2947235l0.4435947 0.22180176l0.5195528 0.224823l0.5195527 0.14888l0.5195528 0.07292175l0.51955277 0.07292175l0.51955277 0l0.5195528 -0.07292175l0.5195527 -0.14888l0.5195527 -0.14888l0.4466331 -0.14886475l0.44359493 -0.2947235l0.4466331 -0.29776l0.4435947 -0.29774475l0.37067485 -0.37068176l0.3706751 -0.44358826l0.29775572 -0.44664l0.3706751 -0.8902283l0.22179747 -0.8173065l0.14887762 -0.8902283l-0.072919846 -0.8902283l11.056448 -4.524063l-0.6684303 -1.2639313l-0.44359493 -1.3338318z" fill-rule="evenodd"/><path fill="#184769" d="m26.036732 196.00877l-0.2977562 8.683517l-0.5924721 0.14888l-0.5955105 0.29470825l-0.5924721 0.29776l-0.51955414 0.37068176l-0.4466324 0.3706665l-0.2947178 0.44664l-0.37371254 0.44358826l-0.22179794 0.44664l-0.22179604 0.44358826l-0.1488781 0.5195465l-0.1488781 0.51956177l-0.072919846 0.5195465l0 0.51956177l0 0.5195465l0.072919846 0.5195465l0.1488781 0.51956177l0.1488781 0.44662476l0.22179604 0.51956177l0.2977562 0.44358826l0.37067413 0.44664l0.37067604 0.44358826l0.37067413 0.37068176l0.4466343 0.29774475l0.44359398 0.22180176l0.51955223 0.22180176l0.4466343 0.22483826l0.51955223 0.07292175l0.51955223 0.07595825l0.51955414 0.072906494l0.51955223 -0.072906494l0.51955223 -0.07595825l0.51955414 -0.14888l0.51955223 -0.14888l0.44359398 -0.22180176l0.51955414 -0.29470825l0.4466324 -0.29776l0.37067413 -0.37068176l0.37067604 -0.44662476l0.2947178 -0.44360352l0.2977543 -0.44662476l0.22179794 -0.44360352l0.1488781 -0.5195465l0.14887619 -0.5195465l0.07595825 -0.51956177l0 -0.5195465l0 -0.51956177l-0.07595825 -0.5195465l-0.14887619 -0.5195465l-0.22179794 -0.51956177l-0.22179794 -0.44662476l-0.22483444 -0.44360352l-0.37067604 -0.44662476l-0.51955223 -0.5924835l-0.6653919 -0.5195465l-0.6684303 -0.37068176l-0.66843224 -0.2217865l0.2977562 -8.756439l0 0l-0.8902283 0.07292175l-0.9661846 -0.07292175l-0.9631481 -0.07595825z" fill-rule="evenodd"/><path fill="#184769" d="m54.60302 181.09366l-0.5165138 0.07595825l-0.51955414 0.14582825l-0.51955414 0.14888l-0.5955086 0.22483826l-0.51955414 0.2947235l-0.44359207 0.29774475l-0.4466362 0.37068176l-0.37067413 0.44664l-0.2977562 0.44358826l-0.29471588 0.44662476l-0.22483444 0.51956177l-8.902279 -1.1150665l-0.07595825 1.4097748l-0.22179794 1.3368683l8.829357 1.11203l0.07595825 0.59550476l0.22179794 0.59246826l0.22179794 0.44664l0.22483444 0.5195465l0.2947197 0.44360352l0.37067413 0.3706665l0.37067413 0.37068176l0.37371445 0.3706665l0.4435959 0.29776l0.4466324 0.22180176l0.5195503 0.22483826l0.51955414 0.14582825l0.51955414 0.07595825l0.5165138 0.07292175l0.51955414 0l0.5195503 -0.07292175l0.51955414 -0.07595825l0.5195503 -0.2217865l0.51955414 -0.14888l0.51955414 -0.2947235l0.4466324 -0.29774475l0.37067413 -0.37068176l0.37067413 -0.37068176l0.37067795 -0.3706665l0.22179794 -0.44664l0.29775238 -0.44358826l0.14888 -0.51956177l0.14887619 -0.5195465l0.14887619 -0.44662476l0.07292175 -0.5924835l0 -0.5195465l-0.07292175 -0.51956177l-0.07595444 -0.5195465l-0.22179794 -0.5195465l-0.22179794 -0.51956177l-0.22483444 -0.5195465l-0.2947197 -0.44664l-0.37067413 -0.3706665l-0.37371445 -0.37068176l-0.37067413 -0.3706665l-0.4435959 -0.22180176l-0.4466324 -0.29776l-0.51955414 -0.14888l-0.5195503 -0.14888l-0.51955414 -0.14582825l-0.5195503 0l-0.51955414 -0.07595825z" fill-rule="evenodd"/><path fill="#184769" d="m27.966064 171.59587l-1.1879826 0.072906494l-1.1150646 0.14888l-1.1120243 0.29776l-1.0391064 0.37068176l-1.0391045 0.5195465l-0.9631481 0.59246826l-0.8173084 0.6684418l-0.8173084 0.74134827l-0.7413502 0.8173065l-0.6684303 0.8902283l-0.5924721 0.8902283l-0.51955223 1.0391083l-0.37067604 1.039093l-0.2977543 1.11203l-0.1488781 1.1879883l-0.072919846 1.1150665l0.072919846 1.1849365l0.1488781 1.1879883l0.2977543 1.1120148l0.37067604 1.0391083l0.51955223 0.9661865l0.5924721 0.96315l0.6684303 0.8902283l0.7413502 0.8173065l0.8173084 0.74134827l0.8173084 0.6684418l0.9631481 0.59550476l1.0391045 0.44358826l1.0391064 0.44664l1.1120243 0.22180176l1.1150646 0.2217865l1.1879826 0.07595825l1.1849461 -0.07595825l1.1879826 -0.2217865l1.0391064 -0.22180176l1.1120243 -0.44664l0.9661865 -0.44358826l0.9631462 -0.59550476l0.8902283 -0.6684418l0.81731033 -0.74134827l0.74134827 -0.8173065l0.6684303 -0.8902283l0.5955124 -0.96315l0.44359207 -0.9661865l0.4466362 -1.0391083l0.22179413 -1.1120148l0.22179794 -1.1879883l0 -1.1849365l0 -1.1150665l-0.22179794 -1.1879883l-0.22179413 -1.11203l-0.4466362 -1.039093l-0.44359207 -1.0391083l-0.5955124 -0.8902283l-0.6684303 -0.8902283l-0.74134827 -0.8173065l-0.81731033 -0.74134827l-0.8902283 -0.6684418l-0.9631462 -0.59246826l-0.9661865 -0.5195465l-1.1120243 -0.37068176l-1.0391064 -0.29776l-1.1879826 -0.14888l-1.1849461 -0.072906494z" fill-rule="evenodd"/><path fill="#3292e1" d="m30.119286 465.14124l-1.3572998 0.08175659l-1.3605709 0.16027832l-1.2755356 0.1602478l-1.2788067 0.23876953l-1.2788048 0.31723022l-1.1970425 0.4022827l-1.2003098 0.39901733l-1.1970425 0.39901733l-1.1185455 0.55926514l-1.1185474 0.47750854l-1.1185455 0.64105225l-1.0367813 0.63775635l-0.95828724 0.63778687l-0.9582863 0.71951294l-0.95828724 0.71954346l-0.8797922 0.79803467l-0.79802704 0.80130005l-0.80129814 0.87649536l-0.71626186 0.8798218l-0.71953297 0.87979126l-0.64103794 0.9582825l-0.5560031 0.9582825l-0.55927324 1.0367737l-0.4807787 1.0400696l-0.39901352 1.0367737l-0.39901352 1.0400391l-0.23875427 1.1185608l-0.24202442 1.1185303l-0.16025972 1.1152954l-0.1569891 1.1185303l0 1.2003174l0 1.197052l0.1569891 1.2787781l0.16025972 1.197052l0.32051897 1.1185608l0.32051897 1.1970215l0.399014 1.1185608l0.47750807 1.1185303l0.55927324 1.1185608l0.55927324 1.0400391l0.64103794 0.9582825l0.79802704 1.0368042l0.71953297 0.9582825l0.87652206 0.87979126l0.8797922 0.87979126l0.95828724 0.8765259l0.9582863 0.80130005l-0.6377678 1.1970215l-0.719532 1.197052l-0.798028 1.2788086l-1.0400515 1.197052l-1.1185465 1.2002869l-0.6377678 0.55929565l-0.71953297 0.47750854l-0.7195325 0.4807434l-0.71953297 0.47753906l-0.79802704 0.3204956l-0.87652206 0.39904785l0.399014 0l1.1970406 0.16021729l2.8748608 0l1.1185465 -0.07849121l1.2788057 -0.2420044l1.2788057 -0.23876953l1.3573008 -0.39898682l1.3573008 -0.48080444l1.4390659 -0.63775635l1.3572998 -0.79803467l1.3572998 -0.87979126l1.2788067 -1.1970215l1.1970406 0.39901733l1.2003117 0.39898682l1.2755356 0.23876953l1.2788067 0.23873901l1.2788048 0.24203491l1.2788067 0.1602478l1.3572998 0.07852173l2.7145996 0l1.3573036 -0.07852173l1.360569 -0.1602478l1.2755356 -0.24203491l1.2788048 -0.23873901l1.2788086 -0.31726074l1.1970406 -0.3204956l1.2003098 -0.39901733l1.1970406 -0.48077393l1.1185493 -0.47750854l1.1185455 -0.55929565l1.1185455 -0.55926514l1.0367813 -0.64105225l0.9582863 -0.63775635l0.9582863 -0.71954346l0.9582901 -0.79800415l0.87979126 -0.71954346l0.79802704 -0.87979126l0.80129623 -0.79803467l0.7162628 -0.8765259l0.719532 -0.96154785l0.6410408 -0.9582825l0.55927277 -0.9582825l0.5560036 -0.9582825l0.48077774 -1.0368042l0.39901352 -1.0400391l0.39901352 -1.1185608l0.24202347 -1.0367737l0.23875427 -1.1185303l0.16025925 -1.1185608l0.15699005 -1.197052l0 -1.1185303l0 -1.2003174l-0.15699005 -1.1185303l-0.16025925 -1.1152954l-0.23875427 -1.1185303l-0.24202347 -1.1185608l-0.39901352 -1.0400391l-0.39901352 -1.0367737l-0.48077774 -1.0400696l-0.5560036 -1.0367737l-0.55927277 -0.9582825l-0.6410408 -0.9582825l-0.719532 -0.87979126l-0.7162628 -0.8798218l-0.80129623 -0.87649536l-0.79802704 -0.80130005l-0.87979126 -0.79803467l-0.9582901 -0.71954346l-0.9582863 -0.71951294l-0.9582863 -0.63778687l-1.0367813 -0.63775635l-1.1185455 -0.64105225l-1.1185455 -0.47750854l-1.1185493 -0.55926514l-1.1970406 -0.39901733l-1.2003098 -0.39901733l-1.1970406 -0.4022827l-1.2788086 -0.31723022l-1.2788048 -0.23876953l-1.2755356 -0.1602478l-1.360569 -0.16027832l-1.3573036 -0.08175659z" fill-rule="evenodd"/><path fill="#000000" fill-opacity="0.0" d="m288.0 182.23097l657.0079 0l0 121.76378l-657.0079 0z" fill-rule="evenodd"/><path fill="#19bbd5" d="m300.92188 283.07474q-1.71875 0 -1.71875 -1.71875q0 -1.71875 1.71875 -1.71875l3.359375 0q0.015625 0.28125 -0.265625 0.28125l0 -29.281235q0.28125 0 0.265625 0.28125l-3.359375 0q-1.71875 0 -1.71875 -1.71875q0 -1.71875 1.71875 -1.71875l13.453125 0q7.671875 0 12.375 5.109375q4.703125 5.0937347 4.703125 12.687485q0 7.59375 -4.703125 12.703125q-4.703125 5.09375 -12.375 5.09375l-13.453125 0zm6.53125 -3.15625q-0.28125 0 -0.28125 -0.28125l7.203125 0q6.078125 0 9.859375 -4.0625q3.78125 -4.0625 3.78125 -10.296875q0 -6.234375 -3.78125 -10.29686q-3.78125 -4.0625 -9.859375 -4.0625l-7.203125 0q0 -0.28125 0.28125 -0.28125l0 29.281235zm30.763306 -0.125q-3.53125 -3.765625 -3.53125 -9.71875q0 -5.953125 3.53125 -9.71875q3.546875 -3.765625 9.21875 -3.765625q5.671875 0 9.21875 3.765625q3.546875 3.765625 3.546875 9.71875q0 5.953125 -3.546875 9.71875q-3.546875 3.765625 -9.21875 3.765625q-5.671875 0 -9.21875 -3.765625zm9.21875 -19.765625q-4.21875 0 -6.765625 2.734375q-2.546875 2.71875 -2.546875 7.34375q0 4.625 2.515625 7.328125q2.53125 2.6875 6.796875 2.6875q4.265625 0 6.796875 -2.6875q2.53125 -2.703125 2.53125 -7.328125q0 -4.625 -2.5625 -7.34375q-2.546875 -2.734375 -6.765625 -2.734375zm16.330078 19.609375l3.359375 0q0 0.28125 -0.28125 0.28125l0 -19.6875q0.28125 0 0.28125 0.28125l-3.359375 0q-1.71875 0 -1.71875 -1.71875q0 -1.71875 1.71875 -1.71875l4.796875 0q1.71875 0 1.71875 1.71875l0 2.6875q-0.546875 0.171875 -0.96875 -0.203125q4.03125 -4.6875 8.125 -4.6875q3.125 0 5.453125 1.796875q2.34375 1.78125 2.546875 3.28125q-0.125 -0.21875 1.3125 -1.703125q3.28125 -3.375 7.15625 -3.375q3.890625 0 6.453125 2.828125q2.5625 2.828125 2.5625 7.78125l0 12.71875q-0.28125 0 -0.28125 -0.28125l3.359375 0q1.71875 0 1.71875 1.71875q0 1.71875 -1.71875 1.71875l-9.125 0q-1.71875 0 -1.71875 -1.71875q0 -1.71875 1.71875 -1.71875l2.890625 0q0 0.28125 -0.28125 0.28125l0 -12.71875q0 -3.546875 -1.640625 -5.359375q-1.640625 -1.8125 -4.125 -1.8125q-2.484375 0 -5.15625 3.015625q-1.265625 1.453125 -2.046875 2.921875q0.078125 0.796875 0.078125 1.234375l0 12.71875q-0.28125 0 -0.265625 -0.28125l2.875 0q1.71875 0 1.71875 1.71875q0 1.71875 -1.71875 1.71875l-8.640625 0q-1.71875 0 -1.71875 -1.71875q0 -1.71875 1.71875 -1.71875l2.875 0q0 0.28125 -0.28125 0.28125l0 -12.71875q0 -3.546875 -1.640625 -5.359375q-1.625 -1.8125 -4.09375 -1.8125q-2.453125 0 -5.046875 2.921875q-1.171875 1.328125 -2.09375 2.84375l0 14.125q-0.28125 0 -0.28125 -0.28125l2.875 0q1.71875 0 1.71875 1.71875q0 1.71875 -1.71875 1.71875l-9.109375 0q-1.71875 0 -1.71875 -1.71875q0 -1.71875 1.71875 -1.71875zm62.782104 -9.328125q0.28125 0 0.28125 0.28125l-7.921875 0q-3.8125 0 -5.484375 1.375q-1.671875 1.359375 -1.671875 3.421875q0 2.0625 1.53125 3.40625q1.546875 1.328125 4.90625 1.328125q4.15625 0 7.421875 -4.3125q0.578125 -0.765625 0.9375 -1.421875l0 -4.078125zm-6.484375 -13.71875q4.421875 0 7.171875 2.5625q2.75 2.5625 2.75 6.359375l0 14.40625q-0.28125 0 -0.265625 -0.28125l3.359375 0q1.71875 0 1.71875 1.71875q0 1.71875 -1.71875 1.71875l-4.8125 0q-1.71875 0 -1.71875 -1.71875l0 -2.6875q0 -0.0625 0.3125 -0.078125q0.3125 -0.015625 0.65625 0.265625q-1.359375 1.734375 -3.859375 3.21875q-2.5 1.484375 -5.265625 1.484375q-4.84375 0 -7.46875 -2.265625q-2.609375 -2.265625 -2.609375 -5.90625q0 -3.640625 2.96875 -5.9375q2.96875 -2.296875 7.625 -2.296875l7.921875 0q0 0.28125 -0.28125 0.28125l0 -1.921875q0 -2.328125 -1.796875 -3.90625q-1.796875 -1.578125 -4.578125 -1.578125q-2.78125 0 -4.59375 0.78125q-1.8125 0.78125 -2.984375 1.6875q-1.15625 0.90625 -2.15625 -0.5q-0.984375 -1.421875 0.328125 -2.359375q3.703125 -3.046875 9.296875 -3.046875zm17.237305 26.484375q-1.71875 0 -1.71875 -1.71875q0 -1.71875 1.71875 -1.71875l3.359375 0q0 0.28125 -0.28125 0.28125l0 -19.6875q0.28125 0 0.28125 0.28125l-3.359375 0q-1.71875 0 -1.71875 -1.71875q0 -1.71875 1.71875 -1.71875l4.796875 0q1.71875 0 1.71875 1.71875l0 21.125q-0.28125 0 -0.28125 -0.28125l3.359375 0q1.71875 0 1.71875 1.71875q0 1.71875 -1.71875 1.71875l-9.59375 0zm2.46875 -28.67186q-0.828125 -0.84375 -0.828125 -2.078125q0 -1.234375 0.828125 -2.078125q0.84375 -0.859375 2.078125 -0.859375q1.25 0 2.078125 0.859375q0.84375 0.84375 0.84375 2.078125q0 1.234375 -0.84375 2.078125q-0.828125 0.828125 -2.078125 0.828125q-1.234375 0 -2.078125 -0.828125zm11.212402 25.23436l3.359375 0q0 0.28125 -0.28125 0.28125l0 -19.6875q0.28125 0 0.28125 0.28125l-3.359375 0q-1.71875 0 -1.71875 -1.71875q0 -1.71875 1.71875 -1.71875l4.796875 0q1.71875 0 1.71875 1.71875l0 2.6875q0 0.0625 -0.3125 0.078125q-0.296875 0.015625 -0.65625 -0.28125q4.171875 -4.6875 9.171875 -4.6875q5.0 0 7.75 2.78125q2.765625 2.765625 2.765625 7.828125l0 12.71875q-0.28125 0 -0.28125 -0.28125l3.359375 0q1.71875 0 1.71875 1.71875q0 1.71875 -1.71875 1.71875l-9.125 0q-1.71875 0 -1.71875 -1.71875q0 -1.71875 1.71875 -1.71875l2.890625 0q0 0.28125 -0.28125 0.28125l0 -12.71875q0 -3.65625 -1.8125 -5.40625q-1.8125 -1.765625 -5.046875 -1.765625q-3.234375 0 -6.21875 2.96875q-1.34375 1.359375 -2.203125 2.796875l0 14.125q-0.28125 0 -0.28125 -0.28125l2.875 0q1.71875 0 1.71875 1.71875q0 1.71875 -1.71875 1.71875l-9.109375 0q-1.71875 0 -1.71875 -1.71875q0 -1.71875 1.71875 -1.71875zm43.532806 0.484375q3.875 0 5.75 -1.234375q1.890625 -1.25 1.890625 -3.046875q0 -2.375 -3.78125 -3.265625q-2.078125 -0.453125 -5.015625 -0.890625q-2.984375 -0.4375 -4.390625 -0.828125q-3.109375 -0.828125 -4.8125 -2.4375q-1.6875 -1.625 -1.6875 -4.609375q0 -2.984375 2.90625 -5.09375q2.90625 -2.125 7.890625 -2.125q4.984375 0 8.875 3.921875q-0.375 0.359375 -0.671875 0.34375q-0.28125 -0.015625 -0.28125 -0.140625l0 -1.921875q0 -1.71875 1.71875 -1.71875q1.734375 0 1.734375 1.71875l0 7.6875q0 1.71875 -1.734375 1.71875q-1.71875 0 -1.71875 -1.71875l0 -2.078125q-1.71875 -2.265625 -4.703125 -3.6875q-1.46875 -0.6875 -3.359375 -0.6875q-3.640625 0 -5.4375 1.1875q-1.78125 1.1875 -1.78125 2.8125q0 1.609375 1.53125 2.59375q1.53125 0.96875 5.125 1.515625q1.625 0.28125 3.3125 0.53125q1.6875 0.234375 3.078125 0.515625q3.015625 0.6875 4.828125 2.21875q1.8125 1.515625 1.8125 4.671875q0 3.140625 -2.859375 5.3125q-2.84375 2.171875 -8.21875 2.171875q-4.25 0 -7.859375 -2.484375q-1.0625 -0.734375 -1.203125 -1.265625q-0.140625 -0.546875 0.15625 -0.53125q0.296875 0.015625 0.296875 0.15625l0 1.921875q0 1.71875 -1.71875 1.71875q-1.71875 0 -1.71875 -1.71875l0 -7.6875q0 -1.71875 1.71875 -1.71875q1.71875 0 1.71875 1.71875l0 2.09375q1.625 2.28125 4.796875 3.65625q1.578125 0.703125 3.8125 0.703125zm28.750824 -10.53125l0 -4.796875q0 -6.265625 1.828125 -11.656235q1.84375 -5.40625 4.6875 -8.796875q0.640625 -0.65625 1.515625 -0.65625l0.765625 0.25q0.84375 0.734375 0.84375 1.390625q0 0.65625 -0.4375 1.125q-2.453125 2.953125 -4.109375 7.6875q-1.640625 4.7343597 -1.640625 10.656235l0 4.796875q0 5.921875 1.640625 10.703125q1.65625 4.78125 4.09375 7.640625q0.453125 0.4375 0.453125 1.15625q0 0.734375 -0.703125 1.1875q-0.515625 0.421875 -1.3125 0.421875l-1.015625 -0.53125q-2.9375 -3.515625 -4.78125 -8.90625q-1.828125 -5.40625 -1.828125 -11.671875zm13.769287 13.484375q-1.71875 0 -1.71875 -1.71875q0 -1.71875 1.71875 -1.71875l3.359375 0q0.015625 0.28125 -0.265625 0.28125l0 -29.281235q0.28125 0 0.265625 0.28125l-3.359375 0q-1.71875 0 -1.71875 -1.71875q0 -1.71875 1.71875 -1.71875l13.453125 0q7.671875 0 12.375 5.109375q4.703125 5.0937347 4.703125 12.687485q0 7.59375 -4.703125 12.703125q-4.703125 5.09375 -12.375 5.09375l-13.453125 0zm6.53125 -3.15625q-0.28125 0 -0.28125 -0.28125l7.203125 0q6.078125 0 9.859375 -4.0625q3.78125 -4.0625 3.78125 -10.296875q0 -6.234375 -3.78125 -10.29686q-3.78125 -4.0625 -9.859375 -4.0625l-7.203125 0q0 -0.28125 0.28125 -0.28125l0 29.281235zm30.763306 -0.125q-3.53125 -3.765625 -3.53125 -9.71875q0 -5.953125 3.53125 -9.71875q3.546875 -3.765625 9.21875 -3.765625q5.671875 0 9.21875 3.765625q3.546875 3.765625 3.546875 9.71875q0 5.953125 -3.546875 9.71875q-3.546875 3.765625 -9.21875 3.765625q-5.671875 0 -9.21875 -3.765625zm9.21875 -19.765625q-4.21875 0 -6.765625 2.734375q-2.546875 2.71875 -2.546875 7.34375q0 4.625 2.515625 7.328125q2.53125 2.6875 6.796875 2.6875q4.265625 0 6.796875 -2.6875q2.53125 -2.703125 2.53125 -7.328125q0 -4.625 -2.5625 -7.34375q-2.546875 -2.734375 -6.765625 -2.734375zm16.330078 19.609375l3.359375 0q0 0.28125 -0.28125 0.28125l0 -19.6875q0.28125 0 0.28125 0.28125l-3.359375 0q-1.71875 0 -1.71875 -1.71875q0 -1.71875 1.71875 -1.71875l4.796875 0q1.71875 0 1.71875 1.71875l0 2.6875q-0.546875 0.171875 -0.96875 -0.203125q4.03125 -4.6875 8.125 -4.6875q3.125 0 5.453125 1.796875q2.34375 1.78125 2.546875 3.28125q-0.125 -0.21875 1.3125 -1.703125q3.28125 -3.375 7.15625 -3.375q3.890625 0 6.453125 2.828125q2.5625 2.828125 2.5625 7.78125l0 12.71875q-0.28125 0 -0.28125 -0.28125l3.359375 0q1.71875 0 1.71875 1.71875q0 1.71875 -1.71875 1.71875l-9.125 0q-1.71875 0 -1.71875 -1.71875q0 -1.71875 1.71875 -1.71875l2.890625 0q0 0.28125 -0.28125 0.28125l0 -12.71875q0 -3.546875 -1.640625 -5.359375q-1.640625 -1.8125 -4.125 -1.8125q-2.484375 0 -5.15625 3.015625q-1.265625 1.453125 -2.046875 2.921875q0.078125 0.796875 0.078125 1.234375l0 12.71875q-0.28125 0 -0.265625 -0.28125l2.875 0q1.71875 0 1.71875 1.71875q0 1.71875 -1.71875 1.71875l-8.640625 0q-1.71875 0 -1.71875 -1.71875q0 -1.71875 1.71875 -1.71875l2.875 0q0 0.28125 -0.28125 0.28125l0 -12.71875q0 -3.546875 -1.640625 -5.359375q-1.625 -1.8125 -4.09375 -1.8125q-2.453125 0 -5.046875 2.921875q-1.171875 1.328125 -2.09375 2.84375l0 14.125q-0.28125 0 -0.28125 -0.28125l2.875 0q1.71875 0 1.71875 1.71875q0 1.71875 -1.71875 1.71875l-9.109375 0q-1.71875 0 -1.71875 -1.71875q0 -1.71875 1.71875 -1.71875zm62.782104 -9.328125q0.28125 0 0.28125 0.28125l-7.921875 0q-3.8125 0 -5.484375 1.375q-1.671875 1.359375 -1.671875 3.421875q0 2.0625 1.53125 3.40625q1.546875 1.328125 4.90625 1.328125q4.15625 0 7.421875 -4.3125q0.578125 -0.765625 0.9375 -1.421875l0 -4.078125zm-6.484375 -13.71875q4.421875 0 7.171875 2.5625q2.75 2.5625 2.75 6.359375l0 14.40625q-0.28125 0 -0.265625 -0.28125l3.359375 0q1.71875 0 1.71875 1.71875q0 1.71875 -1.71875 1.71875l-4.8125 0q-1.71875 0 -1.71875 -1.71875l0 -2.6875q0 -0.0625 0.3125 -0.078125q0.3125 -0.015625 0.65625 0.265625q-1.359375 1.734375 -3.859375 3.21875q-2.5 1.484375 -5.265625 1.484375q-4.84375 0 -7.46875 -2.265625q-2.609375 -2.265625 -2.609375 -5.90625q0 -3.640625 2.96875 -5.9375q2.96875 -2.296875 7.625 -2.296875l7.921875 0q0 0.28125 -0.28125 0.28125l0 -1.921875q0 -2.328125 -1.796875 -3.90625q-1.796875 -1.578125 -4.578125 -1.578125q-2.78125 0 -4.59375 0.78125q-1.8125 0.78125 -2.984375 1.6875q-1.15625 0.90625 -2.15625 -0.5q-0.984375 -1.421875 0.328125 -2.359375q3.703125 -3.046875 9.296875 -3.046875zm17.237305 26.484375q-1.71875 0 -1.71875 -1.71875q0 -1.71875 1.71875 -1.71875l3.359375 0q0 0.28125 -0.28125 0.28125l0 -19.6875q0.28125 0 0.28125 0.28125l-3.359375 0q-1.71875 0 -1.71875 -1.71875q0 -1.71875 1.71875 -1.71875l4.796875 0q1.71875 0 1.71875 1.71875l0 21.125q-0.28125 0 -0.28125 -0.28125l3.359375 0q1.71875 0 1.71875 1.71875q0 1.71875 -1.71875 1.71875l-9.59375 0zm2.46875 -28.67186q-0.828125 -0.84375 -0.828125 -2.078125q0 -1.234375 0.828125 -2.078125q0.84375 -0.859375 2.078125 -0.859375q1.25 0 2.078125 0.859375q0.84375 0.84375 0.84375 2.078125q0 1.234375 -0.84375 2.078125q-0.828125 0.828125 -2.078125 0.828125q-1.234375 0 -2.078125 -0.828125zm11.212402 25.23436l3.359375 0q0 0.28125 -0.28125 0.28125l0 -19.6875q0.28125 0 0.28125 0.28125l-3.359375 0q-1.71875 0 -1.71875 -1.71875q0 -1.71875 1.71875 -1.71875l4.796875 0q1.71875 0 1.71875 1.71875l0 2.6875q0 0.0625 -0.3125 0.078125q-0.296875 0.015625 -0.65625 -0.28125q4.171875 -4.6875 9.171875 -4.6875q5.0 0 7.75 2.78125q2.765625 2.765625 2.765625 7.828125l0 12.71875q-0.28125 0 -0.28125 -0.28125l3.359375 0q1.71875 0 1.71875 1.71875q0 1.71875 -1.71875 1.71875l-9.125 0q-1.71875 0 -1.71875 -1.71875q0 -1.71875 1.71875 -1.71875l2.890625 0q0 0.28125 -0.28125 0.28125l0 -12.71875q0 -3.65625 -1.8125 -5.40625q-1.8125 -1.765625 -5.046875 -1.765625q-3.234375 0 -6.21875 2.96875q-1.34375 1.359375 -2.203125 2.796875l0 14.125q-0.28125 0 -0.28125 -0.28125l2.875 0q1.71875 0 1.71875 1.71875q0 1.71875 -1.71875 1.71875l-9.109375 0q-1.71875 0 -1.71875 -1.71875q0 -1.71875 1.71875 -1.71875zm45.97284 0l3.359375 0q0.015625 0.28125 -0.265625 0.28125l0 -29.281235q0.28125 0 0.265625 0.28125l-3.359375 0q-1.71875 0 -1.71875 -1.71875q0 -1.71875 1.71875 -1.71875l5.28125 0q1.328125 0 2.046875 1.1875l19.71875 30.031235q-0.609375 0.375 -0.71875 0.328125q-0.109375 -0.0625 -0.6875 -0.078125l0 -28.312485q0.28125 0 0.28125 0.28125l-2.875 0q-1.71875 0 -1.71875 -1.71875q0 -1.71875 1.71875 -1.71875l9.125 0q1.71875 0 1.71875 1.71875q0 1.71875 -1.71875 1.71875l-3.359375 0q0 -0.28125 0.28125 -0.28125l0 29.281235q-0.28125 0 -0.28125 -0.28125l3.359375 0q1.71875 0 1.71875 1.71875q0 1.71875 -1.71875 1.71875l-5.28125 0q-1.328125 0 -2.046875 -1.1875l-19.71875 -30.031235q0.609375 -0.375 0.71875 -0.3125q0.109375 0.046875 0.6875 0.046875l0 28.32811q-0.28125 0 -0.28125 -0.28125l2.875 0q1.71875 0 1.71875 1.71875q0 1.71875 -1.71875 1.71875l-9.125 0q-1.71875 0 -1.71875 -1.71875q0 -1.71875 1.71875 -1.71875zm53.33734 -9.328125q0.28125 0 0.28125 0.28125l-7.921875 0q-3.8125 0 -5.484375 1.375q-1.671875 1.359375 -1.671875 3.421875q0 2.0625 1.53125 3.40625q1.546875 1.328125 4.90625 1.328125q4.15625 0 7.421875 -4.3125q0.578125 -0.765625 0.9375 -1.421875l0 -4.078125zm-6.484375 -13.71875q4.421875 0 7.171875 2.5625q2.75 2.5625 2.75 6.359375l0 14.40625q-0.28125 0 -0.265625 -0.28125l3.359375 0q1.71875 0 1.71875 1.71875q0 1.71875 -1.71875 1.71875l-4.8125 0q-1.71875 0 -1.71875 -1.71875l0 -2.6875q0 -0.0625 0.3125 -0.078125q0.3125 -0.015625 0.65625 0.265625q-1.359375 1.734375 -3.859375 3.21875q-2.5 1.484375 -5.265625 1.484375q-4.84375 0 -7.46875 -2.265625q-2.609375 -2.265625 -2.609375 -5.90625q0 -3.640625 2.96875 -5.9375q2.96875 -2.296875 7.625 -2.296875l7.921875 0q0 0.28125 -0.28125 0.28125l0 -1.921875q0 -2.328125 -1.796875 -3.90625q-1.796875 -1.578125 -4.578125 -1.578125q-2.78125 0 -4.59375 0.78125q-1.8125 0.78125 -2.984375 1.6875q-1.15625 0.90625 -2.15625 -0.5q-0.984375 -1.421875 0.328125 -2.359375q3.703125 -3.046875 9.296875 -3.046875zm17.19043 23.046875l3.359375 0q0 0.28125 -0.28125 0.28125l0 -19.6875q0.28125 0 0.28125 0.28125l-3.359375 0q-1.71875 0 -1.71875 -1.71875q0 -1.71875 1.71875 -1.71875l4.796875 0q1.71875 0 1.71875 1.71875l0 2.6875q-0.546875 0.171875 -0.96875 -0.203125q4.03125 -4.6875 8.125 -4.6875q3.125 0 5.453125 1.796875q2.34375 1.78125 2.546875 3.28125q-0.125 -0.21875 1.3125 -1.703125q3.28125 -3.375 7.15625 -3.375q3.890625 0 6.453125 2.828125q2.5625 2.828125 2.5625 7.78125l0 12.71875q-0.28125 0 -0.28125 -0.28125l3.359375 0q1.71875 0 1.71875 1.71875q0 1.71875 -1.71875 1.71875l-9.125 0q-1.71875 0 -1.71875 -1.71875q0 -1.71875 1.71875 -1.71875l2.890625 0q0 0.28125 -0.28125 0.28125l0 -12.71875q0 -3.546875 -1.640625 -5.359375q-1.640625 -1.8125 -4.125 -1.8125q-2.484375 0 -5.15625 3.015625q-1.265625 1.453125 -2.046875 2.921875q0.078125 0.796875 0.078125 1.234375l0 12.71875q-0.28125 0 -0.265625 -0.28125l2.875 0q1.71875 0 1.71875 1.71875q0 1.71875 -1.71875 1.71875l-8.640625 0q-1.71875 0 -1.71875 -1.71875q0 -1.71875 1.71875 -1.71875l2.875 0q0 0.28125 -0.28125 0.28125l0 -12.71875q0 -3.546875 -1.640625 -5.359375q-1.625 -1.8125 -4.09375 -1.8125q-2.453125 0 -5.046875 2.921875q-1.171875 1.328125 -2.09375 2.84375l0 14.125q-0.28125 0 -0.28125 -0.28125l2.875 0q1.71875 0 1.71875 1.71875q0 1.71875 -1.71875 1.71875l-9.109375 0q-1.71875 0 -1.71875 -1.71875q0 -1.71875 1.71875 -1.71875zm64.02643 -1.703125q0.75 -0.5625 1.375 -1.15625q0.640625 -0.609375 1.28125 -0.296875q0.65625 0.3125 1.421875 1.203125q0.765625 0.875 -0.609375 1.984375q-1.8125 1.5625 -4.234375 2.734375q-2.40625 1.15625 -6.140625 1.15625q-5.546875 0 -8.921875 -3.8125q-3.359375 -3.828125 -3.359375 -9.671875q0 -5.84375 3.359375 -9.65625q3.375 -3.828125 8.828125 -3.828125q5.453125 0 8.90625 3.46875q3.46875 3.453125 3.46875 8.328125l0 0.734375q0 2.4375 -2.453125 2.4375l-18.90625 0q-0.09375 -0.375 0.28125 -0.375q0.25 3.859375 2.546875 6.40625q2.3125 2.53125 6.40625 2.53125q4.09375 0 6.75 -2.1875zm-15.65625 -9.390625q-0.421875 0 -0.328125 -0.421875l18.1875 0q0 0.28125 -0.28125 0.265625q0 -3.40625 -2.515625 -5.875q-2.5 -2.484375 -6.375 -2.484375q-3.859375 0 -6.28125 2.71875q-2.40625 2.71875 -2.40625 5.796875zm36.10669 11.578125q3.875 0 5.75 -1.234375q1.890625 -1.25 1.890625 -3.046875q0 -2.375 -3.78125 -3.265625q-2.078125 -0.453125 -5.015625 -0.890625q-2.984375 -0.4375 -4.390625 -0.828125q-3.109375 -0.828125 -4.8125 -2.4375q-1.6875 -1.625 -1.6875 -4.609375q0 -2.984375 2.90625 -5.09375q2.90625 -2.125 7.890625 -2.125q4.984375 0 8.875 3.921875q-0.375 0.359375 -0.671875 0.34375q-0.28125 -0.015625 -0.28125 -0.140625l0 -1.921875q0 -1.71875 1.71875 -1.71875q1.734375 0 1.734375 1.71875l0 7.6875q0 1.71875 -1.734375 1.71875q-1.71875 0 -1.71875 -1.71875l0 -2.078125q-1.71875 -2.265625 -4.703125 -3.6875q-1.46875 -0.6875 -3.359375 -0.6875q-3.640625 0 -5.4375 1.1875q-1.78125 1.1875 -1.78125 2.8125q0 1.609375 1.53125 2.59375q1.53125 0.96875 5.125 1.515625q1.625 0.28125 3.3125 0.53125q1.6875 0.234375 3.078125 0.515625q3.015625 0.6875 4.828125 2.21875q1.8125 1.515625 1.8125 4.671875q0 3.140625 -2.859375 5.3125q-2.84375 2.171875 -8.21875 2.171875q-4.25 0 -7.859375 -2.484375q-1.0625 -0.734375 -1.203125 -1.265625q-0.140625 -0.546875 0.15625 -0.53125q0.296875 0.015625 0.296875 0.15625l0 1.921875q0 1.71875 -1.71875 1.71875q-1.71875 0 -1.71875 -1.71875l0 -7.6875q0 -1.71875 1.71875 -1.71875q1.71875 0 1.71875 1.71875l0 2.09375q1.625 2.28125 4.796875 3.65625q1.578125 0.703125 3.8125 0.703125zm13.253662 7.796875q2.40625 -2.84375 4.0625 -7.625q1.65625 -4.78125 1.65625 -10.703125l0 -4.796875q0 -5.921875 -1.65625 -10.656235q-1.65625 -4.734375 -4.078125 -7.671875q-0.46875 -0.453125 -0.46875 -1.15625q0 -0.71875 0.578125 -1.109375q0.59375 -0.390625 1.3125 -0.578125l1.140625 0.59375q2.9375 3.515625 4.765625 8.921875q1.84375 5.3906097 1.84375 11.656235l0 4.796875q0 6.265625 -1.84375 11.671875q-1.828125 5.390625 -4.671875 8.78125q-0.640625 0.65625 -1.515625 0.65625l-0.75 -0.25q-0.859375 -0.703125 -0.859375 -1.46875q0 -0.625 0.484375 -1.0625z" fill-rule="nonzero"/><path fill="#000000" fill-opacity="0.0" d="m288.0 296.16843l598.01575 0l0 82.39371l-598.01575 0z" fill-rule="evenodd"/><path fill="#c6daec" d="m301.89062 323.08844l0 -5.96875l0.328125 1.078125l-5.546875 -8.390625l1.78125 0l4.484375 6.9375l-0.53125 0l4.484375 -6.9375l1.75 0l-5.546875 8.390625l0.328125 -1.078125l0 5.96875l-1.53125 0zm10.324524 0.125q-1.328125 0 -2.328125 -0.59375q-1.0 -0.59375 -1.5625 -1.6875q-0.546875 -1.09375 -0.546875 -2.578125q0 -1.484375 0.546875 -2.578125q0.5625 -1.09375 1.5625 -1.6875q1.0 -0.609375 2.328125 -0.609375q1.34375 0 2.34375 0.609375q1.0 0.59375 1.546875 1.6875q0.5625 1.09375 0.5625 2.578125q0 1.484375 -0.5625 2.578125q-0.546875 1.09375 -1.546875 1.6875q-1.0 0.59375 -2.34375 0.59375zm0 -1.25q1.390625 0 2.140625 -0.921875q0.765625 -0.921875 0.765625 -2.6875q0 -1.734375 -0.765625 -2.671875q-0.765625 -0.9375 -2.140625 -0.9375q-1.359375 0 -2.140625 0.9375q-0.765625 0.9375 -0.765625 2.671875q0 1.765625 0.75 2.6875q0.765625 0.921875 2.15625 0.921875zm10.124481 1.25q-1.6875 0 -2.53125 -0.921875q-0.84375 -0.9375 -0.84375 -2.765625l0 -5.828125l1.5 0l0 5.796875q0 1.265625 0.515625 1.859375q0.53125 0.59375 1.59375 0.59375q1.25 0 2.015625 -0.796875q0.765625 -0.8125 0.765625 -2.140625l0 -5.3125l1.515625 0l0 9.390625l-1.484375 0l0 -2.03125l0.234375 -0.109375q-0.375 1.109375 -1.265625 1.6875q-0.890625 0.578125 -2.015625 0.578125zm18.633942 -0.125l-5.109375 -4.796875l4.71875 -4.5625l1.921875 0l-5.234375 5.0l0.0625 -0.953125l5.609375 5.3125l-1.96875 0zm-6.328125 0l0 -13.734375l1.515625 0l0 13.734375l-1.515625 0zm9.607971 0l0 -6.75q0 -0.65625 -0.03125 -1.3125q-0.015625 -0.671875 -0.109375 -1.328125l1.4375 0l0.15625 1.953125l-0.1875 0.140625q0.390625 -1.140625 1.296875 -1.71875q0.921875 -0.59375 2.125 -0.59375q3.375 0 3.375 3.71875l0 5.890625l-1.515625 0l0 -5.828125q0 -1.296875 -0.53125 -1.90625q-0.515625 -0.609375 -1.625 -0.609375q-1.3125 0 -2.09375 0.8125q-0.78125 0.796875 -0.78125 2.15625l0 5.375l-1.515625 0zm14.78891 0.125q-1.328125 0 -2.328125 -0.59375q-1.0 -0.59375 -1.5625 -1.6875q-0.546875 -1.09375 -0.546875 -2.578125q0 -1.484375 0.546875 -2.578125q0.5625 -1.09375 1.5625 -1.6875q1.0 -0.609375 2.328125 -0.609375q1.34375 0 2.34375 0.609375q1.0 0.59375 1.546875 1.6875q0.5625 1.09375 0.5625 2.578125q0 1.484375 -0.5625 2.578125q-0.546875 1.09375 -1.546875 1.6875q-1.0 0.59375 -2.34375 0.59375zm0 -1.25q1.390625 0 2.140625 -0.921875q0.765625 -0.921875 0.765625 -2.6875q0 -1.734375 -0.765625 -2.671875q-0.765625 -0.9375 -2.140625 -0.9375q-1.359375 0 -2.140625 0.9375q-0.765625 0.9375 -0.765625 2.671875q0 1.765625 0.75 2.6875q0.765625 0.921875 2.15625 0.921875zm9.199982 1.125l-3.46875 -9.390625l1.59375 0l2.890625 8.265625l-0.484375 0l2.984375 -8.265625l1.328125 0l2.9375 8.265625l-0.484375 0l2.953125 -8.265625l1.484375 0l-3.46875 9.390625l-1.453125 0l-3.09375 -8.453125l0.8125 0l-3.078125 8.453125l-1.453125 0zm17.237823 -8.1875l0 -1.203125l6.03125 0l0 1.203125l-6.03125 0zm6.0 6.84375l0 1.28125q-0.328125 0.09375 -0.640625 0.140625q-0.296875 0.046875 -0.671875 0.046875q-1.3125 0 -2.09375 -0.734375q-0.765625 -0.75 -0.765625 -2.25l0 -8.9375l1.515625 -0.53125l0 9.265625q0 0.75 0.21875 1.15625q0.21875 0.40625 0.578125 0.578125q0.375 0.15625 0.84375 0.15625q0.28125 0 0.5 -0.03125q0.234375 -0.046875 0.515625 -0.140625zm1.8578186 1.34375l0 -13.734375l1.515625 0l0 6.25l-0.25 0.1875q0.390625 -1.140625 1.296875 -1.71875q0.921875 -0.59375 2.125 -0.59375q3.375 0 3.375 3.71875l0 5.890625l-1.515625 0l0 -5.828125q0 -1.296875 -0.53125 -1.90625q-0.515625 -0.609375 -1.625 -0.609375q-1.3125 0 -2.09375 0.8125q-0.78125 0.796875 -0.78125 2.15625l0 5.375l-1.515625 0zm18.60141 -1.125q-0.609375 0.578125 -1.578125 0.921875q-0.953125 0.328125 -1.96875 0.328125q-1.453125 0 -2.515625 -0.578125q-1.046875 -0.578125 -1.625 -1.65625q-0.5625 -1.09375 -0.5625 -2.609375q0 -1.453125 0.5625 -2.546875q0.5625 -1.109375 1.5625 -1.71875q1.0 -0.625 2.296875 -0.625q1.25 0 2.140625 0.5625q0.90625 0.546875 1.375 1.578125q0.484375 1.015625 0.484375 2.453125l0 0.28125l-7.09375 0l0 -1.0l6.234375 0l-0.484375 0.703125q0.03125 -1.640625 -0.65625 -2.515625q-0.671875 -0.890625 -1.984375 -0.890625q-1.359375 0 -2.140625 0.96875q-0.765625 0.953125 -0.765625 2.65625q0 1.828125 0.8125 2.765625q0.8125 0.921875 2.375 0.921875q0.828125 0 1.578125 -0.265625q0.765625 -0.265625 1.453125 -0.828125l0.5 1.09375zm5.6333923 1.25q-2.375 0 -3.75 -1.203125l0.5 -1.125q0.75 0.578125 1.546875 0.859375q0.796875 0.265625 1.765625 0.265625q1.0625 0 1.609375 -0.359375q0.546875 -0.375 0.546875 -1.0625q0 -0.5625 -0.375 -0.890625q-0.375 -0.328125 -1.21875 -0.53125l-1.59375 -0.375q-1.171875 -0.25 -1.828125 -0.921875q-0.640625 -0.671875 -0.640625 -1.609375q0 -0.828125 0.453125 -1.453125q0.453125 -0.625 1.25 -0.96875q0.796875 -0.359375 1.90625 -0.359375q0.984375 0 1.859375 0.328125q0.875 0.3125 1.484375 0.90625l-0.515625 1.09375q-0.671875 -0.546875 -1.375 -0.8125q-0.6875 -0.28125 -1.453125 -0.28125q-1.015625 0 -1.5625 0.390625q-0.546875 0.390625 -0.546875 1.0625q0 0.578125 0.34375 0.921875q0.34375 0.328125 1.109375 0.515625l1.59375 0.390625q1.3125 0.28125 1.9375 0.921875q0.625 0.640625 0.625 1.640625q0 1.203125 -0.984375 1.9375q-0.984375 0.71875 -2.6875 0.71875zm13.769104 -1.25q-0.609375 0.578125 -1.578125 0.921875q-0.953125 0.328125 -1.96875 0.328125q-1.453125 0 -2.515625 -0.578125q-1.046875 -0.578125 -1.625 -1.65625q-0.5625 -1.09375 -0.5625 -2.609375q0 -1.453125 0.5625 -2.546875q0.5625 -1.109375 1.5625 -1.71875q1.0 -0.625 2.296875 -0.625q1.25 0 2.140625 0.5625q0.90625 0.546875 1.375 1.578125q0.484375 1.015625 0.484375 2.453125l0 0.28125l-7.09375 0l0 -1.0l6.234375 0l-0.484375 0.703125q0.03125 -1.640625 -0.65625 -2.515625q-0.671875 -0.890625 -1.984375 -0.890625q-1.359375 0 -2.140625 0.96875q-0.765625 0.953125 -0.765625 2.65625q0 1.828125 0.8125 2.765625q0.8125 0.921875 2.375 0.921875q0.828125 0 1.578125 -0.265625q0.765625 -0.265625 1.453125 -0.828125l0.5 1.09375zm10.940186 1.25q-1.25 0 -2.203125 -0.578125q-0.9375 -0.59375 -1.453125 -1.6875q-0.515625 -1.09375 -0.515625 -2.5625q0 -1.46875 0.515625 -2.5625q0.53125 -1.109375 1.46875 -1.71875q0.953125 -0.625 2.1875 -0.625q1.28125 0 2.171875 0.640625q0.90625 0.625 1.21875 1.8125l-0.21875 0.140625l0 -2.375l1.484375 0l0 9.390625l-1.484375 0l0 -2.421875l0.21875 0.109375q-0.3125 1.171875 -1.21875 1.8125q-0.890625 0.625 -2.171875 0.625zm0.296875 -1.25q1.375 0 2.125 -0.9375q0.75 -0.9375 0.75 -2.671875q0 -1.734375 -0.765625 -2.671875q-0.75 -0.9375 -2.109375 -0.9375q-1.390625 0 -2.171875 0.96875q-0.765625 0.953125 -0.765625 2.671875q0 1.71875 0.765625 2.65625q0.78125 0.921875 2.171875 0.921875zm10.459351 1.25q-2.375 0 -3.75 -1.203125l0.5 -1.125q0.75 0.578125 1.546875 0.859375q0.796875 0.265625 1.765625 0.265625q1.0625 0 1.609375 -0.359375q0.546875 -0.375 0.546875 -1.0625q0 -0.5625 -0.375 -0.890625q-0.375 -0.328125 -1.21875 -0.53125l-1.59375 -0.375q-1.171875 -0.25 -1.828125 -0.921875q-0.640625 -0.671875 -0.640625 -1.609375q0 -0.828125 0.453125 -1.453125q0.453125 -0.625 1.25 -0.96875q0.796875 -0.359375 1.90625 -0.359375q0.984375 0 1.859375 0.328125q0.875 0.3125 1.484375 0.90625l-0.515625 1.09375q-0.671875 -0.546875 -1.375 -0.8125q-0.6875 -0.28125 -1.453125 -0.28125q-1.015625 0 -1.5625 0.390625q-0.546875 0.390625 -0.546875 1.0625q0 0.578125 0.34375 0.921875q0.34375 0.328125 1.109375 0.515625l1.59375 0.390625q1.3125 0.28125 1.9375 0.921875q0.625 0.640625 0.625 1.640625q0 1.203125 -0.984375 1.9375q-0.984375 0.71875 -2.6875 0.71875z" fill-rule="nonzero"/><path fill="#010000" fill-opacity="0.0" d="m462.53607 304.3389l101.135376 0l0 23.413605l-101.135376 0l0 -23.413605z" fill-rule="nonzero"/><path fill="#c6daec" d="m470.0517 323.2447q-2.0 0 -3.421875 -0.8125q-1.421875 -0.8125 -2.1875 -2.328125q-0.75 -1.53125 -0.75 -3.671875q0 -2.125 0.75 -3.640625q0.765625 -1.53125 2.171875 -2.328125q1.40625 -0.8125 3.328125 -0.8125q1.375 0 2.546875 0.421875q1.171875 0.421875 2.03125 1.265625l-0.609375 1.171875q-0.96875 -0.828125 -1.90625 -1.1875q-0.921875 -0.359375 -2.0625 -0.359375q-2.25 0 -3.453125 1.40625q-1.203125 1.40625 -1.203125 4.0625q0 2.703125 1.21875 4.109375q1.234375 1.40625 3.59375 1.40625q0.96875 0 1.890625 -0.171875q0.921875 -0.1875 1.671875 -0.484375l-0.375 0.796875l0 -4.703125l-3.3125 0l0 -1.21875l4.703125 0l0 6.15625q-0.515625 0.28125 -1.28125 0.484375q-0.75 0.203125 -1.625 0.3125q-0.859375 0.125 -1.71875 0.125zm11.450226 -0.03125q-1.328125 0 -2.328125 -0.59375q-1.0 -0.59375 -1.5625 -1.6875q-0.546875 -1.09375 -0.546875 -2.578125q0 -1.484375 0.546875 -2.578125q0.5625 -1.09375 1.5625 -1.6875q1.0 -0.609375 2.328125 -0.609375q1.34375 0 2.34375 0.609375q1.0 0.59375 1.546875 1.6875q0.5625 1.09375 0.5625 2.578125q0 1.484375 -0.5625 2.578125q-0.546875 1.09375 -1.546875 1.6875q-1.0 0.59375 -2.34375 0.59375zm0 -1.25q1.390625 0 2.140625 -0.921875q0.765625 -0.921875 0.765625 -2.6875q0 -1.734375 -0.765625 -2.671875q-0.765625 -0.9375 -2.140625 -0.9375q-1.359375 0 -2.140625 0.9375q-0.765625 0.9375 -0.765625 2.671875q0 1.765625 0.75 2.6875q0.765625 0.921875 2.15625 0.921875zm10.671356 1.25q-1.328125 0 -2.328125 -0.59375q-1.0 -0.59375 -1.5625 -1.6875q-0.546875 -1.09375 -0.546875 -2.578125q0 -1.484375 0.546875 -2.578125q0.5625 -1.09375 1.5625 -1.6875q1.0 -0.609375 2.328125 -0.609375q1.34375 0 2.34375 0.609375q1.0 0.59375 1.546875 1.6875q0.5625 1.09375 0.5625 2.578125q0 1.484375 -0.5625 2.578125q-0.546875 1.09375 -1.546875 1.6875q-1.0 0.59375 -2.34375 0.59375zm0 -1.25q1.390625 0 2.140625 -0.921875q0.765625 -0.921875 0.765625 -2.6875q0 -1.734375 -0.765625 -2.671875q-0.765625 -0.9375 -2.140625 -0.9375q-1.359375 0 -2.140625 0.9375q-0.765625 0.9375 -0.765625 2.671875q0 1.765625 0.75 2.6875q0.765625 0.921875 2.15625 0.921875zm10.921387 5.28125q-2.125 0 -3.6875 -0.96875l0.25 -1.234375q0.875 0.515625 1.65625 0.734375q0.796875 0.21875 1.78125 0.21875q1.34375 0 2.046875 -0.71875q0.703125 -0.71875 0.703125 -2.125l0 -2.546875l0.203125 -0.234375q-0.234375 0.734375 -0.71875 1.296875q-0.46875 0.546875 -1.15625 0.84375q-0.6875 0.296875 -1.5625 0.296875q-1.25 0 -2.203125 -0.578125q-0.9375 -0.59375 -1.46875 -1.640625q-0.53125 -1.046875 -0.53125 -2.4375q0 -1.40625 0.53125 -2.453125q0.53125 -1.046875 1.46875 -1.625q0.953125 -0.59375 2.203125 -0.59375q1.3125 0 2.203125 0.640625q0.90625 0.640625 1.234375 1.8125l-0.234375 -0.21875l0 -2.015625l1.515625 0l0 9.3125q0 2.109375 -1.078125 3.171875q-1.0625 1.0625 -3.15625 1.0625zm-0.1875 -5.703125q1.359375 0 2.125 -0.90625q0.78125 -0.90625 0.78125 -2.484375q0 -1.59375 -0.78125 -2.5q-0.765625 -0.90625 -2.125 -0.90625q-1.375 0 -2.171875 0.90625q-0.796875 0.90625 -0.796875 2.5q0 1.59375 0.796875 2.5q0.796875 0.890625 2.171875 0.890625zm7.3308716 1.546875l0 -13.734375l1.515625 0l0 13.734375l-1.515625 0zm12.127686 -1.125q-0.609375 0.578125 -1.578125 0.921875q-0.953125 0.328125 -1.96875 0.328125q-1.453125 0 -2.515625 -0.578125q-1.046875 -0.578125 -1.625 -1.65625q-0.5625 -1.09375 -0.5625 -2.609375q0 -1.453125 0.5625 -2.546875q0.5625 -1.109375 1.5625 -1.71875q1.0 -0.625 2.296875 -0.625q1.25 0 2.140625 0.5625q0.90625 0.546875 1.375 1.578125q0.484375 1.015625 0.484375 2.453125l0 0.28125l-7.09375 0l0 -1.0l6.234375 0l-0.484375 0.703125q0.03125 -1.640625 -0.65625 -2.515625q-0.671875 -0.890625 -1.984375 -0.890625q-1.359375 0 -2.140625 0.96875q-0.765625 0.953125 -0.765625 2.65625q0 1.828125 0.8125 2.765625q0.8125 0.921875 2.375 0.921875q0.828125 0 1.578125 -0.265625q0.765625 -0.265625 1.453125 -0.828125l0.5 1.09375zm2.1958618 -0.796875l1.921875 0l0 1.921875l-1.921875 0l0 -1.921875zm8.195374 2.046875q-1.375 0 -2.390625 -0.59375q-1.0 -0.59375 -1.5625 -1.671875q-0.546875 -1.09375 -0.546875 -2.5625q0 -1.453125 0.5625 -2.5625q0.5625 -1.109375 1.578125 -1.71875q1.03125 -0.625 2.4375 -0.625q0.953125 0 1.828125 0.328125q0.890625 0.328125 1.46875 0.90625l-0.5 1.125q-0.6875 -0.546875 -1.359375 -0.8125q-0.65625 -0.28125 -1.359375 -0.28125q-1.421875 0 -2.25 0.953125q-0.828125 0.953125 -0.828125 2.6875q0 1.71875 0.8125 2.65625q0.828125 0.921875 2.265625 0.921875q0.6875 0 1.359375 -0.265625q0.671875 -0.265625 1.359375 -0.8125l0.5 1.125q-0.59375 0.5625 -1.5 0.890625q-0.90625 0.3125 -1.875 0.3125zm9.172363 0q-1.328125 0 -2.328125 -0.59375q-1.0 -0.59375 -1.5625 -1.6875q-0.546875 -1.09375 -0.546875 -2.578125q0 -1.484375 0.546875 -2.578125q0.5625 -1.09375 1.5625 -1.6875q1.0 -0.609375 2.328125 -0.609375q1.34375 0 2.34375 0.609375q1.0 0.59375 1.546875 1.6875q0.5625 1.09375 0.5625 2.578125q0 1.484375 -0.5625 2.578125q-0.546875 1.09375 -1.546875 1.6875q-1.0 0.59375 -2.34375 0.59375zm0 -1.25q1.390625 0 2.140625 -0.921875q0.765625 -0.921875 0.765625 -2.6875q0 -1.734375 -0.765625 -2.671875q-0.765625 -0.9375 -2.140625 -0.9375q-1.359375 0 -2.140625 0.9375q-0.765625 0.9375 -0.765625 2.671875q0 1.765625 0.75 2.6875q0.765625 0.921875 2.15625 0.921875zm6.7963867 1.125l0 -6.75q0 -0.65625 -0.03125 -1.3125q-0.015625 -0.671875 -0.109375 -1.328125l1.4375 0l0.15625 1.953125l-0.1875 0.125q0.34375 -1.09375 1.171875 -1.6875q0.828125 -0.609375 1.96875 -0.609375q1.359375 0 2.109375 0.671875q0.765625 0.671875 0.96875 2.046875l-0.453125 -0.234375q0.296875 -1.140625 1.203125 -1.8125q0.90625 -0.671875 2.171875 -0.671875q1.546875 0 2.328125 0.921875q0.796875 0.921875 0.796875 2.796875l0 5.890625l-1.515625 0l0 -5.828125q0 -1.296875 -0.46875 -1.90625q-0.46875 -0.609375 -1.46875 -0.609375q-1.171875 0 -1.859375 0.8125q-0.671875 0.796875 -0.671875 2.171875l0 5.359375l-1.515625 0l0 -5.828125q0 -1.296875 -0.484375 -1.90625q-0.46875 -0.609375 -1.484375 -0.609375q-1.1875 0 -1.875 0.8125q-0.671875 0.796875 -0.671875 2.171875l0 5.359375l-1.515625 0z" fill-rule="nonzero"/><path fill="#c6daec" d="m565.6558 325.22906l-0.71875 -0.53125q0.5 -0.546875 0.671875 -1.0q0.171875 -0.4375 0.171875 -0.90625l0.453125 0.296875l-1.375 0l0 -1.921875l1.921875 0l0 1.359375q0 0.75 -0.25 1.40625q-0.25 0.671875 -0.875 1.296875z" fill-rule="nonzero"/><path fill="#010000" fill-opacity="0.0" d="m572.85034 304.3389l112.60889 0l0 23.413605l-112.60889 0l0 -23.413605z" fill-rule="nonzero"/><path fill="#c6daec" d="m574.7722 323.08844l-1.59375 0l5.84375 -13.28125l1.34375 0l5.84375 13.28125l-1.5625 0l-5.21875 -12.15625l0.5625 0l-5.21875 12.15625zm0.890625 -3.421875l0.546875 -1.265625l6.96875 0l0.546875 1.265625l-8.0625 0zm12.334351 3.421875l0 -6.75q0 -0.65625 -0.03125 -1.3125q-0.015625 -0.671875 -0.109375 -1.328125l1.4375 0l0.15625 1.953125l-0.1875 0.125q0.34375 -1.09375 1.171875 -1.6875q0.828125 -0.609375 1.96875 -0.609375q1.359375 0 2.109375 0.671875q0.765625 0.671875 0.96875 2.046875l-0.453125 -0.234375q0.296875 -1.140625 1.203125 -1.8125q0.90625 -0.671875 2.171875 -0.671875q1.546875 0 2.328125 0.921875q0.796875 0.921875 0.796875 2.796875l0 5.890625l-1.515625 0l0 -5.828125q0 -1.296875 -0.46875 -1.90625q-0.46875 -0.609375 -1.46875 -0.609375q-1.171875 0 -1.859375 0.8125q-0.671875 0.796875 -0.671875 2.171875l0 5.359375l-1.515625 0l0 -5.828125q0 -1.296875 -0.484375 -1.90625q-0.46875 -0.609375 -1.484375 -0.609375q-1.1875 0 -1.875 0.8125q-0.671875 0.796875 -0.671875 2.171875l0 5.359375l-1.515625 0zm20.008179 0.125q-1.25 0 -2.203125 -0.578125q-0.9375 -0.59375 -1.453125 -1.6875q-0.515625 -1.09375 -0.515625 -2.5625q0 -1.46875 0.515625 -2.5625q0.53125 -1.109375 1.46875 -1.71875q0.953125 -0.625 2.1875 -0.625q1.28125 0 2.171875 0.640625q0.90625 0.625 1.21875 1.8125l-0.21875 0.140625l0 -2.375l1.484375 0l0 9.390625l-1.484375 0l0 -2.421875l0.21875 0.109375q-0.3125 1.171875 -1.21875 1.8125q-0.890625 0.625 -2.171875 0.625zm0.296875 -1.25q1.375 0 2.125 -0.9375q0.75 -0.9375 0.75 -2.671875q0 -1.734375 -0.765625 -2.671875q-0.75 -0.9375 -2.109375 -0.9375q-1.390625 0 -2.171875 0.96875q-0.765625 0.953125 -0.765625 2.671875q0 1.71875 0.765625 2.65625q0.78125 0.921875 2.171875 0.921875zm6.7719116 1.125l0 -1.046875l6.40625 -7.765625l0.25 0.625l-6.453125 0l0 -1.203125l7.515625 0l0 1.109375l-6.375 7.71875l-0.203125 -0.625l6.78125 0l0 1.1875l-7.921875 0zm13.830566 0.125q-1.328125 0 -2.328125 -0.59375q-1.0 -0.59375 -1.5625 -1.6875q-0.546875 -1.09375 -0.546875 -2.578125q0 -1.484375 0.546875 -2.578125q0.5625 -1.09375 1.5625 -1.6875q1.0 -0.609375 2.328125 -0.609375q1.34375 0 2.34375 0.609375q1.0 0.59375 1.546875 1.6875q0.5625 1.09375 0.5625 2.578125q0 1.484375 -0.5625 2.578125q-0.546875 1.09375 -1.546875 1.6875q-1.0 0.59375 -2.34375 0.59375zm0 -1.25q1.390625 0 2.140625 -0.921875q0.765625 -0.921875 0.765625 -2.6875q0 -1.734375 -0.765625 -2.671875q-0.765625 -0.9375 -2.140625 -0.9375q-1.359375 0 -2.140625 0.9375q-0.765625 0.9375 -0.765625 2.671875q0 1.765625 0.75 2.6875q0.765625 0.921875 2.15625 0.921875zm6.7963257 1.125l0 -6.75q0 -0.65625 -0.03125 -1.3125q-0.015625 -0.671875 -0.109375 -1.328125l1.4375 0l0.15625 1.953125l-0.1875 0.140625q0.390625 -1.140625 1.296875 -1.71875q0.921875 -0.59375 2.125 -0.59375q3.375 0 3.375 3.71875l0 5.890625l-1.515625 0l0 -5.828125q0 -1.296875 -0.53125 -1.90625q-0.515625 -0.609375 -1.625 -0.609375q-1.3125 0 -2.09375 0.8125q-0.78125 0.796875 -0.78125 2.15625l0 5.375l-1.515625 0zm10.648315 -1.921875l1.921875 0l0 1.921875l-1.921875 0l0 -1.921875zm8.195374 2.046875q-1.375 0 -2.390625 -0.59375q-1.0 -0.59375 -1.5625 -1.671875q-0.546875 -1.09375 -0.546875 -2.5625q0 -1.453125 0.5625 -2.5625q0.5625 -1.109375 1.578125 -1.71875q1.03125 -0.625 2.4375 -0.625q0.953125 0 1.828125 0.328125q0.890625 0.328125 1.46875 0.90625l-0.5 1.125q-0.6875 -0.546875 -1.359375 -0.8125q-0.65625 -0.28125 -1.359375 -0.28125q-1.421875 0 -2.25 0.953125q-0.828125 0.953125 -0.828125 2.6875q0 1.71875 0.8125 2.65625q0.828125 0.921875 2.265625 0.921875q0.6875 0 1.359375 -0.265625q0.671875 -0.265625 1.359375 -0.8125l0.5 1.125q-0.59375 0.5625 -1.5 0.890625q-0.90625 0.3125 -1.875 0.3125zm9.172363 0q-1.328125 0 -2.328125 -0.59375q-1.0 -0.59375 -1.5625 -1.6875q-0.546875 -1.09375 -0.546875 -2.578125q0 -1.484375 0.546875 -2.578125q0.5625 -1.09375 1.5625 -1.6875q1.0 -0.609375 2.328125 -0.609375q1.34375 0 2.34375 0.609375q1.0 0.59375 1.546875 1.6875q0.5625 1.09375 0.5625 2.578125q0 1.484375 -0.5625 2.578125q-0.546875 1.09375 -1.546875 1.6875q-1.0 0.59375 -2.34375 0.59375zm0 -1.25q1.390625 0 2.140625 -0.921875q0.765625 -0.921875 0.765625 -2.6875q0 -1.734375 -0.765625 -2.671875q-0.765625 -0.9375 -2.140625 -0.9375q-1.359375 0 -2.140625 0.9375q-0.765625 0.9375 -0.765625 2.671875q0 1.765625 0.75 2.6875q0.765625 0.921875 2.15625 0.921875zm6.7963867 1.125l0 -6.75q0 -0.65625 -0.03125 -1.3125q-0.015625 -0.671875 -0.109375 -1.328125l1.4375 0l0.15625 1.953125l-0.1875 0.125q0.34375 -1.09375 1.171875 -1.6875q0.828125 -0.609375 1.96875 -0.609375q1.359375 0 2.109375 0.671875q0.765625 0.671875 0.96875 2.046875l-0.453125 -0.234375q0.296875 -1.140625 1.203125 -1.8125q0.90625 -0.671875 2.171875 -0.671875q1.546875 0 2.328125 0.921875q0.796875 0.921875 0.796875 2.796875l0 5.890625l-1.515625 0l0 -5.828125q0 -1.296875 -0.46875 -1.90625q-0.46875 -0.609375 -1.46875 -0.609375q-1.171875 0 -1.859375 0.8125q-0.671875 0.796875 -0.671875 2.171875l0 5.359375l-1.515625 0l0 -5.828125q0 -1.296875 -0.484375 -1.90625q-0.46875 -0.609375 -1.484375 -0.609375q-1.1875 0 -1.875 0.8125q-0.671875 0.796875 -0.671875 2.171875l0 5.359375l-1.515625 0z" fill-rule="nonzero"/><path fill="#c6daec" d="m687.4436 325.22906l-0.71875 -0.53125q0.5 -0.546875 0.671875 -1.0q0.171875 -0.4375 0.171875 -0.90625l0.453125 0.296875l-1.375 0l0 -1.921875l1.921875 0l0 1.359375q0 0.75 -0.25 1.40625q-0.25 0.671875 -0.875 1.296875z" fill-rule="nonzero"/><path fill="#010000" fill-opacity="0.0" d="m694.63806 304.3389l123.56018 0l0 23.413605l-123.56018 0l0 -23.413605z" fill-rule="nonzero"/><path fill="#c6daec" d="m696.2787 323.08844l0 -13.28125l8.203125 0l0 1.28125l-6.6875 0l0 4.609375l6.328125 0l0 1.296875l-6.328125 0l0 6.09375l-1.515625 0zm13.738647 0.125q-1.25 0 -2.203125 -0.578125q-0.9375 -0.59375 -1.453125 -1.6875q-0.515625 -1.09375 -0.515625 -2.5625q0 -1.46875 0.515625 -2.5625q0.53125 -1.109375 1.46875 -1.71875q0.953125 -0.625 2.1875 -0.625q1.28125 0 2.171875 0.640625q0.90625 0.625 1.21875 1.8125l-0.21875 0.140625l0 -2.375l1.484375 0l0 9.390625l-1.484375 0l0 -2.421875l0.21875 0.109375q-0.3125 1.171875 -1.21875 1.8125q-0.890625 0.625 -2.171875 0.625zm0.296875 -1.25q1.375 0 2.125 -0.9375q0.75 -0.9375 0.75 -2.671875q0 -1.734375 -0.765625 -2.671875q-0.75 -0.9375 -2.109375 -0.9375q-1.390625 0 -2.171875 0.96875q-0.765625 0.953125 -0.765625 2.671875q0 1.71875 0.765625 2.65625q0.78125 0.921875 2.171875 0.921875zm11.225037 1.25q-1.375 0 -2.390625 -0.59375q-1.0 -0.59375 -1.5625 -1.671875q-0.546875 -1.09375 -0.546875 -2.5625q0 -1.453125 0.5625 -2.5625q0.5625 -1.109375 1.578125 -1.71875q1.03125 -0.625 2.4375 -0.625q0.953125 0 1.828125 0.328125q0.890625 0.328125 1.46875 0.90625l-0.5 1.125q-0.6875 -0.546875 -1.359375 -0.8125q-0.65625 -0.28125 -1.359375 -0.28125q-1.421875 0 -2.25 0.953125q-0.828125 0.953125 -0.828125 2.6875q0 1.71875 0.8125 2.65625q0.828125 0.921875 2.265625 0.921875q0.6875 0 1.359375 -0.265625q0.671875 -0.265625 1.359375 -0.8125l0.5 1.125q-0.59375 0.5625 -1.5 0.890625q-0.90625 0.3125 -1.875 0.3125zm12.984863 -1.25q-0.609375 0.578125 -1.578125 0.921875q-0.953125 0.328125 -1.96875 0.328125q-1.453125 0 -2.515625 -0.578125q-1.046875 -0.578125 -1.625 -1.65625q-0.5625 -1.09375 -0.5625 -2.609375q0 -1.453125 0.5625 -2.546875q0.5625 -1.109375 1.5625 -1.71875q1.0 -0.625 2.296875 -0.625q1.25 0 2.140625 0.5625q0.90625 0.546875 1.375 1.578125q0.484375 1.015625 0.484375 2.453125l0 0.28125l-7.09375 0l0 -1.0l6.234375 0l-0.484375 0.703125q0.03125 -1.640625 -0.65625 -2.515625q-0.671875 -0.890625 -1.984375 -0.890625q-1.359375 0 -2.140625 0.96875q-0.765625 0.953125 -0.765625 2.65625q0 1.828125 0.8125 2.765625q0.8125 0.921875 2.375 0.921875q0.828125 0 1.578125 -0.265625q0.765625 -0.265625 1.453125 -0.828125l0.5 1.09375zm2.4614868 1.125l0 -13.734375l1.515625 0l0 6.75l-0.203125 -0.171875q0.3125 -1.171875 1.203125 -1.8125q0.90625 -0.640625 2.171875 -0.640625q1.25 0 2.171875 0.609375q0.9375 0.59375 1.46875 1.671875q0.53125 1.078125 0.53125 2.546875q0 1.484375 -0.53125 2.59375q-0.53125 1.109375 -1.46875 1.71875q-0.9375 0.59375 -2.171875 0.59375q-1.265625 0 -2.171875 -0.625q-0.890625 -0.640625 -1.203125 -1.8125l0.203125 -0.203125l0 2.515625l-1.515625 0zm4.40625 -1.125q1.359375 0 2.125 -0.953125q0.765625 -0.96875 0.765625 -2.703125q0 -1.6875 -0.765625 -2.625q-0.765625 -0.9375 -2.125 -0.9375q-1.40625 0 -2.15625 0.953125q-0.734375 0.9375 -0.734375 2.65625q0 1.734375 0.734375 2.671875q0.75 0.9375 2.15625 0.9375zm10.662476 1.25q-1.328125 0 -2.328125 -0.59375q-1.0 -0.59375 -1.5625 -1.6875q-0.546875 -1.09375 -0.546875 -2.578125q0 -1.484375 0.546875 -2.578125q0.5625 -1.09375 1.5625 -1.6875q1.0 -0.609375 2.328125 -0.609375q1.34375 0 2.34375 0.609375q1.0 0.59375 1.546875 1.6875q0.5625 1.09375 0.5625 2.578125q0 1.484375 -0.5625 2.578125q-0.546875 1.09375 -1.546875 1.6875q-1.0 0.59375 -2.34375 0.59375zm0 -1.25q1.390625 0 2.140625 -0.921875q0.765625 -0.921875 0.765625 -2.6875q0 -1.734375 -0.765625 -2.671875q-0.765625 -0.9375 -2.140625 -0.9375q-1.359375 0 -2.140625 0.9375q-0.765625 0.9375 -0.765625 2.671875q0 1.765625 0.75 2.6875q0.765625 0.921875 2.15625 0.921875zm10.671387 1.25q-1.328125 0 -2.328125 -0.59375q-1.0 -0.59375 -1.5625 -1.6875q-0.546875 -1.09375 -0.546875 -2.578125q0 -1.484375 0.546875 -2.578125q0.5625 -1.09375 1.5625 -1.6875q1.0 -0.609375 2.328125 -0.609375q1.34375 0 2.34375 0.609375q1.0 0.59375 1.546875 1.6875q0.5625 1.09375 0.5625 2.578125q0 1.484375 -0.5625 2.578125q-0.546875 1.09375 -1.546875 1.6875q-1.0 0.59375 -2.34375 0.59375zm0 -1.25q1.390625 0 2.140625 -0.921875q0.765625 -0.921875 0.765625 -2.6875q0 -1.734375 -0.765625 -2.671875q-0.765625 -0.9375 -2.140625 -0.9375q-1.359375 0 -2.140625 0.9375q-0.765625 0.9375 -0.765625 2.671875q0 1.765625 0.75 2.6875q0.765625 0.921875 2.15625 0.921875zm13.124512 1.125l-5.109375 -4.796875l4.71875 -4.5625l1.921875 0l-5.234375 5.0l0.0625 -0.953125l5.609375 5.3125l-1.96875 0zm-6.328125 0l0 -13.734375l1.515625 0l0 13.734375l-1.515625 0zm9.566345 -1.921875l1.921875 0l0 1.921875l-1.921875 0l0 -1.921875zm8.195374 2.046875q-1.375 0 -2.390625 -0.59375q-1.0 -0.59375 -1.5625 -1.671875q-0.546875 -1.09375 -0.546875 -2.5625q0 -1.453125 0.5625 -2.5625q0.5625 -1.109375 1.578125 -1.71875q1.03125 -0.625 2.4375 -0.625q0.953125 0 1.828125 0.328125q0.890625 0.328125 1.46875 0.90625l-0.5 1.125q-0.6875 -0.546875 -1.359375 -0.8125q-0.65625 -0.28125 -1.359375 -0.28125q-1.421875 0 -2.25 0.953125q-0.828125 0.953125 -0.828125 2.6875q0 1.71875 0.8125 2.65625q0.828125 0.921875 2.265625 0.921875q0.6875 0 1.359375 -0.265625q0.671875 -0.265625 1.359375 -0.8125l0.5 1.125q-0.59375 0.5625 -1.5 0.890625q-0.90625 0.3125 -1.875 0.3125zm9.172363 0q-1.328125 0 -2.328125 -0.59375q-1.0 -0.59375 -1.5625 -1.6875q-0.546875 -1.09375 -0.546875 -2.578125q0 -1.484375 0.546875 -2.578125q0.5625 -1.09375 1.5625 -1.6875q1.0 -0.609375 2.328125 -0.609375q1.34375 0 2.34375 0.609375q1.0 0.59375 1.546875 1.6875q0.5625 1.09375 0.5625 2.578125q0 1.484375 -0.5625 2.578125q-0.546875 1.09375 -1.546875 1.6875q-1.0 0.59375 -2.34375 0.59375zm0 -1.25q1.390625 0 2.140625 -0.921875q0.765625 -0.921875 0.765625 -2.6875q0 -1.734375 -0.765625 -2.671875q-0.765625 -0.9375 -2.140625 -0.9375q-1.359375 0 -2.140625 0.9375q-0.765625 0.9375 -0.765625 2.671875q0 1.765625 0.75 2.6875q0.765625 0.921875 2.15625 0.921875zm6.7963867 1.125l0 -6.75q0 -0.65625 -0.03125 -1.3125q-0.015625 -0.671875 -0.109375 -1.328125l1.4375 0l0.15625 1.953125l-0.1875 0.125q0.34375 -1.09375 1.171875 -1.6875q0.828125 -0.609375 1.96875 -0.609375q1.359375 0 2.109375 0.671875q0.765625 0.671875 0.96875 2.046875l-0.453125 -0.234375q0.296875 -1.140625 1.203125 -1.8125q0.90625 -0.671875 2.171875 -0.671875q1.546875 0 2.328125 0.921875q0.796875 0.921875 0.796875 2.796875l0 5.890625l-1.515625 0l0 -5.828125q0 -1.296875 -0.46875 -1.90625q-0.46875 -0.609375 -1.46875 -0.609375q-1.171875 0 -1.859375 0.8125q-0.671875 0.796875 -0.671875 2.171875l0 5.359375l-1.515625 0l0 -5.828125q0 -1.296875 -0.484375 -1.90625q-0.46875 -0.609375 -1.484375 -0.609375q-1.1875 0 -1.875 0.8125q-0.671875 0.796875 -0.671875 2.171875l0 5.359375l-1.515625 0z" fill-rule="nonzero"/><path fill="#c6daec" d="m820.1826 325.22906l-0.71875 -0.53125q0.5 -0.546875 0.671875 -1.0q0.171875 -0.4375 0.171875 -0.90625l0.453125 0.296875l-1.375 0l0 -1.921875l1.921875 0l0 1.359375q0 0.75 -0.25 1.40625q-0.25 0.671875 -0.875 1.296875zm16.335144 -3.265625q-0.609375 0.578125 -1.578125 0.921875q-0.953125 0.328125 -1.96875 0.328125q-1.453125 0 -2.515625 -0.578125q-1.046875 -0.578125 -1.625 -1.65625q-0.5625 -1.09375 -0.5625 -2.609375q0 -1.453125 0.5625 -2.546875q0.5625 -1.109375 1.5625 -1.71875q1.0 -0.625 2.296875 -0.625q1.25 0 2.140625 0.5625q0.90625 0.546875 1.375 1.578125q0.484375 1.015625 0.484375 2.453125l0 0.28125l-7.09375 0l0 -1.0l6.234375 0l-0.484375 0.703125q0.03125 -1.640625 -0.65625 -2.515625q-0.671875 -0.890625 -1.984375 -0.890625q-1.359375 0 -2.140625 0.96875q-0.765625 0.953125 -0.765625 2.65625q0 1.828125 0.8125 2.765625q0.8125 0.921875 2.375 0.921875q0.828125 0 1.578125 -0.265625q0.765625 -0.265625 1.453125 -0.828125l0.5 1.09375zm1.0773315 -7.0625l0 -1.203125l6.03125 0l0 1.203125l-6.03125 0zm6.0 6.84375l0 1.28125q-0.328125 0.09375 -0.640625 0.140625q-0.296875 0.046875 -0.671875 0.046875q-1.3125 0 -2.09375 -0.734375q-0.765625 -0.75 -0.765625 -2.25l0 -8.9375l1.515625 -0.53125l0 9.265625q0 0.75 0.21875 1.15625q0.21875 0.40625 0.578125 0.578125q0.375 0.15625 0.84375 0.15625q0.28125 0 0.5 -0.03125q0.234375 -0.046875 0.515625 -0.140625zm5.795349 1.46875q-1.375 0 -2.390625 -0.59375q-1.0 -0.59375 -1.5625 -1.671875q-0.546875 -1.09375 -0.546875 -2.5625q0 -1.453125 0.5625 -2.5625q0.5625 -1.109375 1.578125 -1.71875q1.03125 -0.625 2.4375 -0.625q0.953125 0 1.828125 0.328125q0.890625 0.328125 1.46875 0.90625l-0.5 1.125q-0.6875 -0.546875 -1.359375 -0.8125q-0.65625 -0.28125 -1.359375 -0.28125q-1.421875 0 -2.25 0.953125q-0.828125 0.953125 -0.828125 2.6875q0 1.71875 0.8125 2.65625q0.828125 0.921875 2.265625 0.921875q0.6875 0 1.359375 -0.265625q0.671875 -0.265625 1.359375 -0.8125l0.5 1.125q-0.59375 0.5625 -1.5 0.890625q-0.90625 0.3125 -1.875 0.3125zm5.218384 -2.046875l1.921875 0l0 1.921875l-1.921875 0l0 -1.921875z" fill-rule="nonzero"/><path fill="#c6daec" d="m462.53607 324.30176l101.135376 0l0 1.6799927l-101.135376 0l0 -1.6799927z" fill-rule="nonzero"/><path fill="#c6daec" d="m572.85034 324.30176l112.60889 0l0 1.6799927l-112.60889 0l0 -1.6799927z" fill-rule="nonzero"/><path fill="#c6daec" d="m694.63806 324.30176l123.56018 0l0 1.6799927l-123.56018 0l0 -1.6799927z" fill-rule="nonzero"/><path fill="#000000" fill-opacity="0.0" d="m43.0 176.0l217.00787 0l0 186.01575l-217.00787 0z" fill-rule="evenodd"/><path fill="#ffffff" d="m152.99521 243.85413q7.296875 0 11.65625 3.984375q4.390625 4.0625 4.390625 9.078125q0 5.015625 -3.15625 8.609375q-3.140625 3.59375 -7.5 6.15625l-8.21875 4.5q-3.953125 2.078125 -6.625 4.671875q-2.65625 2.578125 -2.65625 5.28125l0 1.609375q-0.375 0 -0.375 -0.375l24.328125 0q0 0.375 -0.375 0.375l0 -7.046875q0 -2.28125 2.28125 -2.28125q2.296875 0 2.296875 2.28125l0 8.96875q0 2.28125 -2.296875 2.28125l-28.15625 0q-2.28125 0 -2.28125 -2.28125l0 -3.53125q0 -5.765625 6.65625 -10.90625q1.890625 -1.484375 4.03125 -2.609375l8.171875 -4.546875q3.921875 -2.078125 6.609375 -4.84375q2.6875 -2.765625 2.6875 -6.078125q0 -3.3125 -3.0 -5.984375q-3.078125 -2.734375 -8.46875 -2.734375q-3.65625 0 -7.078125 1.375q-3.421875 1.359375 -5.984375 4.03125q-1.640625 1.6875 -2.828125 0.5q-1.1875 -1.1875 -1.1875 -2.046875q0 -0.875 0.78125 -1.65625q6.921875 -6.78125 16.296875 -6.78125z" fill-rule="nonzero"/></g></svg>