<svg version="1.1" viewBox="0.0 0.0 960.0 540.0" fill="none" stroke="none" stroke-linecap="square" stroke-miterlimit="10" xmlns:xlink="http://www.w3.org/1999/xlink" xmlns="http://www.w3.org/2000/svg"><clipPath id="g35ed75ccf_015.0"><path d="m0 0l960.0 0l0 540.0l-960.0 0l0 -540.0z" clip-rule="nonzero"/></clipPath><g clip-path="url(#g35ed75ccf_015.0)"><path fill="#0e293c" d="m0 0l960.0 0l0 540.0l-960.0 0z" fill-rule="evenodd"/><defs><linearGradient id="g35ed75ccf_015.1" gradientUnits="userSpaceOnUse" gradientTransform="matrix(9.369393047970023 0.0 0.0 -9.369393047970023 0.0 0.0)" spreadMethod="pad" x1="93.60664870237459" y1="-55.88895071205235" x2="89.44121783024633" y2="-47.49641166019981"><stop offset="0.0" stop-color="#3393e2"/><stop offset="1.0" stop-color="#00e2c7"/></linearGradient></defs><path fill="url(#g35ed75ccf_015.1)" d="m880.80334 494.99832l-17.984253 -31.146515l17.984253 -31.15271l35.968506 0l17.984253 31.15271l-17.984253 31.146515l-35.968506 0zm5.081787 -8.799774l25.804382 0l12.895325 -22.34674l-12.895325 -22.34671l-25.804382 0l-12.9019165 22.34671l12.9019165 22.34674z" fill-rule="evenodd"/><defs><radialGradient id="g35ed75ccf_015.2" gradientUnits="userSpaceOnUse" gradientTransform="matrix(0.0 12.304843019941654 -12.304843019941654 0.0 0.0 0.0)" spreadMethod="pad" cx="9.57617509159857" cy="-11.99312039498309" fx="9.57617509159857" fy="-11.99312039498309" r="12.304842948913574"><stop offset="0.0" stop-color="#3393e2"/><stop offset="1.0" stop-color="#00e2c7"/></radialGradient></defs><path fill="url(#g35ed75ccf_015.2)" d="m147.57347 68.27428l-28.614182 49.55905l-57.228344 0l-28.614174 -49.55905l28.614174 -49.559055l57.228344 0z" fill-rule="evenodd"/><path fill="#000000" fill-opacity="0.0" d="m-13.000001 119.68414l17.595196 30.677155l35.612762 0l17.595196 -30.677155l-17.595196 -30.677147l-35.612762 0z" fill-rule="evenodd"/><path stroke="#19bbd5" stroke-width="1.0" stroke-linejoin="round" stroke-linecap="butt" d="m-13.000001 119.68414l17.595196 30.677155l35.612762 0l17.595196 -30.677155l-17.595196 -30.677147l-35.612762 0z" fill-rule="evenodd"/><path fill="#184769" d="m52.820568 137.96855l9.195026 16.031494l18.649323 0l9.195023 -16.031494l-9.195023 -16.031487l-18.649323 0z" fill-rule="evenodd"/><path fill="#000000" fill-opacity="0.0" d="m126.86862 16.838633l17.5952 30.677153l35.612762 0l17.595184 -30.677153l-17.595184 -30.67715l-35.612762 0z" fill-rule="evenodd"/><path stroke="#184769" stroke-width="8.0" stroke-miterlimit="8.0" stroke-linecap="butt" d="m126.86862 16.838633l17.5952 30.677153l35.612762 0l17.595184 -30.677153l-17.595184 -30.67715l-35.612762 0z" fill-rule="evenodd"/><path fill="#00e1c6" d="m26.010826 18.6344l7.6956406 13.417316l15.600845 0l7.6956406 -13.417316l-7.6956406 -13.417316l-15.600845 0z" fill-rule="evenodd"/><path fill="#000000" fill-opacity="0.0" d="m920.05963 495.66187l14.162842 24.692932l28.68219 0l14.162842 -24.692932l-14.162842 -24.692902l-28.68219 0z" fill-rule="evenodd"/><path stroke="#184769" stroke-width="1.0" stroke-linejoin="round" stroke-linecap="butt" d="m920.05963 495.66187l14.162842 24.692932l28.68219 0l14.162842 -24.692932l-14.162842 -24.692902l-28.68219 0z" fill-rule="evenodd"/><path fill="#3292e1" d="m894.8882 510.6509l7.397583 12.897614l15.031616 0l7.397583 -12.897614l-7.397583 -12.897614l-15.031616 0z" fill-rule="evenodd"/><path fill="#184769" d="m873.7832 405.57193l14.15387 24.677155l28.700195 0l14.153809 -24.677155l-14.153809 -24.677155l-28.700195 0z" fill-rule="evenodd"/><path fill="#000000" fill-opacity="0.0" d="m920.0597 431.78818l6.196289 10.803162l12.552368 0l6.196228 -10.803162l-6.196228 -10.803131l-12.552368 0z" fill-rule="evenodd"/><path stroke="#00e1c6" stroke-width="2.0" stroke-linejoin="round" stroke-linecap="butt" d="m920.0597 431.78818l6.196289 10.803162l12.552368 0l6.196228 -10.803162l-6.196228 -10.803131l-12.552368 0z" fill-rule="evenodd"/><path fill="#000000" fill-opacity="0.0" d="m324.1942 15.480315l524.0 0l0 121.76378l-524.0 0z" fill-rule="evenodd"/><path fill="#19bbd5" d="m346.3192 95.28031q6.71875 4.40625 14.75 4.40625q8.046875 0 12.484375 -3.5625q4.4375 -3.5625 4.4375 -9.25q0 -3.109375 -1.921875 -5.4375q-1.921875 -2.3125 -4.796875 -3.59375q-3.203125 -1.4375 -12.40625 -3.953125q-9.1875 -2.53125 -12.671875 -4.25q-3.484375 -1.71875 -5.453125 -4.359375q-1.953125 -2.640625 -1.953125 -6.078125q0 -6.71875 4.40625 -10.71875q4.40625 -4.0 14.0 -4.0q9.515625 0 17.515625 6.796875q1.28125 1.046875 1.28125 -0.796875l0 -4.0q0 -1.203125 1.203125 -1.203125q1.203125 0 1.203125 1.203125l0 15.203125q0 1.1875 -1.203125 1.1875q-1.203125 0 -1.203125 -1.1875l0 -5.609375q-4.390625 -5.03125 -10.953125 -7.75q-3.53125 -1.453125 -7.84375 -1.453125q-8.15625 0 -12.078125 3.359375q-3.921875 3.359375 -3.921875 8.25q0 3.109375 1.921875 5.4375q1.921875 2.3125 4.796875 3.59375q3.203125 1.453125 12.390625 3.96875q9.203125 2.515625 12.6875 4.234375q3.484375 1.71875 5.4375 4.359375q1.96875 2.640625 1.96875 6.328125q0 7.1875 -5.046875 11.4375q-5.03125 4.234375 -14.953125 4.234375q-9.921875 0 -17.921875 -6.796875q-1.28125 -1.046875 -1.28125 0.796875l0 4.0q0 1.203125 -1.203125 1.203125q-1.203125 0 -1.203125 -1.203125l0 -15.203125q0 -1.1875 1.203125 -1.1875q1.203125 0 1.203125 1.1875l0 6.0q2.15625 2.484375 5.125 4.40625zm40.55307 -34.0l8.0 0q1.203125 0 1.203125 1.203125l0 23.59375q0 6.796875 3.515625 10.203125q3.515625 3.40625 9.59375 3.40625q6.09375 0 11.453125 -5.359375q2.390625 -2.484375 4.234375 -5.453125l0 -24.0q0 -1.1875 -1.203125 -1.1875l-5.59375 0q-1.203125 0 -1.203125 -1.203125q0 -1.203125 1.203125 -1.203125l8.0 0q1.203125 0 1.203125 1.203125l0 35.203125q0 1.1875 1.203125 1.1875l5.59375 0q1.203125 0 1.203125 1.203125q0 1.203125 -1.203125 1.203125l-8.0 0q-1.203125 0 -1.203125 -1.203125l0 -4.484375q0 -0.796875 -0.328125 -1.109375q-0.3125 -0.328125 -0.953125 0.3125q-6.484375 7.28125 -14.078125 7.28125q-7.59375 0 -11.71875 -4.109375q-4.125 -4.125 -4.125 -11.890625l0 -21.203125q0 -1.1875 -1.1875 -1.1875l-5.609375 0q-1.203125 0 -1.203125 -1.203125q0 -1.203125 1.203125 -1.203125zm59.99997 27.59375q1.84375 3.203125 4.078125 5.453125q5.359375 5.359375 12.03125 5.359375q6.6875 0 10.890625 -4.84375q4.203125 -4.84375 4.203125 -13.515625q0 -8.6875 -5.046875 -13.15625q-5.03125 -4.484375 -14.15625 -4.484375l-10.796875 0q-1.203125 0 -1.203125 1.1875l0 24.0zm0 -28.796875q0 1.203125 1.203125 1.203125l10.796875 0q10.15625 0 15.84375 5.203125q5.765625 5.203125 5.765625 14.875q0 9.609375 -4.8125 15.171875q-4.796875 5.546875 -12.796875 5.546875q-4.953125 0 -8.953125 -2.3125q-3.765625 -2.40625 -5.765625 -4.96875q-0.640625 -0.640625 -0.96875 -0.3125q-0.3125 0.3125 -0.3125 1.109375l0 4.484375q0 1.203125 -1.203125 1.203125q-1.1875 0 -1.1875 -1.203125l0 -51.203125q0 -1.1875 -1.203125 -1.1875l-5.609375 0q-1.1875 0 -1.1875 -1.203125q0 -1.203125 1.1875 -1.203125l8.0 0q1.203125 0 1.203125 1.203125l0 13.59375zm40.556824 41.203125q-1.1875 0 -1.1875 -1.203125q0 -1.203125 1.1875 -1.203125l5.609375 0q1.203125 0 1.203125 -1.1875l0 -48.8125q0 -1.1875 -1.203125 -1.1875l-5.609375 0q-1.1875 0 -1.1875 -1.203125q0 -1.203125 1.1875 -1.203125l22.40625 0q12.078125 0 19.4375 8.0q7.359375 8.0 7.359375 20.0q0 12.0 -7.359375 20.0q-7.359375 8.0 -19.4375 8.0l-22.40625 0zm9.203125 -3.59375q0 1.1875 1.203125 1.1875l12.0 0q10.875 0 17.640625 -7.265625q6.765625 -7.28125 6.765625 -18.328125q0 -11.046875 -6.765625 -18.3125q-6.765625 -7.28125 -17.640625 -7.28125l-12.0 0q-1.203125 0 -1.203125 1.1875l0 48.8125zm54.15741 -1.359375q-5.4375 -5.765625 -5.4375 -15.046875q0 -9.28125 5.4375 -15.03125q5.4375 -5.765625 14.15625 -5.765625q8.734375 0 14.171875 5.765625q5.4375 5.75 5.4375 15.03125q0 9.28125 -5.4375 15.046875q-5.4375 5.75 -14.171875 5.75q-8.71875 0 -14.15625 -5.75zm14.15625 -33.453125q-7.75 0 -12.46875 5.046875q-4.71875 5.046875 -4.71875 13.40625q0 8.359375 4.671875 13.359375q4.6875 5.0 12.515625 5.0q7.84375 0 12.515625 -5.0q4.6875 -5.0 4.6875 -13.359375q0 -8.359375 -4.71875 -13.40625q-4.71875 -5.046875 -12.484375 -5.046875zm27.206238 36.0l5.609375 0q1.1875 0 1.1875 -1.1875l0 -32.8125q0 -1.1875 -1.1875 -1.1875l-5.609375 0q-1.203125 0 -1.203125 -1.203125q0 -1.203125 1.203125 -1.203125l8.0 0q1.203125 0 1.203125 1.203125l0 4.484375q0 2.078125 1.28125 0.796875q6.234375 -7.28125 12.3125 -7.28125q4.640625 0 8.078125 2.640625q3.453125 2.640625 4.8125 7.59375q1.59375 -2.796875 3.828125 -5.125q4.96875 -5.109375 10.71875 -5.109375q5.765625 0 9.5625 4.203125q3.8125 4.1875 3.8125 11.796875l0 21.203125q0 1.1875 1.1875 1.1875l5.609375 0q1.203125 0 1.203125 1.203125q0 1.203125 -1.203125 1.203125l-15.203125 0q-1.203125 0 -1.203125 -1.203125q0 -1.203125 1.203125 -1.203125l4.796875 0q1.203125 0 1.203125 -1.1875l0 -21.203125q0 -6.5625 -3.203125 -10.078125q-3.203125 -3.53125 -8.078125 -3.53125q-4.875 0 -9.84375 5.609375q-2.234375 2.5625 -3.84375 5.59375q0.171875 1.765625 0.171875 2.40625l0 21.203125q0 1.1875 1.203125 1.1875l4.796875 0q1.203125 0 1.203125 1.203125q0 1.203125 -1.203125 1.203125l-14.40625 0q-1.203125 0 -1.203125 -1.203125q0 -1.203125 1.203125 -1.203125l4.796875 0q1.203125 0 1.203125 -1.1875l0 -21.203125q0 -6.5625 -3.203125 -10.078125q-3.1875 -3.53125 -8.03125 -3.53125q-4.84375 0 -9.640625 5.453125q-2.078125 2.3125 -3.921875 5.359375l0 24.0q0 1.1875 1.203125 1.1875l4.796875 0q1.203125 0 1.203125 1.203125q0 1.203125 -1.203125 1.203125l-15.203125 0q-1.203125 0 -1.203125 -1.203125q0 -1.203125 1.203125 -1.203125zm106.329285 -17.1875q0 -1.203125 -1.203125 -1.203125l-13.203125 0q-6.96875 0 -10.28125 2.71875q-3.3125 2.71875 -3.3125 6.921875q0 4.203125 3.078125 6.890625q3.078125 2.671875 9.3125 2.671875q7.765625 0 13.6875 -7.84375q1.03125 -1.359375 1.921875 -2.96875l0 -7.1875zm-12.484375 -21.203125q6.71875 0 10.796875 3.796875q4.078125 3.796875 4.078125 9.40625l0 24.0q0 1.1875 1.203125 1.1875l5.59375 0q1.203125 0 1.203125 1.203125q0 1.203125 -1.203125 1.203125l-8.0 0q-1.1875 0 -1.1875 -1.203125l0 -4.484375q0 -0.796875 -0.328125 -1.109375q-0.3125 -0.328125 -0.953125 0.3125q-2.171875 2.71875 -6.015625 5.0q-3.828125 2.28125 -7.984375 2.28125q-7.453125 0 -11.296875 -3.3125q-3.828125 -3.328125 -3.828125 -8.609375q0 -5.28125 4.390625 -8.671875q4.40625 -3.40625 11.609375 -3.40625l13.203125 0q1.203125 0 1.203125 -1.203125l0 -3.1875q0 -4.640625 -3.53125 -7.71875q-3.515625 -3.09375 -8.640625 -3.09375q-5.109375 0 -8.390625 1.40625q-3.28125 1.40625 -4.609375 2.453125q-1.3125 1.03125 -2.0 0.078125q-0.671875 -0.96875 0.203125 -1.609375q5.765625 -4.71875 14.484375 -4.71875zm28.713074 40.796875q-1.203125 0 -1.203125 -1.203125q0 -1.203125 1.203125 -1.203125l5.609375 0q1.1875 0 1.1875 -1.1875l0 -32.8125q0 -1.1875 -1.1875 -1.1875l-5.609375 0q-1.203125 0 -1.203125 -1.203125q0 -1.203125 1.203125 -1.203125l8.0 0q1.203125 0 1.203125 1.203125l0 35.203125q0 1.1875 1.203125 1.1875l5.59375 0q1.203125 0 1.203125 1.203125q0 1.203125 -1.203125 1.203125l-16.0 0zm5.328125 -47.3125q-0.921875 -0.921875 -0.921875 -2.28125q0 -1.359375 0.921875 -2.28125q0.921875 -0.921875 2.28125 -0.921875q1.359375 0 2.265625 0.921875q0.921875 0.921875 0.921875 2.28125q0 1.359375 -0.921875 2.28125q-0.90625 0.90625 -2.265625 0.90625q-1.359375 0 -2.28125 -0.90625zm17.473755 44.90625l5.609375 0q1.1875 0 1.1875 -1.1875l0 -32.8125q0 -1.1875 -1.1875 -1.1875l-5.609375 0q-1.203125 0 -1.203125 -1.203125q0 -1.203125 1.203125 -1.203125l8.0 0q1.203125 0 1.203125 1.203125l0 4.484375q0 0.796875 0.3125 1.125q0.328125 0.3125 0.96875 -0.328125q6.484375 -7.28125 14.078125 -7.28125q7.59375 0 11.71875 4.125q4.125 4.109375 4.125 11.875l0 21.203125q0 1.1875 1.203125 1.1875l5.59375 0q1.203125 0 1.203125 1.203125q0 1.203125 -1.203125 1.203125l-15.203125 0q-1.203125 0 -1.203125 -1.203125q0 -1.203125 1.203125 -1.203125l4.796875 0q1.203125 0 1.203125 -1.1875l0 -21.203125q0 -6.796875 -3.515625 -10.203125q-3.515625 -3.40625 -9.609375 -3.40625q-6.078125 0 -11.515625 5.453125q-2.390625 2.390625 -4.15625 5.359375l0 24.0q0 1.1875 1.203125 1.1875l4.796875 0q1.203125 0 1.203125 1.203125q0 1.203125 -1.203125 1.203125l-15.203125 0q-1.203125 0 -1.203125 -1.203125q0 -1.203125 1.203125 -1.203125zm72.56494 0.8125q6.953125 0 10.671875 -2.4375q3.71875 -2.453125 3.71875 -6.375q0 -5.28125 -7.59375 -7.03125q-3.515625 -0.796875 -8.484375 -1.515625q-4.875 -0.734375 -7.109375 -1.359375q-4.8125 -1.28125 -7.21875 -3.5625q-2.390625 -2.28125 -2.390625 -6.484375q0 -4.203125 4.28125 -7.3125q4.28125 -3.125 11.953125 -3.125q7.6875 0 13.6875 6.0q0.71875 0.796875 1.0 0.328125q0.28125 -0.484375 0.28125 -1.125l0 -3.203125q0 -1.203125 1.203125 -1.203125q1.203125 0 1.203125 1.203125l0 12.796875q0 1.203125 -1.203125 1.203125q-1.203125 0 -1.203125 -1.203125l0 -4.0q-3.4375 -4.5625 -8.796875 -7.125q-2.796875 -1.28125 -6.328125 -1.28125q-6.5625 0 -10.125 2.359375q-3.546875 2.359375 -3.546875 5.96875q0 3.59375 3.078125 5.5625q3.078125 1.953125 9.40625 2.921875q2.71875 0.46875 5.515625 0.875q2.796875 0.40625 5.03125 0.875q4.640625 1.046875 7.203125 3.203125q2.5625 2.15625 2.5625 6.609375q0 4.4375 -4.203125 7.640625q-4.203125 3.1875 -12.59375 3.1875q-6.5625 0 -12.15625 -3.84375q-1.609375 -1.109375 -2.484375 -2.03125q-0.875 -0.921875 -1.125 -0.4375q-0.234375 0.46875 -0.234375 1.109375l0 3.203125q0 1.203125 -1.203125 1.203125q-1.203125 0 -1.203125 -1.203125l0 -12.796875q0 -1.203125 1.203125 -1.203125q1.203125 0 1.203125 1.203125l0 4.0q3.28125 4.640625 8.953125 7.125q2.96875 1.28125 7.046875 1.28125z" fill-rule="nonzero"/><path fill="#000000" fill-opacity="0.0" d="m167.22572 178.83966l689.7638 0l0 84.12598l-689.7638 0z" fill-rule="evenodd"/><path fill="#c6daec" d="m178.4601 226.55966l1.765625 -22.78125l2.203125 0l7.53125 21.015625l-1.1875 0l10.78125 -21.015625l2.171875 0l-1.75 22.78125l-2.4375 0l1.53125 -19.328125l1.03125 0.125l-9.921875 19.203125l-1.859375 0l-6.96875 -19.203125l1.046875 -0.125l-1.5 19.328125l-2.4375 0zm33.32431 0.21875q-2.046875 0 -3.59375 -0.9375q-1.53125 -0.9375 -2.40625 -2.6875q-0.859375 -1.75 -0.859375 -4.140625q0 -2.6875 0.953125 -4.6875q0.96875 -2.0 2.65625 -3.125q1.703125 -1.125 3.953125 -1.125q2.203125 0 3.71875 1.078125q1.53125 1.0625 2.0625 3.015625l-0.40625 0.359375l0.3125 -4.0625l2.53125 0l-1.28125 16.09375l-2.53125 0l0.359375 -4.15625l0.3125 0.546875q-0.375 1.203125 -1.265625 2.078125q-0.875 0.859375 -2.046875 1.3125q-1.15625 0.4375 -2.46875 0.4375zm0.671875 -2.109375q2.359375 0 3.734375 -1.828125q1.375 -1.84375 1.375 -4.984375q0 -2.75 -1.25 -4.1875q-1.234375 -1.453125 -3.578125 -1.453125q-2.4375 0 -3.8125 1.8125q-1.375 1.8125 -1.375 5.015625q0 2.65625 1.28125 4.140625q1.28125 1.484375 3.625 1.484375zm11.450043 8.796875l1.46875 -18.484375q0.1875 -2.25 0.09375 -4.515625l2.4375 0l0.0625 3.328125l-0.34375 0.15625q0.40625 -1.21875 1.265625 -2.078125q0.875 -0.859375 2.046875 -1.328125q1.1875 -0.46875 2.46875 -0.46875q2.046875 0 3.59375 0.96875q1.5625 0.953125 2.421875 2.703125q0.875 1.734375 0.875 4.109375q0 2.6875 -0.96875 4.6875q-0.953125 2.0 -2.65625 3.125q-1.6875 1.109375 -3.96875 1.109375q-2.140625 0 -3.703125 -1.046875q-1.546875 -1.0625 -2.046875 -2.984375l0.40625 -0.46875l-0.859375 11.1875l-2.59375 0zm8.609375 -8.796875q2.390625 0 3.75 -1.8125q1.375 -1.828125 1.375 -5.0q0 -2.6875 -1.28125 -4.15625q-1.28125 -1.484375 -3.5625 -1.484375q-2.390625 0 -3.78125 1.828125q-1.390625 1.828125 -1.390625 5.0q0 2.75 1.25 4.1875q1.265625 1.4375 3.640625 1.4375zm16.762543 2.109375q-1.890625 0 -3.546875 -0.53125q-1.640625 -0.546875 -2.90625 -1.546875l1.015625 -1.921875q1.3125 1.03125 2.625 1.5q1.3125 0.453125 2.84375 0.453125q1.953125 0 2.9375 -0.625q1.0 -0.625 1.0 -1.828125q0 -0.90625 -0.65625 -1.421875q-0.65625 -0.53125 -1.703125 -0.875q-1.03125 -0.359375 -2.203125 -0.671875q-1.15625 -0.328125 -2.203125 -0.828125q-1.046875 -0.5 -1.6875 -1.359375q-0.625 -0.859375 -0.625 -2.28125q0 -1.4375 0.78125 -2.5q0.78125 -1.078125 2.203125 -1.671875q1.421875 -0.59375 3.34375 -0.59375q1.703125 0 3.234375 0.5625q1.53125 0.5625 2.5312347 1.546875l-1.0312347 1.890625q-2.203125 -1.921875 -4.734375 -1.921875q-1.859375 0 -2.875 0.65625q-1.0 0.65625 -1.0 1.9375q0 0.9375 0.65625 1.46875q0.65625 0.515625 1.6875 0.859375q1.046875 0.328125 2.21875 0.65625q1.171875 0.3125 2.203125 0.8125q1.046875 0.5 1.703125 1.34375q0.65625 0.84375 0.65625 2.25q0 2.1875 -1.78125 3.421875q-1.765625 1.21875 -4.6875 1.21875z" fill-rule="nonzero"/><path fill="#c6daec" d="m259.71277 223.26279l3.296875 0l0 3.296875l-3.296875 0l0 -3.296875zm17.211761 3.546875q-3.421875 0 -5.875 -1.390625q-2.4375 -1.390625 -3.734375 -4.0q-1.296875 -2.609375 -1.296875 -6.28125q0 -3.65625 1.296875 -6.25q1.296875 -2.609375 3.703125 -3.984375q2.421875 -1.390625 5.71875 -1.390625q2.375 0 4.375 0.734375q2.0 0.71875 3.46875 2.15625l-1.03125 2.015625q-1.65625 -1.40625 -3.265625 -2.03125q-1.59375 -0.625 -3.546875 -0.625q-3.875 0 -5.9375 2.421875q-2.0625 2.40625 -2.0625 6.953125q0 4.640625 2.109375 7.0625q2.109375 2.40625 6.140625 2.40625q1.671875 0 3.25 -0.296875q1.59375 -0.3125 2.875 -0.828125l-0.640625 1.34375l0 -8.0625l-5.671875 0l0 -2.078125l8.0625 0l0 10.5625q-0.890625 0.484375 -2.1875 0.84375q-1.296875 0.34375 -2.78125 0.53125q-1.484375 0.1875 -2.96875 0.1875zm19.657684 -0.03125q-2.3125 0 -4.03125 -1.015625q-1.703125 -1.03125 -2.65625 -2.890625q-0.9375 -1.875 -0.9375 -4.4375q0 -2.53125 0.9375 -4.421875q0.953125 -1.890625 2.65625 -2.90625q1.71875 -1.03125 4.03125 -1.03125q2.296875 0 4.0 1.03125q1.71875 1.015625 2.65625 2.90625q0.953125 1.890625 0.953125 4.421875q0 2.5625 -0.953125 4.4375q-0.9375 1.859375 -2.65625 2.890625q-1.703125 1.015625 -4.0 1.015625zm0 -2.140625q2.359375 0 3.65625 -1.578125q1.296875 -1.59375 1.296875 -4.625q0 -2.984375 -1.3125 -4.578125q-1.3125 -1.59375 -3.640625 -1.59375q-2.34375 0 -3.671875 1.59375q-1.328125 1.59375 -1.328125 4.578125q0 3.03125 1.296875 4.625q1.296875 1.578125 3.703125 1.578125zm18.304016 2.140625q-2.3125 0 -4.03125 -1.015625q-1.703125 -1.03125 -2.65625 -2.890625q-0.9375 -1.875 -0.9375 -4.4375q0 -2.53125 0.9375 -4.421875q0.953125 -1.890625 2.65625 -2.90625q1.71875 -1.03125 4.03125 -1.03125q2.296875 0 4.0 1.03125q1.71875 1.015625 2.65625 2.90625q0.953125 1.890625 0.953125 4.421875q0 2.5625 -0.953125 4.4375q-0.9375 1.859375 -2.65625 2.890625q-1.703125 1.015625 -4.0 1.015625zm0 -2.140625q2.359375 0 3.65625 -1.578125q1.296875 -1.59375 1.296875 -4.625q0 -2.984375 -1.3125 -4.578125q-1.3125 -1.59375 -3.640625 -1.59375q-2.34375 0 -3.671875 1.59375q-1.328125 1.59375 -1.328125 4.578125q0 3.03125 1.296875 4.625q1.296875 1.578125 3.703125 1.578125zm18.710297 9.0625q-3.640625 0 -6.328125 -1.671875l0.453125 -2.109375q1.5 0.859375 2.84375 1.234375q1.34375 0.390625 3.03125 0.390625q2.3125 0 3.5 -1.234375q1.203125 -1.21875 1.203125 -3.65625l0 -4.34375l0.359375 -0.421875q-0.390625 1.28125 -1.203125 2.234375q-0.8125 0.9375 -2.0 1.453125q-1.1875 0.5 -2.6875 0.5q-2.140625 0 -3.765625 -1.0q-1.609375 -1.015625 -2.53125 -2.796875q-0.90625 -1.796875 -0.90625 -4.203125q0 -2.390625 0.90625 -4.1875q0.921875 -1.796875 2.53125 -2.796875q1.625 -1.015625 3.765625 -1.015625q2.234375 0 3.78125 1.109375q1.5625 1.109375 2.109375 3.09375l-0.390625 -0.359375l0 -3.453125l2.59375 0l0 15.96875q0 3.609375 -1.84375 5.4375q-1.828125 1.828125 -5.421875 1.828125zm-0.3125 -9.796875q2.328125 0 3.65625 -1.546875q1.328125 -1.5625 1.328125 -4.28125q0 -2.71875 -1.328125 -4.265625q-1.328125 -1.546875 -3.65625 -1.546875q-2.375 0 -3.734375 1.546875q-1.359375 1.546875 -1.359375 4.265625q0 2.75 1.359375 4.296875q1.359375 1.53125 3.734375 1.53125zm12.578033 2.65625l0 -23.546875l2.59375 0l0 23.546875l-2.59375 0zm20.803497 -1.921875q-1.0625 1.0 -2.71875 1.578125q-1.640625 0.5625 -3.375 0.5625q-2.484375 0 -4.296875 -0.984375q-1.8125 -1.0 -2.796875 -2.859375q-0.96875 -1.875 -0.96875 -4.46875q0 -2.5 0.953125 -4.390625q0.96875 -1.890625 2.671875 -2.9375q1.71875 -1.0625 3.96875 -1.0625q2.140625 0 3.671875 0.953125q1.546875 0.9375 2.359375 2.703125q0.8125 1.75 0.8125 4.21875l0 0.484375l-12.15625 0l0 -1.703125l10.6875 0l-0.84375 1.1875q0.078125 -2.8125 -1.09375 -4.3125q-1.171875 -1.515625 -3.40625 -1.515625q-2.34375 0 -3.671875 1.65625q-1.328125 1.640625 -1.328125 4.5625q0 3.125 1.390625 4.734375q1.390625 1.59375 4.078125 1.59375q1.421875 0 2.703125 -0.453125q1.296875 -0.46875 2.484375 -1.4375l0.875 1.890625zm3.7674255 -1.375l3.296875 0l0 3.296875l-3.296875 0l0 -3.296875zm14.051117 3.515625q-2.375 0 -4.109375 -1.015625q-1.71875 -1.03125 -2.671875 -2.875q-0.9375 -1.859375 -0.9375 -4.390625q0 -2.5 0.953125 -4.40625q0.96875 -1.90625 2.71875 -2.953125q1.765625 -1.0625 4.171875 -1.0625q1.640625 0 3.15625 0.5625q1.515625 0.5625 2.515625 1.546875l-0.875 1.921875q-1.1875 -0.921875 -2.328125 -1.375q-1.125 -0.46875 -2.34375 -0.46875q-2.421875 0 -3.859375 1.625q-1.421875 1.625 -1.421875 4.609375q0 2.9375 1.40625 4.546875q1.421875 1.59375 3.875 1.59375q1.1875 0 2.328125 -0.453125q1.15625 -0.46875 2.34375 -1.40625l0.875 1.921875q-1.03125 0.96875 -2.59375 1.53125q-1.546875 0.546875 -3.203125 0.546875zm15.746277 0q-2.3125 0 -4.03125 -1.015625q-1.703125 -1.03125 -2.65625 -2.890625q-0.9375 -1.875 -0.9375 -4.4375q0 -2.53125 0.9375 -4.421875q0.953125 -1.890625 2.65625 -2.90625q1.71875 -1.03125 4.03125 -1.03125q2.296875 0 4.0 1.03125q1.71875 1.015625 2.65625 2.90625q0.953125 1.890625 0.953125 4.421875q0 2.5625 -0.953125 4.4375q-0.9375 1.859375 -2.65625 2.890625q-1.703125 1.015625 -4.0 1.015625zm0 -2.140625q2.359375 0 3.65625 -1.578125q1.296875 -1.59375 1.296875 -4.625q0 -2.984375 -1.3125 -4.578125q-1.3125 -1.59375 -3.640625 -1.59375q-2.34375 0 -3.671875 1.59375q-1.328125 1.59375 -1.328125 4.578125q0 3.03125 1.296875 4.625q1.296875 1.578125 3.703125 1.578125zm11.647797 1.921875l0 -11.578125q0 -1.125 -0.046875 -2.25q-0.046875 -1.140625 -0.21875 -2.265625l2.46875 0l0.28125 3.328125l-0.3125 0.21875q0.578125 -1.890625 2.0 -2.90625q1.421875 -1.03125 3.375 -1.03125q2.34375 0 3.625 1.15625q1.296875 1.15625 1.65625 3.515625l-0.765625 -0.40625q0.515625 -1.953125 2.0625 -3.109375q1.546875 -1.15625 3.734375 -1.15625q2.65625 0 4.0 1.59375q1.34375 1.578125 1.34375 4.78125l0 10.109375l-2.59375 0l0 -9.984375q0 -2.234375 -0.8125 -3.265625q-0.796875 -1.046875 -2.515625 -1.046875q-2.015625 0 -3.1875 1.375q-1.171875 1.375 -1.171875 3.734375l0 9.1875l-2.59375 0l0 -9.984375q0 -2.234375 -0.8125 -3.265625q-0.8125 -1.046875 -2.546875 -1.046875q-2.046875 0 -3.21875 1.375q-1.15625 1.375 -1.15625 3.734375l0 9.1875l-2.59375 0z" fill-rule="nonzero"/><path fill="#000000" fill-opacity="0.0" d="m1.4232767 502.41733l57.6063 0l0 37.5748l-57.6063 0z" fill-rule="evenodd"/><path fill="#19bbd5" d="m12.110777 522.29297q0.296875 -0.234375 0.484375 -0.359375q0.1875 -0.125 0.625 -0.328125q0.4375 -0.203125 0.609375 -0.265625q0.1875 -0.0625 0.703125 -0.265625q0.1875 -0.078125 0 -0.15625q-1.640625 -0.671875 -2.1875 -1.296875q-0.53125 -0.625 -0.53125 -1.484375q0 -1.203125 0.984375 -1.953125q0.984375 -0.765625 2.765625 -0.765625q1.796875 0 2.78125 0.765625q0.984375 0.75 0.984375 2.0q-0.015625 1.25 -1.1875 1.984375q-0.59375 0.375 -1.53125 0.75q-0.1875 0.078125 0 0.15625q1.609375 0.609375 2.09375 0.96875q1.109375 0.734375 1.109375 2.0q0 1.265625 -1.1875 2.078125q-1.1875 0.8125 -3.046875 0.8125q-1.859375 0 -3.0625 -0.8125q-1.1875 -0.8125 -1.1875 -2.015625q0 -1.203125 0.78125 -1.8125zm-0.296875 1.765625q0 1.078125 1.03125 1.75q1.046875 0.65625 2.71875 0.65625q1.6875 0 2.71875 -0.65625q1.046875 -0.671875 1.046875 -1.75q0 -0.78125 -0.46875 -1.265625l-0.328125 -0.296875q-0.484375 -0.421875 -1.875 -0.890625l-0.53125 -0.171875q-0.421875 -0.125 -0.546875 -0.171875q-0.125 0.046875 -0.546875 0.171875l-0.546875 0.171875q-0.78125 0.265625 -1.265625 0.515625q-0.484375 0.25 -0.609375 0.375l-0.3125 0.296875q-0.484375 0.484375 -0.484375 1.265625zm0.484375 -5.921875q0 1.21875 1.4375 1.921875q0.6875 0.328125 1.84375 0.6875q1.96875 -0.609375 2.625 -1.203125q0.65625 -0.59375 0.65625 -1.5q0 -0.90625 -0.84375 -1.515625q-0.828125 -0.625 -2.453125 -0.625q-1.609375 0 -2.4375 0.625q-0.828125 0.609375 -0.828125 1.609375z" fill-rule="nonzero"/><path fill="#000000" fill-opacity="0.0" d="m65.020996 400.00787l102.20473 -142.86615" fill-rule="evenodd"/><path stroke="#ffff00" stroke-width="3.0" stroke-linejoin="round" stroke-linecap="butt" d="m65.020996 400.00787l91.73175 -128.2266" fill-rule="evenodd"/><path fill="#ffff00" stroke="#ffff00" stroke-width="3.0" stroke-linecap="butt" d="m160.78287 274.6644l3.8911133 -13.955719l-11.95134 8.189514z" fill-rule="evenodd"/><path fill="#000000" fill-opacity="0.0" d="m182.32283 238.57217l80.0945 0" fill-rule="evenodd"/><path stroke="#ffff00" stroke-width="3.0" stroke-linejoin="round" stroke-linecap="butt" d="m182.32283 238.57217l80.0945 0" fill-rule="evenodd"/><path fill="#000000" fill-opacity="0.0" d="m135.1181 317.33636l689.7638 0l0 234.2362l-689.7638 0z" fill-rule="evenodd"/><path fill="#c6daec" d="m148.1181 342.08762l1.21875 0.953125q-0.859375 0.890625 -1.15625 1.6875q-0.28125 0.78125 -0.28125 1.578125l-0.765625 -0.546875l2.328125 0l0 3.328125l-3.296875 0l0 -2.328125q0 -1.3125 0.421875 -2.453125q0.4375 -1.140625 1.53125 -2.21875zm6.2045135 22.96875l0 -22.78125l2.171875 0l9.25 21.015625l-1.203125 0l9.140625 -21.015625l2.1875 0l0 22.78125l-2.4375 0l0 -19.328125l0.984375 0.125l-8.375 19.203125l-1.859375 0l-8.515625 -19.203125l1.0625 -0.125l0.03125 19.328125l-2.4375 0zm33.027435 0.21875q-2.140625 0 -3.765625 -1.0q-1.609375 -1.015625 -2.5 -2.875q-0.875 -1.875 -0.875 -4.40625q0 -2.53125 0.890625 -4.421875q0.90625 -1.890625 2.515625 -2.9375q1.625 -1.0625 3.734375 -1.0625q2.203125 0 3.734375 1.09375q1.546875 1.09375 2.09375 3.109375l-0.390625 0.25l0 -4.0625l2.5625 0l0 16.09375l-2.5625 0l0 -4.15625l0.390625 0.1875q-0.546875 2.015625 -2.09375 3.109375q-1.53125 1.078125 -3.734375 1.078125zm0.515625 -2.140625q2.359375 0 3.640625 -1.609375q1.28125 -1.625 1.28125 -4.59375q0 -2.984375 -1.296875 -4.578125q-1.296875 -1.59375 -3.625 -1.59375q-2.375 0 -3.703125 1.640625q-1.328125 1.640625 -1.328125 4.59375q0 2.9375 1.328125 4.546875q1.328125 1.59375 3.703125 1.59375zm12.512543 8.828125l0 -18.484375q0 -1.125 -0.046875 -2.25q-0.046875 -1.140625 -0.21875 -2.265625l2.46875 0l0.28125 3.328125l-0.25 0.484375q0.546875 -2.015625 2.078125 -3.109375q1.546875 -1.09375 3.71875 -1.09375q2.109375 0 3.71875 1.0625q1.625 1.046875 2.53125 2.9375q0.921875 1.890625 0.921875 4.421875q0 2.53125 -0.921875 4.40625q-0.90625 1.859375 -2.515625 2.875q-1.59375 1.0 -3.734375 1.0q-2.171875 0 -3.71875 -1.078125q-1.53125 -1.09375 -2.078125 -3.109375l0.359375 -0.3125l0 11.1875l-2.59375 0zm7.546875 -8.828125q2.34375 0 3.65625 -1.59375q1.3125 -1.609375 1.3125 -4.546875q0 -2.953125 -1.3125 -4.59375q-1.3125 -1.640625 -3.65625 -1.640625q-2.40625 0 -3.6875 1.59375q-1.265625 1.59375 -1.265625 4.578125q0 2.96875 1.265625 4.59375q1.28125 1.609375 3.6875 1.609375zm17.090668 2.140625q-4.0625 0 -6.4375 -2.078125l0.875 -1.921875q1.265625 1.0 2.625 1.46875q1.375 0.453125 3.03125 0.453125q1.828125 0 2.765625 -0.625q0.953125 -0.625 0.953125 -1.796875q0 -0.96875 -0.640625 -1.53125q-0.640625 -0.5625 -2.125 -0.90625l-2.71875 -0.640625q-2.015625 -0.453125 -3.125 -1.59375q-1.09375 -1.15625 -1.09375 -2.765625q0 -1.40625 0.765625 -2.46875q0.765625 -1.078125 2.140625 -1.6875q1.390625 -0.609375 3.265625 -0.609375q1.703125 0 3.203125 0.546875q1.5 0.546875 2.53125 1.5625l-0.859375 1.890625q-1.15625 -0.953125 -2.359375 -1.421875q-1.203125 -0.46875 -2.515625 -0.46875q-1.71875 0 -2.671875 0.671875q-0.9375 0.671875 -0.9375 1.828125q0 1.0 0.59375 1.578125q0.59375 0.5625 1.90625 0.890625l2.71875 0.671875q2.265625 0.484375 3.328125 1.59375q1.078125 1.09375 1.078125 2.78125q0 2.09375 -1.703125 3.34375q-1.6875 1.234375 -4.59375 1.234375zm10.397171 -16.0l-1.21875 -0.953125q0.875 -0.921875 1.15625 -1.6875q0.28125 -0.78125 0.28125 -1.578125l0.78125 0.515625l-2.34375 0l0 -3.296875l3.296875 0l0 2.328125q0 1.3125 -0.4375 2.4375q-0.421875 1.125 -1.515625 2.234375zm14.853409 15.78125l0 -16.09375l2.59375 0l0 16.09375l-2.59375 0zm-0.234375 -22.5625l3.171875 0l0 2.953125l-3.171875 0l0 -2.953125zm13.287888 22.78125q-4.0625 0 -6.4375 -2.078125l0.875 -1.921875q1.265625 1.0 2.625 1.46875q1.375 0.453125 3.03125 0.453125q1.828125 0 2.765625 -0.625q0.953125 -0.625 0.953125 -1.796875q0 -0.96875 -0.640625 -1.53125q-0.640625 -0.5625 -2.125 -0.90625l-2.71875 -0.640625q-2.015625 -0.453125 -3.125 -1.59375q-1.09375 -1.15625 -1.09375 -2.765625q0 -1.40625 0.765625 -2.46875q0.765625 -1.078125 2.140625 -1.6875q1.390625 -0.609375 3.265625 -0.609375q1.703125 0 3.203125 0.546875q1.5 0.546875 2.53125 1.5625l-0.859375 1.890625q-1.15625 -0.953125 -2.359375 -1.421875q-1.203125 -0.46875 -2.515625 -0.46875q-1.71875 0 -2.671875 0.671875q-0.9375 0.671875 -0.9375 1.828125q0 1.0 0.59375 1.578125q0.59375 0.5625 1.90625 0.890625l2.71875 0.671875q2.265625 0.484375 3.328125 1.59375q1.078125 1.09375 1.078125 2.78125q0 2.09375 -1.703125 3.34375q-1.6875 1.234375 -4.59375 1.234375zm24.958435 0q-2.140625 0 -3.765625 -1.0q-1.609375 -1.015625 -2.5 -2.875q-0.875 -1.875 -0.875 -4.40625q0 -2.53125 0.890625 -4.421875q0.90625 -1.890625 2.515625 -2.9375q1.625 -1.0625 3.734375 -1.0625q2.203125 0 3.734375 1.09375q1.546875 1.09375 2.09375 3.109375l-0.390625 0.25l0 -4.0625l2.5625 0l0 16.09375l-2.5625 0l0 -4.15625l0.390625 0.1875q-0.546875 2.015625 -2.09375 3.109375q-1.53125 1.078125 -3.734375 1.078125zm0.515625 -2.140625q2.359375 0 3.640625 -1.609375q1.28125 -1.625 1.28125 -4.59375q0 -2.984375 -1.296875 -4.578125q-1.296875 -1.59375 -3.625 -1.59375q-2.375 0 -3.703125 1.640625q-1.328125 1.640625 -1.328125 4.59375q0 2.9375 1.328125 4.546875q1.328125 1.59375 3.703125 1.59375zm26.302063 2.140625q-4.0625 0 -6.4375 -2.078125l0.875 -1.921875q1.265625 1.0 2.625 1.46875q1.375 0.453125 3.03125 0.453125q1.828125 0 2.765625 -0.625q0.953125 -0.625 0.953125 -1.796875q0 -0.96875 -0.640625 -1.53125q-0.640625 -0.5625 -2.125 -0.90625l-2.71875 -0.640625q-2.015625 -0.453125 -3.125 -1.59375q-1.09375 -1.15625 -1.09375 -2.765625q0 -1.40625 0.765625 -2.46875q0.765625 -1.078125 2.140625 -1.6875q1.390625 -0.609375 3.265625 -0.609375q1.703125 0 3.203125 0.546875q1.5 0.546875 2.53125 1.5625l-0.859375 1.890625q-1.15625 -0.953125 -2.359375 -1.421875q-1.203125 -0.46875 -2.515625 -0.46875q-1.71875 0 -2.671875 0.671875q-0.9375 0.671875 -0.9375 1.828125q0 1.0 0.59375 1.578125q0.59375 0.5625 1.90625 0.890625l2.71875 0.671875q2.265625 0.484375 3.328125 1.59375q1.078125 1.09375 1.078125 2.78125q0 2.09375 -1.703125 3.34375q-1.6875 1.234375 -4.59375 1.234375zm16.12204 0q-2.875 0 -4.328125 -1.59375q-1.453125 -1.59375 -1.453125 -4.734375l0 -9.984375l2.578125 0l0 9.921875q0 2.171875 0.890625 3.203125q0.90625 1.015625 2.734375 1.015625q2.140625 0 3.453125 -1.375q1.3125 -1.375 1.3125 -3.6875l0 -9.078125l2.59375 0l0 16.09375l-2.53125 0l0 -3.484375l0.390625 -0.203125q-0.640625 1.921875 -2.171875 2.921875q-1.515625 0.984375 -3.46875 0.984375zm12.77655 -0.21875l0 -23.546875l2.59375 0l0 11.578125l-0.359375 -0.3125q0.546875 -1.984375 2.078125 -3.09375q1.546875 -1.109375 3.71875 -1.109375q2.140625 0 3.734375 1.03125q1.609375 1.015625 2.515625 2.875q0.921875 1.859375 0.921875 4.390625q0 2.53125 -0.921875 4.4375q-0.90625 1.890625 -2.53125 2.9375q-1.609375 1.03125 -3.71875 1.03125q-2.171875 0 -3.71875 -1.078125q-1.53125 -1.09375 -2.078125 -3.109375l0.359375 -0.34375l0 4.3125l-2.59375 0zm7.546875 -1.921875q2.34375 0 3.65625 -1.640625q1.3125 -1.65625 1.3125 -4.625q0 -2.921875 -1.3125 -4.515625q-1.3125 -1.59375 -3.65625 -1.59375q-2.40625 0 -3.6875 1.609375q-1.265625 1.609375 -1.265625 4.5625q0 2.96875 1.265625 4.59375q1.28125 1.609375 3.6875 1.609375zm25.825043 1.921875l-2.5625 0l0 -4.3125l0.390625 0.34375q-0.546875 2.015625 -2.09375 3.109375q-1.53125 1.078125 -3.734375 1.078125q-2.109375 0 -3.734375 -1.03125q-1.609375 -1.046875 -2.515625 -2.9375q-0.890625 -1.90625 -0.890625 -4.4375q0 -2.53125 0.875 -4.390625q0.890625 -1.859375 2.5 -2.875q1.625 -1.03125 3.765625 -1.03125q2.203125 0 3.734375 1.109375q1.546875 1.109375 2.09375 3.09375l-0.421875 0.3125l0 -11.578125l2.59375 0l0 23.546875zm-7.484375 -1.921875q2.328125 0 3.625 -1.609375q1.296875 -1.625 1.296875 -4.59375q0 -2.953125 -1.28125 -4.5625q-1.28125 -1.609375 -3.640625 -1.609375q-2.375 0 -3.703125 1.59375q-1.328125 1.59375 -1.328125 4.515625q0 2.96875 1.328125 4.625q1.328125 1.640625 3.703125 1.640625zm19.168793 2.140625q-2.3125 0 -4.03125 -1.015625q-1.703125 -1.03125 -2.65625 -2.890625q-0.9375 -1.875 -0.9375 -4.4375q0 -2.53125 0.9375 -4.421875q0.953125 -1.890625 2.65625 -2.90625q1.71875 -1.03125 4.03125 -1.03125q2.296875 0 4.0 1.03125q1.71875 1.015625 2.65625 2.90625q0.953125 1.890625 0.953125 4.421875q0 2.5625 -0.953125 4.4375q-0.9375 1.859375 -2.65625 2.890625q-1.703125 1.015625 -4.0 1.015625zm0 -2.140625q2.359375 0 3.65625 -1.578125q1.296875 -1.59375 1.296875 -4.625q0 -2.984375 -1.3125 -4.578125q-1.3125 -1.59375 -3.640625 -1.59375q-2.34375 0 -3.671875 1.59375q-1.328125 1.59375 -1.328125 4.578125q0 3.03125 1.296875 4.625q1.296875 1.578125 3.703125 1.578125zm11.647766 1.921875l0 -11.578125q0 -1.125 -0.046875 -2.25q-0.046875 -1.140625 -0.21875 -2.265625l2.46875 0l0.28125 3.328125l-0.3125 0.21875q0.578125 -1.890625 2.0 -2.90625q1.421875 -1.03125 3.375 -1.03125q2.34375 0 3.625 1.15625q1.296875 1.15625 1.65625 3.515625l-0.765625 -0.40625q0.515625 -1.953125 2.0625 -3.109375q1.546875 -1.15625 3.734375 -1.15625q2.65625 0 4.0 1.59375q1.34375 1.578125 1.34375 4.78125l0 10.109375l-2.59375 0l0 -9.984375q0 -2.234375 -0.8125 -3.265625q-0.796875 -1.046875 -2.515625 -1.046875q-2.015625 0 -3.1875 1.375q-1.171875 1.375 -1.171875 3.734375l0 9.1875l-2.59375 0l0 -9.984375q0 -2.234375 -0.8125 -3.265625q-0.8125 -1.046875 -2.546875 -1.046875q-2.046875 0 -3.21875 1.375q-1.15625 1.375 -1.15625 3.734375l0 9.1875l-2.59375 0zm34.299927 0.21875q-2.140625 0 -3.765625 -1.0q-1.609375 -1.015625 -2.5 -2.875q-0.875 -1.875 -0.875 -4.40625q0 -2.53125 0.890625 -4.421875q0.90625 -1.890625 2.515625 -2.9375q1.625 -1.0625 3.734375 -1.0625q2.203125 0 3.734375 1.09375q1.546875 1.09375 2.09375 3.109375l-0.390625 0.25l0 -4.0625l2.5625 0l0 16.09375l-2.5625 0l0 -4.15625l0.390625 0.1875q-0.546875 2.015625 -2.09375 3.109375q-1.53125 1.078125 -3.734375 1.078125zm0.515625 -2.140625q2.359375 0 3.640625 -1.609375q1.28125 -1.625 1.28125 -4.59375q0 -2.984375 -1.296875 -4.578125q-1.296875 -1.59375 -3.625 -1.59375q-2.375 0 -3.703125 1.640625q-1.328125 1.640625 -1.328125 4.59375q0 2.9375 1.328125 4.546875q1.328125 1.59375 3.703125 1.59375zm12.512543 1.921875l0 -16.09375l2.59375 0l0 16.09375l-2.59375 0zm-0.234375 -22.5625l3.171875 0l0 2.953125l-3.171875 0l0 -2.953125zm7.8503723 22.5625l0 -11.578125q0 -1.125 -0.046875 -2.25q-0.046875 -1.140625 -0.21875 -2.265625l2.46875 0l0.28125 3.328125l-0.3125 0.25q0.671875 -1.953125 2.234375 -2.953125q1.578125 -1.015625 3.625 -1.015625q5.78125 0 5.78125 6.375l0 10.109375l-2.578125 0l0 -9.984375q0 -2.234375 -0.90625 -3.265625q-0.890625 -1.046875 -2.8125 -1.046875q-2.234375 0 -3.578125 1.375q-1.34375 1.375 -1.34375 3.703125l0 9.21875l-2.59375 0zm33.728302 0.21875q-2.3125 0 -4.03125 -1.015625q-1.703125 -1.03125 -2.65625 -2.890625q-0.9375 -1.875 -0.9375 -4.4375q0 -2.53125 0.9375 -4.421875q0.953125 -1.890625 2.65625 -2.90625q1.71875 -1.03125 4.03125 -1.03125q2.296875 0 4.0 1.03125q1.71875 1.015625 2.65625 2.90625q0.953125 1.890625 0.953125 4.421875q0 2.5625 -0.953125 4.4375q-0.9375 1.859375 -2.65625 2.890625q-1.703125 1.015625 -4.0 1.015625zm0 -2.140625q2.359375 0 3.65625 -1.578125q1.296875 -1.59375 1.296875 -4.625q0 -2.984375 -1.3125 -4.578125q-1.3125 -1.59375 -3.640625 -1.59375q-2.34375 0 -3.671875 1.59375q-1.328125 1.59375 -1.328125 4.578125q0 3.03125 1.296875 4.625q1.296875 1.578125 3.703125 1.578125zm9.334534 -12.125l0 -2.046875l9.671875 0l0 2.046875l-9.671875 0zm10.125 -7.140625q-0.90625 -0.25 -1.671875 -0.25q-0.765625 0 -1.390625 0.28125q-0.625 0.265625 -0.984375 0.96875q-0.34375 0.703125 -0.34375 1.953125l0 18.234375l-2.59375 0l0 -18.5625q0 -2.59375 1.28125 -3.859375q1.28125 -1.265625 3.515625 -1.265625q0.546875 0 1.09375 0.078125q0.546875 0.0625 1.09375 0.21875l0 2.203125zm21.682953 21.4375q-3.421875 0 -5.875 -1.390625q-2.4375 -1.390625 -3.734375 -4.0q-1.296875 -2.609375 -1.296875 -6.28125q0 -3.65625 1.296875 -6.25q1.296875 -2.609375 3.703125 -3.984375q2.421875 -1.390625 5.71875 -1.390625q2.375 0 4.375 0.734375q2.0 0.71875 3.46875 2.15625l-1.03125 2.015625q-1.65625 -1.40625 -3.265625 -2.03125q-1.59375 -0.625 -3.546875 -0.625q-3.875 0 -5.9375 2.421875q-2.0625 2.40625 -2.0625 6.953125q0 4.640625 2.109375 7.0625q2.109375 2.40625 6.140625 2.40625q1.671875 0 3.25 -0.296875q1.59375 -0.3125 2.875 -0.828125l-0.640625 1.34375l0 -8.0625l-5.671875 0l0 -2.078125l8.0625 0l0 10.5625q-0.890625 0.484375 -2.1875 0.84375q-1.296875 0.34375 -2.78125 0.53125q-1.484375 0.1875 -2.96875 0.1875zm19.657654 -0.03125q-2.3125 0 -4.03125 -1.015625q-1.703125 -1.03125 -2.65625 -2.890625q-0.9375 -1.875 -0.9375 -4.4375q0 -2.53125 0.9375 -4.421875q0.953125 -1.890625 2.65625 -2.90625q1.71875 -1.03125 4.03125 -1.03125q2.296875 0 4.0 1.03125q1.71875 1.015625 2.65625 2.90625q0.953125 1.890625 0.953125 4.421875q0 2.5625 -0.953125 4.4375q-0.9375 1.859375 -2.65625 2.890625q-1.703125 1.015625 -4.0 1.015625zm0 -2.140625q2.359375 0 3.65625 -1.578125q1.296875 -1.59375 1.296875 -4.625q0 -2.984375 -1.3125 -4.578125q-1.3125 -1.59375 -3.640625 -1.59375q-2.34375 0 -3.671875 1.59375q-1.328125 1.59375 -1.328125 4.578125q0 3.03125 1.296875 4.625q1.296875 1.578125 3.703125 1.578125zm18.304016 2.140625q-2.3125 0 -4.03125 -1.015625q-1.703125 -1.03125 -2.65625 -2.890625q-0.9375 -1.875 -0.9375 -4.4375q0 -2.53125 0.9375 -4.421875q0.953125 -1.890625 2.65625 -2.90625q1.71875 -1.03125 4.03125 -1.03125q2.296875 0 4.0 1.03125q1.71875 1.015625 2.65625 2.90625q0.953125 1.890625 0.953125 4.421875q0 2.5625 -0.953125 4.4375q-0.9375 1.859375 -2.65625 2.890625q-1.703125 1.015625 -4.0 1.015625zm0 -2.140625q2.359375 0 3.65625 -1.578125q1.296875 -1.59375 1.296875 -4.625q0 -2.984375 -1.3125 -4.578125q-1.3125 -1.59375 -3.640625 -1.59375q-2.34375 0 -3.671875 1.59375q-1.328125 1.59375 -1.328125 4.578125q0 3.03125 1.296875 4.625q1.296875 1.578125 3.703125 1.578125zm18.710266 9.0625q-3.640625 0 -6.328125 -1.671875l0.453125 -2.109375q1.5 0.859375 2.84375 1.234375q1.34375 0.390625 3.03125 0.390625q2.3125 0 3.5 -1.234375q1.203125 -1.21875 1.203125 -3.65625l0 -4.34375l0.359375 -0.421875q-0.390625 1.28125 -1.203125 2.234375q-0.8125 0.9375 -2.0 1.453125q-1.1875 0.5 -2.6875 0.5q-2.140625 0 -3.765625 -1.0q-1.609375 -1.015625 -2.53125 -2.796875q-0.90625 -1.796875 -0.90625 -4.203125q0 -2.390625 0.90625 -4.1875q0.921875 -1.796875 2.53125 -2.796875q1.625 -1.015625 3.765625 -1.015625q2.234375 0 3.78125 1.109375q1.5625 1.109375 2.109375 3.09375l-0.390625 -0.359375l0 -3.453125l2.59375 0l0 15.96875q0 3.609375 -1.84375 5.4375q-1.828125 1.828125 -5.421875 1.828125zm-0.3125 -9.796875q2.328125 0 3.65625 -1.546875q1.328125 -1.5625 1.328125 -4.28125q0 -2.71875 -1.328125 -4.265625q-1.328125 -1.546875 -3.65625 -1.546875q-2.375 0 -3.734375 1.546875q-1.359375 1.546875 -1.359375 4.265625q0 2.75 1.359375 4.296875q1.359375 1.53125 3.734375 1.53125zm12.578064 2.65625l0 -23.546875l2.59375 0l0 23.546875l-2.59375 0zm20.803467 -1.921875q-1.0625 1.0 -2.71875 1.578125q-1.640625 0.5625 -3.375 0.5625q-2.484375 0 -4.296875 -0.984375q-1.8125 -1.0 -2.796875 -2.859375q-0.96875 -1.875 -0.96875 -4.46875q0 -2.5 0.953125 -4.390625q0.96875 -1.890625 2.671875 -2.9375q1.71875 -1.0625 3.96875 -1.0625q2.140625 0 3.671875 0.953125q1.546875 0.9375 2.359375 2.703125q0.8125 1.75 0.8125 4.21875l0 0.484375l-12.15625 0l0 -1.703125l10.6875 0l-0.84375 1.1875q0.078125 -2.8125 -1.09375 -4.3125q-1.171875 -1.515625 -3.40625 -1.515625q-2.34375 0 -3.671875 1.65625q-1.328125 1.640625 -1.328125 4.5625q0 3.125 1.390625 4.734375q1.390625 1.59375 4.078125 1.59375q1.421875 0 2.703125 -0.453125q1.296875 -0.46875 2.484375 -1.4375l0.875 1.890625zm3.767395 -1.375l3.296875 0l0 3.296875l-3.296875 0l0 -3.296875zm14.051147 3.515625q-2.375 0 -4.109375 -1.015625q-1.71875 -1.03125 -2.671875 -2.875q-0.9375 -1.859375 -0.9375 -4.390625q0 -2.5 0.953125 -4.40625q0.96875 -1.90625 2.71875 -2.953125q1.765625 -1.0625 4.171875 -1.0625q1.640625 0 3.15625 0.5625q1.515625 0.5625 2.515625 1.546875l-0.875 1.921875q-1.1875 -0.921875 -2.328125 -1.375q-1.125 -0.46875 -2.34375 -0.46875q-2.421875 0 -3.859375 1.625q-1.421875 1.625 -1.421875 4.609375q0 2.9375 1.40625 4.546875q1.421875 1.59375 3.875 1.59375q1.1875 0 2.328125 -0.453125q1.15625 -0.46875 2.34375 -1.40625l0.875 1.921875q-1.03125 0.96875 -2.59375 1.53125q-1.546875 0.546875 -3.203125 0.546875zm15.746277 0q-2.3125 0 -4.03125 -1.015625q-1.703125 -1.03125 -2.65625 -2.890625q-0.9375 -1.875 -0.9375 -4.4375q0 -2.53125 0.9375 -4.421875q0.953125 -1.890625 2.65625 -2.90625q1.71875 -1.03125 4.03125 -1.03125q2.296875 0 4.0 1.03125q1.71875 1.015625 2.65625 2.90625q0.953125 1.890625 0.953125 4.421875q0 2.5625 -0.953125 4.4375q-0.9375 1.859375 -2.65625 2.890625q-1.703125 1.015625 -4.0 1.015625zm0 -2.140625q2.359375 0 3.65625 -1.578125q1.296875 -1.59375 1.296875 -4.625q0 -2.984375 -1.3125 -4.578125q-1.3125 -1.59375 -3.640625 -1.59375q-2.34375 0 -3.671875 1.59375q-1.328125 1.59375 -1.328125 4.578125q0 3.03125 1.296875 4.625q1.296875 1.578125 3.703125 1.578125zm11.647766 1.921875l0 -11.578125q0 -1.125 -0.046875 -2.25q-0.046875 -1.140625 -0.21875 -2.265625l2.46875 0l0.28125 3.328125l-0.3125 0.21875q0.578125 -1.890625 2.0 -2.90625q1.421875 -1.03125 3.375 -1.03125q2.34375 0 3.625 1.15625q1.296875 1.15625 1.65625 3.515625l-0.765625 -0.40625q0.515625 -1.953125 2.0625 -3.109375q1.546875 -1.15625 3.734375 -1.15625q2.65625 0 4.0 1.59375q1.34375 1.578125 1.34375 4.78125l0 10.109375l-2.59375 0l0 -9.984375q0 -2.234375 -0.8125 -3.265625q-0.796875 -1.046875 -2.515625 -1.046875q-2.015625 0 -3.1875 1.375q-1.171875 1.375 -1.171875 3.734375l0 9.1875l-2.59375 0l0 -9.984375q0 -2.234375 -0.8125 -3.265625q-0.8125 -1.046875 -2.546875 -1.046875q-2.046875 0 -3.21875 1.375q-1.15625 1.375 -1.15625 3.734375l0 9.1875l-2.59375 0zm27.674927 -3.296875l3.296875 0l0 3.296875l-3.296875 0l0 -3.296875z" fill-rule="nonzero"/><path fill="#c6daec" d="m146.9306 411.05637l0 -22.78125l2.625 0l0 22.78125l-2.625 0zm5.662262 -14.046875l0 -2.046875l10.34375 0l0 2.046875l-10.34375 0zm10.28125 11.75l0 2.203125q-0.546875 0.15625 -1.078125 0.234375q-0.53125 0.078125 -1.171875 0.078125q-2.234375 0 -3.5625 -1.28125q-1.328125 -1.28125 -1.328125 -3.828125l0 -15.328125l2.59375 -0.9375l0 15.90625q0 1.28125 0.359375 1.984375q0.375 0.703125 1.015625 0.984375q0.640625 0.265625 1.4375 0.265625q0.484375 0 0.859375 -0.0625q0.390625 -0.0625 0.875 -0.21875zm11.552048 2.296875l0 -16.09375l2.59375 0l0 16.09375l-2.59375 0zm-0.234375 -22.5625l3.171875 0l0 2.953125l-3.171875 0l0 -2.953125zm13.287888 22.78125q-4.0625 0 -6.4375 -2.078125l0.875 -1.921875q1.265625 1.0 2.625 1.46875q1.375 0.453125 3.03125 0.453125q1.828125 0 2.765625 -0.625q0.953125 -0.625 0.953125 -1.796875q0 -0.96875 -0.640625 -1.53125q-0.640625 -0.5625 -2.125 -0.90625l-2.71875 -0.640625q-2.015625 -0.453125 -3.125 -1.59375q-1.09375 -1.15625 -1.09375 -2.765625q0 -1.40625 0.765625 -2.46875q0.765625 -1.078125 2.140625 -1.6875q1.390625 -0.609375 3.265625 -0.609375q1.703125 0 3.203125 0.546875q1.5 0.546875 2.53125 1.5625l-0.859375 1.890625q-1.15625 -0.953125 -2.359375 -1.421875q-1.203125 -0.46875 -2.515625 -0.46875q-1.71875 0 -2.671875 0.671875q-0.9375 0.671875 -0.9375 1.828125q0 1.0 0.59375 1.578125q0.59375 0.5625 1.90625 0.890625l2.71875 0.671875q2.265625 0.484375 3.328125 1.59375q1.078125 1.09375 1.078125 2.78125q0 2.09375 -1.703125 3.34375q-1.6875 1.234375 -4.59375 1.234375zm25.44281 0q-2.3125 0 -4.03125 -1.015625q-1.703125 -1.03125 -2.65625 -2.890625q-0.9375 -1.875 -0.9375 -4.4375q0 -2.53125 0.9375 -4.421875q0.953125 -1.890625 2.65625 -2.90625q1.71875 -1.03125 4.03125 -1.03125q2.296875 0 4.0 1.03125q1.71875 1.015625 2.65625 2.90625q0.953125 1.890625 0.953125 4.421875q0 2.5625 -0.953125 4.4375q-0.9375 1.859375 -2.65625 2.890625q-1.703125 1.015625 -4.0 1.015625zm0 -2.140625q2.359375 0 3.65625 -1.578125q1.296875 -1.59375 1.296875 -4.625q0 -2.984375 -1.3125 -4.578125q-1.3125 -1.59375 -3.640625 -1.59375q-2.34375 0 -3.671875 1.59375q-1.328125 1.59375 -1.328125 4.578125q0 3.03125 1.296875 4.625q1.296875 1.578125 3.703125 1.578125zm15.76828 1.921875l-5.953125 -16.09375l2.71875 0l4.96875 14.171875l-0.828125 0l5.109375 -14.171875l2.28125 0l5.046875 14.171875l-0.828125 0l5.0625 -14.171875l2.546875 0l-5.953125 16.09375l-2.484375 0l-5.3125 -14.5l1.40625 0l-5.28125 14.5l-2.5 0zm23.49556 0l0 -11.578125q0 -1.125 -0.046875 -2.25q-0.046875 -1.140625 -0.21875 -2.265625l2.46875 0l0.28125 3.328125l-0.3125 0.25q0.671875 -1.953125 2.2343903 -2.953125q1.578125 -1.015625 3.625 -1.015625q5.78125 0 5.78125 6.375l0 10.109375l-2.578125 0l0 -9.984375q0 -2.234375 -0.90625 -3.265625q-0.890625 -1.046875 -2.8125 -1.046875q-2.234375 0 -3.578125 1.375q-1.3437653 1.375 -1.3437653 3.703125l0 9.21875l-2.59375 0zm31.907547 -1.921875q-1.0625 1.0 -2.71875 1.578125q-1.640625 0.5625 -3.375 0.5625q-2.484375 0 -4.296875 -0.984375q-1.8125 -1.0 -2.796875 -2.859375q-0.96875 -1.875 -0.96875 -4.46875q0 -2.5 0.953125 -4.390625q0.96875 -1.890625 2.671875 -2.9375q1.71875 -1.0625 3.96875 -1.0625q2.140625 0 3.671875 0.953125q1.546875 0.9375 2.359375 2.703125q0.8125 1.75 0.8125 4.21875l0 0.484375l-12.15625 0l0 -1.703125l10.6875 0l-0.84375 1.1875q0.078125 -2.8125 -1.09375 -4.3125q-1.171875 -1.515625 -3.40625 -1.515625q-2.34375 0 -3.671875 1.65625q-1.328125 1.640625 -1.328125 4.5625q0 3.125 1.390625 4.734375q1.390625 1.59375 4.078125 1.59375q1.421875 0 2.703125 -0.453125q1.296875 -0.46875 2.484375 -1.4375l0.875 1.890625zm18.392395 1.921875l-2.5625 0l0 -4.3125l0.390625 0.34375q-0.546875 2.015625 -2.09375 3.109375q-1.53125 1.078125 -3.734375 1.078125q-2.109375 0 -3.734375 -1.03125q-1.609375 -1.046875 -2.515625 -2.9375q-0.890625 -1.90625 -0.890625 -4.4375q0 -2.53125 0.875 -4.390625q0.890625 -1.859375 2.5 -2.875q1.625 -1.03125 3.765625 -1.03125q2.203125 0 3.734375 1.109375q1.546875 1.109375 2.09375 3.09375l-0.421875 0.3125l0 -11.578125l2.59375 0l0 23.546875zm-7.484375 -1.921875q2.328125 0 3.625 -1.609375q1.296875 -1.625 1.296875 -4.59375q0 -2.953125 -1.28125 -4.5625q-1.28125 -1.609375 -3.640625 -1.609375q-2.375 0 -3.703125 1.59375q-1.328125 1.59375 -1.328125 4.515625q0 2.96875 1.328125 4.625q1.328125 1.640625 3.703125 1.640625zm20.864563 1.921875l0 -23.546875l2.59375 0l0 11.578125l-0.359375 -0.3125q0.546875 -1.984375 2.078125 -3.09375q1.546875 -1.109375 3.71875 -1.109375q2.140625 0 3.734375 1.03125q1.609375 1.015625 2.515625 2.875q0.921875 1.859375 0.921875 4.390625q0 2.53125 -0.921875 4.4375q-0.90625 1.890625 -2.53125 2.9375q-1.609375 1.03125 -3.71875 1.03125q-2.171875 0 -3.71875 -1.078125q-1.53125 -1.09375 -2.078125 -3.109375l0.359375 -0.34375l0 4.3125l-2.59375 0zm7.546875 -1.921875q2.34375 0 3.65625 -1.640625q1.3125 -1.65625 1.3125 -4.625q0 -2.921875 -1.3125 -4.515625q-1.3125 -1.59375 -3.65625 -1.59375q-2.40625 0 -3.6875 1.609375q-1.265625 1.609375 -1.265625 4.5625q0 2.96875 1.265625 4.59375q1.28125 1.609375 3.6875 1.609375zm10.695557 9.1875l-0.546875 -2.015625q1.46875 -0.359375 2.46875 -0.828125q1.015625 -0.453125 1.703125 -1.1875q0.6875 -0.734375 1.203125 -1.953125l1.015625 -2.375l0.578125 -0.796875l5.890625 -14.203125l2.59375 0l-7.515625 17.5625q-0.875 1.953125 -1.96875 3.125q-1.078125 1.171875 -2.4375 1.765625q-1.359375 0.609375 -2.984375 0.90625zm5.875 -6.4375l-7.21875 -16.921875l2.71875 0l5.8125 14.203125l-1.3125 2.71875zm17.95343 -14.875l0 -2.046875l10.34375 0l0 2.046875l-10.34375 0zm10.28125 11.75l0 2.203125q-0.546875 0.15625 -1.078125 0.234375q-0.53125 0.078125 -1.171875 0.078125q-2.234375 0 -3.5625 -1.28125q-1.328125 -1.28125 -1.328125 -3.828125l0 -15.328125l2.59375 -0.9375l0 15.90625q0 1.28125 0.359375 1.984375q0.375 0.703125 1.015625 0.984375q0.640625 0.265625 1.4375 0.265625q0.484375 0 0.859375 -0.0625q0.390625 -0.0625 0.875 -0.21875zm3.2000122 2.296875l0 -23.546875l2.59375 0l0 10.71875l-0.421875 0.3125q0.671875 -1.953125 2.234375 -2.953125q1.578125 -1.015625 3.625 -1.015625q5.78125 0 5.78125 6.375l0 10.109375l-2.578125 0l0 -9.984375q0 -2.234375 -0.90625 -3.265625q-0.890625 -1.046875 -2.8125 -1.046875q-2.234375 0 -3.578125 1.375q-1.34375 1.375 -1.34375 3.703125l0 9.21875l-2.59375 0zm31.907532 -1.921875q-1.0625 1.0 -2.71875 1.578125q-1.640625 0.5625 -3.375 0.5625q-2.484375 0 -4.296875 -0.984375q-1.8125 -1.0 -2.796875 -2.859375q-0.96875 -1.875 -0.96875 -4.46875q0 -2.5 0.953125 -4.390625q0.96875 -1.890625 2.671875 -2.9375q1.71875 -1.0625 3.96875 -1.0625q2.140625 0 3.671875 0.953125q1.546875 0.9375 2.359375 2.703125q0.8125 1.75 0.8125 4.21875l0 0.484375l-12.15625 0l0 -1.703125l10.6875 0l-0.84375 1.1875q0.078125 -2.8125 -1.09375 -4.3125q-1.171875 -1.515625 -3.40625 -1.515625q-2.34375 0 -3.671875 1.65625q-1.328125 1.640625 -1.328125 4.5625q0 3.125 1.390625 4.734375q1.390625 1.59375 4.078125 1.59375q1.421875 0 2.703125 -0.453125q1.296875 -0.46875 2.484375 -1.4375l0.875 1.890625zm12.57254 8.828125l0 -18.484375q0 -1.125 -0.046875 -2.25q-0.046875 -1.140625 -0.21875 -2.265625l2.46875 0l0.28125 3.328125l-0.25 0.484375q0.546875 -2.015625 2.078125 -3.109375q1.546875 -1.09375 3.71875 -1.09375q2.109375 0 3.71875 1.0625q1.625 1.046875 2.53125 2.9375q0.921875 1.890625 0.921875 4.421875q0 2.53125 -0.921875 4.40625q-0.90625 1.859375 -2.515625 2.875q-1.59375 1.0 -3.734375 1.0q-2.171875 0 -3.71875 -1.078125q-1.53125 -1.09375 -2.078125 -3.109375l0.359375 -0.3125l0 11.1875l-2.59375 0zm7.546875 -8.828125q2.34375 0 3.65625 -1.59375q1.3125 -1.609375 1.3125 -4.546875q0 -2.953125 -1.3125 -4.59375q-1.3125 -1.640625 -3.65625 -1.640625q-2.40625 0 -3.6875 1.59375q-1.265625 1.59375 -1.265625 4.578125q0 2.96875 1.265625 4.59375q1.28125 1.609375 3.6875 1.609375zm17.825043 2.140625q-2.140625 0 -3.765625 -1.0q-1.609375 -1.015625 -2.5 -2.875q-0.875 -1.875 -0.875 -4.40625q0 -2.53125 0.890625 -4.421875q0.90625 -1.890625 2.515625 -2.9375q1.625 -1.0625 3.734375 -1.0625q2.203125 0 3.734375 1.09375q1.546875 1.09375 2.09375 3.109375l-0.390625 0.25l0 -4.0625l2.5625 0l0 16.09375l-2.5625 0l0 -4.15625l0.390625 0.1875q-0.546875 2.015625 -2.09375 3.109375q-1.53125 1.078125 -3.734375 1.078125zm0.515625 -2.140625q2.359375 0 3.640625 -1.609375q1.28125 -1.625 1.28125 -4.59375q0 -2.984375 -1.296875 -4.578125q-1.296875 -1.59375 -3.625 -1.59375q-2.375 0 -3.703125 1.640625q-1.328125 1.640625 -1.328125 4.59375q0 2.9375 1.328125 4.546875q1.328125 1.59375 3.703125 1.59375zm12.512543 1.921875l0 -11.578125q0 -1.125 -0.046875 -2.25q-0.046875 -1.140625 -0.21875 -2.265625l2.46875 0l0.359375 3.96875l-0.359375 -0.09375q0.453125 -2.125 1.9375 -3.1875q1.484375 -1.078125 3.34375 -1.078125q0.421875 0 0.78125 0.046875q0.375 0.046875 0.6875 0.15625l-0.0625 2.359375q-0.734375 -0.25 -1.6875 -0.25q-1.671875 0 -2.6875 0.734375q-1.0 0.734375 -1.46875 1.875q-0.453125 1.125 -0.453125 2.375l0 9.1875l-2.59375 0zm24.451508 -1.921875q-1.0625 1.0 -2.71875 1.578125q-1.640625 0.5625 -3.375 0.5625q-2.484375 0 -4.296875 -0.984375q-1.8125 -1.0 -2.796875 -2.859375q-0.96875 -1.875 -0.96875 -4.46875q0 -2.5 0.953125 -4.390625q0.96875 -1.890625 2.671875 -2.9375q1.71875 -1.0625 3.96875 -1.0625q2.140625 0 3.671875 0.953125q1.546875 0.9375 2.359375 2.703125q0.8125 1.75 0.8125 4.21875l0 0.484375l-12.15625 0l0 -1.703125l10.6875 0l-0.84375 1.1875q0.078125 -2.8125 -1.09375 -4.3125q-1.171875 -1.515625 -3.40625 -1.515625q-2.34375 0 -3.671875 1.65625q-1.328125 1.640625 -1.328125 4.5625q0 3.125 1.390625 4.734375q1.390625 1.59375 4.078125 1.59375q1.421875 0 2.703125 -0.453125q1.296875 -0.46875 2.484375 -1.4375l0.875 1.890625zm4.22052 1.921875l0 -11.578125q0 -1.125 -0.046875 -2.25q-0.046875 -1.140625 -0.21875 -2.265625l2.46875 0l0.28125 3.328125l-0.3125 0.25q0.671875 -1.953125 2.234375 -2.953125q1.578125 -1.015625 3.625 -1.015625q5.78125 0 5.78125 6.375l0 10.109375l-2.578125 0l0 -9.984375q0 -2.234375 -0.90625 -3.265625q-0.890625 -1.046875 -2.8125 -1.046875q-2.234375 0 -3.578125 1.375q-1.34375 1.375 -1.34375 3.703125l0 9.21875l-2.59375 0zm16.438782 -14.046875l0 -2.046875l10.34375 0l0 2.046875l-10.34375 0zm10.28125 11.75l0 2.203125q-0.546875 0.15625 -1.078125 0.234375q-0.53125 0.078125 -1.171875 0.078125q-2.234375 0 -3.5625 -1.28125q-1.328125 -1.28125 -1.328125 -3.828125l0 -15.328125l2.59375 -0.9375l0 15.90625q0 1.28125 0.359375 1.984375q0.375 0.703125 1.015625 0.984375q0.640625 0.265625 1.4375 0.265625q0.484375 0 0.859375 -0.0625q0.390625 -0.0625 0.875 -0.21875zm16.020813 8.125q-1.3125 -2.46875 -2.109375 -4.84375q-0.796875 -2.359375 -1.171875 -4.703125q-0.359375 -2.359375 -0.359375 -4.796875q0 -2.421875 0.375 -4.765625q0.390625 -2.359375 1.171875 -4.71875q0.78125 -2.359375 2.09375 -4.78125l2.1875 0q-1.1875 2.8125 -1.875 5.25q-0.6875 2.421875 -0.984375 4.65625q-0.28125 2.21875 -0.28125 4.359375q0 2.171875 0.28125 4.40625q0.296875 2.21875 0.984375 4.671875q0.6875 2.453125 1.84375 5.265625l-2.15625 0zm15.777893 -5.578125q-3.421875 0 -5.875 -1.390625q-2.4375 -1.390625 -3.734375 -4.0q-1.296875 -2.609375 -1.296875 -6.28125q0 -3.65625 1.296875 -6.25q1.296875 -2.609375 3.703125 -3.984375q2.421875 -1.390625 5.71875 -1.390625q2.375 0 4.375 0.734375q2.0 0.71875 3.46875 2.15625l-1.03125 2.015625q-1.65625 -1.40625 -3.265625 -2.03125q-1.59375 -0.625 -3.546875 -0.625q-3.875 0 -5.9375 2.421875q-2.0625 2.40625 -2.0625 6.953125q0 4.640625 2.109375 7.0625q2.109375 2.40625 6.140625 2.40625q1.671875 0 3.25 -0.296875q1.59375 -0.3125 2.875 -0.828125l-0.640625 1.34375l0 -8.0625l-5.671875 0l0 -2.078125l8.0625 0l0 10.5625q-0.890625 0.484375 -2.1875 0.84375q-1.296875 0.34375 -2.78125 0.53125q-1.484375 0.1875 -2.96875 0.1875zm19.657654 -0.03125q-2.3125 0 -4.03125 -1.015625q-1.703125 -1.03125 -2.65625 -2.890625q-0.9375 -1.875 -0.9375 -4.4375q0 -2.53125 0.9375 -4.421875q0.953125 -1.890625 2.65625 -2.90625q1.71875 -1.03125 4.03125 -1.03125q2.296875 0 4.0 1.03125q1.71875 1.015625 2.65625 2.90625q0.953125 1.890625 0.953125 4.421875q0 2.5625 -0.953125 4.4375q-0.9375 1.859375 -2.65625 2.890625q-1.703125 1.015625 -4.0 1.015625zm0 -2.140625q2.359375 0 3.65625 -1.578125q1.296875 -1.59375 1.296875 -4.625q0 -2.984375 -1.3125 -4.578125q-1.3125 -1.59375 -3.640625 -1.59375q-2.34375 0 -3.671875 1.59375q-1.328125 1.59375 -1.328125 4.578125q0 3.03125 1.296875 4.625q1.296875 1.578125 3.703125 1.578125zm18.304016 2.140625q-2.3125 0 -4.03125 -1.015625q-1.703125 -1.03125 -2.65625 -2.890625q-0.9375 -1.875 -0.9375 -4.4375q0 -2.53125 0.9375 -4.421875q0.953125 -1.890625 2.65625 -2.90625q1.71875 -1.03125 4.03125 -1.03125q2.296875 0 4.0 1.03125q1.71875 1.015625 2.65625 2.90625q0.953125 1.890625 0.953125 4.421875q0 2.5625 -0.953125 4.4375q-0.9375 1.859375 -2.65625 2.890625q-1.703125 1.015625 -4.0 1.015625zm0 -2.140625q2.359375 0 3.65625 -1.578125q1.296875 -1.59375 1.296875 -4.625q0 -2.984375 -1.3125 -4.578125q-1.3125 -1.59375 -3.640625 -1.59375q-2.34375 0 -3.671875 1.59375q-1.328125 1.59375 -1.328125 4.578125q0 3.03125 1.296875 4.625q1.296875 1.578125 3.703125 1.578125zm18.710266 9.0625q-3.640625 0 -6.328125 -1.671875l0.453125 -2.109375q1.5 0.859375 2.84375 1.234375q1.34375 0.390625 3.03125 0.390625q2.3125 0 3.5 -1.234375q1.203125 -1.21875 1.203125 -3.65625l0 -4.34375l0.359375 -0.421875q-0.390625 1.28125 -1.203125 2.234375q-0.8125 0.9375 -2.0 1.453125q-1.1875 0.5 -2.6875 0.5q-2.140625 0 -3.765625 -1.0q-1.609375 -1.015625 -2.53125 -2.796875q-0.90625 -1.796875 -0.90625 -4.203125q0 -2.390625 0.90625 -4.1875q0.921875 -1.796875 2.53125 -2.796875q1.625 -1.015625 3.765625 -1.015625q2.234375 0 3.78125 1.109375q1.5625 1.109375 2.109375 3.09375l-0.390625 -0.359375l0 -3.453125l2.59375 0l0 15.96875q0 3.609375 -1.84375 5.4375q-1.828125 1.828125 -5.421875 1.828125zm-0.3125 -9.796875q2.328125 0 3.65625 -1.546875q1.328125 -1.5625 1.328125 -4.28125q0 -2.71875 -1.328125 -4.265625q-1.328125 -1.546875 -3.65625 -1.546875q-2.375 0 -3.734375 1.546875q-1.359375 1.546875 -1.359375 4.265625q0 2.75 1.359375 4.296875q1.359375 1.53125 3.734375 1.53125zm12.578064 2.65625l0 -23.546875l2.59375 0l0 23.546875l-2.59375 0zm20.803467 -1.921875q-1.0625 1.0 -2.71875 1.578125q-1.640625 0.5625 -3.375 0.5625q-2.484375 0 -4.296875 -0.984375q-1.8125 -1.0 -2.796875 -2.859375q-0.96875 -1.875 -0.96875 -4.46875q0 -2.5 0.953125 -4.390625q0.96875 -1.890625 2.671875 -2.9375q1.71875 -1.0625 3.96875 -1.0625q2.140625 0 3.671875 0.953125q1.546875 0.9375 2.359375 2.703125q0.8125 1.75 0.8125 4.21875l0 0.484375l-12.15625 0l0 -1.703125l10.6875 0l-0.84375 1.1875q0.078125 -2.8125 -1.09375 -4.3125q-1.171875 -1.515625 -3.40625 -1.515625q-2.34375 0 -3.671875 1.65625q-1.328125 1.640625 -1.328125 4.5625q0 3.125 1.390625 4.734375q1.390625 1.59375 4.078125 1.59375q1.421875 0 2.703125 -0.453125q1.296875 -0.46875 2.484375 -1.4375l0.875 1.890625zm3.767395 -1.375l3.296875 0l0 3.296875l-3.296875 0l0 -3.296875zm14.051147 3.515625q-2.375 0 -4.109375 -1.015625q-1.71875 -1.03125 -2.671875 -2.875q-0.9375 -1.859375 -0.9375 -4.390625q0 -2.5 0.953125 -4.40625q0.96875 -1.90625 2.71875 -2.953125q1.765625 -1.0625 4.171875 -1.0625q1.640625 0 3.15625 0.5625q1.515625 0.5625 2.515625 1.546875l-0.875 1.921875q-1.1875 -0.921875 -2.328125 -1.375q-1.125 -0.46875 -2.34375 -0.46875q-2.421875 0 -3.859375 1.625q-1.421875 1.625 -1.421875 4.609375q0 2.9375 1.40625 4.546875q1.421875 1.59375 3.875 1.59375q1.1875 0 2.328125 -0.453125q1.15625 -0.46875 2.34375 -1.40625l0.875 1.921875q-1.03125 0.96875 -2.59375 1.53125q-1.546875 0.546875 -3.203125 0.546875zm15.746277 0q-2.3125 0 -4.03125 -1.015625q-1.703125 -1.03125 -2.65625 -2.890625q-0.9375 -1.875 -0.9375 -4.4375q0 -2.53125 0.9375 -4.421875q0.953125 -1.890625 2.65625 -2.90625q1.71875 -1.03125 4.03125 -1.03125q2.296875 0 4.0 1.03125q1.71875 1.015625 2.65625 2.90625q0.953125 1.890625 0.953125 4.421875q0 2.5625 -0.953125 4.4375q-0.9375 1.859375 -2.65625 2.890625q-1.703125 1.015625 -4.0 1.015625zm0 -2.140625q2.359375 0 3.65625 -1.578125q1.296875 -1.59375 1.296875 -4.625q0 -2.984375 -1.3125 -4.578125q-1.3125 -1.59375 -3.640625 -1.59375q-2.34375 0 -3.671875 1.59375q-1.328125 1.59375 -1.328125 4.578125q0 3.03125 1.296875 4.625q1.296875 1.578125 3.703125 1.578125zm11.647766 1.921875l0 -11.578125q0 -1.125 -0.046875 -2.25q-0.046875 -1.140625 -0.21875 -2.265625l2.46875 0l0.28125 3.328125l-0.3125 0.21875q0.578125 -1.890625 2.0 -2.90625q1.421875 -1.03125 3.375 -1.03125q2.34375 0 3.625 1.15625q1.296875 1.15625 1.65625 3.515625l-0.765625 -0.40625q0.515625 -1.953125 2.0625 -3.109375q1.546875 -1.15625 3.734375 -1.15625q2.65625 0 4.0 1.59375q1.34375 1.578125 1.34375 4.78125l0 10.109375l-2.59375 0l0 -9.984375q0 -2.234375 -0.8125 -3.265625q-0.796875 -1.046875 -2.515625 -1.046875q-2.015625 0 -3.1875 1.375q-1.171875 1.375 -1.171875 3.734375l0 9.1875l-2.59375 0l0 -9.984375q0 -2.234375 -0.8125 -3.265625q-0.8125 -1.046875 -2.546875 -1.046875q-2.046875 0 -3.21875 1.375q-1.15625 1.375 -1.15625 3.734375l0 9.1875l-2.59375 0zm28.799927 5.828125l-2.140625 0q1.171875 -2.8125 1.84375 -5.265625q0.671875 -2.453125 0.953125 -4.671875q0.296875 -2.234375 0.296875 -4.40625q0 -2.140625 -0.296875 -4.359375q-0.28125 -2.234375 -0.953125 -4.65625q-0.671875 -2.4375 -1.84375 -5.25l2.171875 0q1.921875 3.640625 2.765625 7.15625q0.84375 3.5 0.84375 7.109375q0 2.4375 -0.375 4.796875q-0.359375 2.34375 -1.15625 4.703125q-0.796875 2.375 -2.109375 4.84375zm9.019043 -9.125l3.296875 0l0 3.296875l-3.296875 0l0 -3.296875z" fill-rule="nonzero"/><path fill="#c6daec" d="m152.4306 457.05637l0 -20.546875l-7.921875 0l0 -2.234375l18.515625 0l0 2.234375l-7.9375 0l0 20.546875l-2.65625 0zm13.483536 0l0 -23.546875l2.59375 0l0 10.71875l-0.421875 0.3125q0.671875 -1.953125 2.234375 -2.953125q1.578125 -1.015625 3.625 -1.015625q5.78125 0 5.78125 6.375l0 10.109375l-2.578125 0l0 -9.984375q0 -2.234375 -0.90625 -3.265625q-0.890625 -1.046875 -2.8125 -1.046875q-2.234375 0 -3.578125 1.375q-1.34375 1.375 -1.34375 3.703125l0 9.21875l-2.59375 0zm31.907532 -1.921875q-1.0625 1.0 -2.71875 1.578125q-1.640625 0.5625 -3.375 0.5625q-2.484375 0 -4.296875 -0.984375q-1.8125 -1.0 -2.796875 -2.859375q-0.96875 -1.875 -0.96875 -4.46875q0 -2.5 0.953125 -4.390625q0.96875 -1.890625 2.671875 -2.9375q1.71875 -1.0625 3.96875 -1.0625q2.140625 0 3.671875 0.953125q1.546875 0.9375 2.359375 2.703125q0.8125 1.75 0.8125 4.21875l0 0.484375l-12.15625 0l0 -1.703125l10.6875 0l-0.84375 1.1875q0.078125 -2.8125 -1.09375 -4.3125q-1.171875 -1.515625 -3.40625 -1.515625q-2.34375 0 -3.671875 1.65625q-1.328125 1.640625 -1.328125 4.5625q0 3.125 1.390625 4.734375q1.390625 1.59375 4.078125 1.59375q1.421875 0 2.703125 -0.453125q1.296875 -0.46875 2.484375 -1.4375l0.875 1.890625zm18.010056 2.140625q-4.0625 0 -6.4375 -2.078125l0.875 -1.921875q1.265625 1.0 2.625 1.46875q1.375 0.453125 3.03125 0.453125q1.828125 0 2.765625 -0.625q0.953125 -0.625 0.953125 -1.796875q0 -0.96875 -0.640625 -1.53125q-0.640625 -0.5625 -2.125 -0.90625l-2.71875 -0.640625q-2.015625 -0.453125 -3.125 -1.59375q-1.09375 -1.15625 -1.09375 -2.765625q0 -1.40625 0.765625 -2.46875q0.765625 -1.078125 2.140625 -1.6875q1.390625 -0.609375 3.265625 -0.609375q1.703125 0 3.203125 0.546875q1.5 0.546875 2.53125 1.5625l-0.859375 1.890625q-1.15625 -0.953125 -2.359375 -1.421875q-1.203125 -0.46875 -2.515625 -0.46875q-1.71875 0 -2.671875 0.671875q-0.9375 0.671875 -0.9375 1.828125q0 1.0 0.59375 1.578125q0.59375 0.5625 1.90625 0.890625l2.71875 0.671875q2.265625 0.484375 3.328125 1.59375q1.078125 1.09375 1.078125 2.78125q0 2.09375 -1.703125 3.34375q-1.6875 1.234375 -4.59375 1.234375zm23.62204 -2.140625q-1.0625 1.0 -2.71875 1.578125q-1.640625 0.5625 -3.375 0.5625q-2.484375 0 -4.296875 -0.984375q-1.8125 -1.0 -2.796875 -2.859375q-0.96875 -1.875 -0.96875 -4.46875q0 -2.5 0.953125 -4.390625q0.96875 -1.890625 2.671875 -2.9375q1.71875 -1.0625 3.96875 -1.0625q2.140625 0 3.671875 0.953125q1.546875 0.9375 2.359375 2.703125q0.8125 1.75 0.8125 4.21875l0 0.484375l-12.15625 0l0 -1.703125l10.6875 0l-0.84375 1.1875q0.078125 -2.8125 -1.09375 -4.3125q-1.171875 -1.515625 -3.40625 -1.515625q-2.34375 0 -3.671875 1.65625q-1.328125 1.640625 -1.328125 4.5625q0 3.125 1.390625 4.734375q1.390625 1.59375 4.078125 1.59375q1.421875 0 2.703125 -0.453125q1.296875 -0.46875 2.484375 -1.4375l0.875 1.890625zm4.2205353 1.921875l0 -11.578125q0 -1.125 -0.046875 -2.25q-0.046875 -1.140625 -0.21875 -2.265625l2.46875 0l0.359375 3.96875l-0.359375 -0.09375q0.453125 -2.125 1.9375 -3.1875q1.484375 -1.078125 3.34375 -1.078125q0.421875 0 0.78125 0.046875q0.375 0.046875 0.6875 0.15625l-0.0625 2.359375q-0.734375 -0.25 -1.6875 -0.25q-1.671875 0 -2.6875 0.734375q-1.0 0.734375 -1.46875 1.875q-0.453125 1.125 -0.453125 2.375l0 9.1875l-2.59375 0zm17.278427 0l-6.8437653 -16.0625l2.7187653 0l5.8125 14.171875l-0.765625 0l5.890625 -14.171875l2.59375 0l-6.9375 16.0625l-2.46875 0zm25.253143 -1.921875q-1.0625 1.0 -2.71875 1.578125q-1.640625 0.5625 -3.375 0.5625q-2.484375 0 -4.296875 -0.984375q-1.8125 -1.0 -2.796875 -2.859375q-0.96875 -1.875 -0.96875 -4.46875q0 -2.5 0.953125 -4.390625q0.96875 -1.890625 2.671875 -2.9375q1.71875 -1.0625 3.96875 -1.0625q2.140625 0 3.671875 0.953125q1.546875 0.9375 2.359375 2.703125q0.8125 1.75 0.8125 4.21875l0 0.484375l-12.15625 0l0 -1.703125l10.6875 0l-0.84375 1.1875q0.078125 -2.8125 -1.09375 -4.3125q-1.171875 -1.515625 -3.40625 -1.515625q-2.34375 0 -3.671875 1.65625q-1.328125 1.640625 -1.328125 4.5625q0 3.125 1.390625 4.734375q1.390625 1.59375 4.078125 1.59375q1.421875 0 2.703125 -0.453125q1.296875 -0.46875 2.484375 -1.4375l0.875 1.890625zm4.2205505 1.921875l0 -11.578125q0 -1.125 -0.046875 -2.25q-0.046875 -1.140625 -0.21875 -2.265625l2.46875 0l0.359375 3.96875l-0.359375 -0.09375q0.453125 -2.125 1.9375 -3.1875q1.484375 -1.078125 3.34375 -1.078125q0.421875 0 0.78125 0.046875q0.375 0.046875 0.6875 0.15625l-0.0625 2.359375q-0.734375 -0.25 -1.6875 -0.25q-1.671875 0 -2.6875 0.734375q-1.0 0.734375 -1.46875 1.875q-0.453125 1.125 -0.453125 2.375l0 9.1875l-2.59375 0zm10.29303 1.765625l-2.359375 0l8.21875 -25.734375l2.40625 0l-8.265625 25.734375zm13.347504 -1.765625l-5.953125 -16.09375l2.71875 0l4.96875 14.171875l-0.828125 0l5.109375 -14.171875l2.28125 0l5.046875 14.171875l-0.828125 0l5.0625 -14.171875l2.546875 0l-5.953125 16.09375l-2.484375 0l-5.3125 -14.5l1.40625 0l-5.28125 14.5l-2.5 0zm36.49106 -1.921875q-1.0625 1.0 -2.71875 1.578125q-1.640625 0.5625 -3.375 0.5625q-2.484375 0 -4.296875 -0.984375q-1.8125 -1.0 -2.796875 -2.859375q-0.96875 -1.875 -0.96875 -4.46875q0 -2.5 0.953125 -4.390625q0.96875 -1.890625 2.671875 -2.9375q1.71875 -1.0625 3.96875 -1.0625q2.140625 0 3.671875 0.953125q1.546875 0.9375 2.359375 2.703125q0.8125 1.75 0.8125 4.21875l0 0.484375l-12.15625 0l0 -1.703125l10.6875 0l-0.84375 1.1875q0.078125 -2.8125 -1.09375 -4.3125q-1.171875 -1.515625 -3.40625 -1.515625q-2.34375 0 -3.671875 1.65625q-1.328125 1.640625 -1.328125 4.5625q0 3.125 1.390625 4.734375q1.390625 1.59375 4.078125 1.59375q1.421875 0 2.703125 -0.453125q1.296875 -0.46875 2.484375 -1.4375l0.875 1.890625zm4.2205505 1.921875l0 -23.546875l2.59375 0l0 11.578125l-0.359375 -0.3125q0.546875 -1.984375 2.078125 -3.09375q1.546875 -1.109375 3.71875 -1.109375q2.140625 0 3.734375 1.03125q1.609375 1.015625 2.515625 2.875q0.921875 1.859375 0.921875 4.390625q0 2.53125 -0.921875 4.4375q-0.90625 1.890625 -2.53125 2.9375q-1.609375 1.03125 -3.71875 1.03125q-2.171875 0 -3.71875 -1.078125q-1.53125 -1.09375 -2.078125 -3.109375l0.359375 -0.34375l0 4.3125l-2.59375 0zm7.546875 -1.921875q2.34375 0 3.65625 -1.640625q1.3125 -1.65625 1.3125 -4.625q0 -2.921875 -1.3125 -4.515625q-1.3125 -1.59375 -3.65625 -1.59375q-2.40625 0 -3.6875 1.609375q-1.265625 1.609375 -1.265625 4.5625q0 2.96875 1.265625 4.59375q1.28125 1.609375 3.6875 1.609375zm17.090668 2.140625q-4.0625 0 -6.4375 -2.078125l0.875 -1.921875q1.265625 1.0 2.625 1.46875q1.375 0.453125 3.03125 0.453125q1.828125 0 2.765625 -0.625q0.953125 -0.625 0.953125 -1.796875q0 -0.96875 -0.640625 -1.53125q-0.640625 -0.5625 -2.125 -0.90625l-2.71875 -0.640625q-2.015625 -0.453125 -3.125 -1.59375q-1.09375 -1.15625 -1.09375 -2.765625q0 -1.40625 0.765625 -2.46875q0.765625 -1.078125 2.140625 -1.6875q1.390625 -0.609375 3.265625 -0.609375q1.703125 0 3.203125 0.546875q1.5 0.546875 2.53125 1.5625l-0.859375 1.890625q-1.15625 -0.953125 -2.359375 -1.421875q-1.203125 -0.46875 -2.515625 -0.46875q-1.71875 0 -2.671875 0.671875q-0.9375 0.671875 -0.9375 1.828125q0 1.0 0.59375 1.578125q0.59375 0.5625 1.90625 0.890625l2.71875 0.671875q2.265625 0.484375 3.328125 1.59375q1.078125 1.09375 1.078125 2.78125q0 2.09375 -1.703125 3.34375q-1.6875 1.234375 -4.59375 1.234375zm10.43454 -0.21875l0 -16.09375l2.59375 0l0 16.09375l-2.59375 0zm-0.234375 -22.5625l3.171875 0l0 2.953125l-3.171875 0l0 -2.953125zm5.5691223 8.515625l0 -2.046875l10.34375 0l0 2.046875l-10.34375 0zm10.28125 11.75l0 2.203125q-0.546875 0.15625 -1.078125 0.234375q-0.53125 0.078125 -1.171875 0.078125q-2.234375 0 -3.5625 -1.28125q-1.328125 -1.28125 -1.328125 -3.828125l0 -15.328125l2.59375 -0.9375l0 15.90625q0 1.28125 0.359375 1.984375q0.375 0.703125 1.015625 0.984375q0.640625 0.265625 1.4375 0.265625q0.484375 0 0.859375 -0.0625q0.390625 -0.0625 0.875 -0.21875zm16.387543 0.375q-1.0625 1.0 -2.71875 1.578125q-1.640625 0.5625 -3.375 0.5625q-2.484375 0 -4.296875 -0.984375q-1.8125 -1.0 -2.796875 -2.859375q-0.96875 -1.875 -0.96875 -4.46875q0 -2.5 0.953125 -4.390625q0.96875 -1.890625 2.671875 -2.9375q1.71875 -1.0625 3.96875 -1.0625q2.140625 0 3.671875 0.953125q1.546875 0.9375 2.359375 2.703125q0.8125 1.75 0.8125 4.21875l0 0.484375l-12.15625 0l0 -1.703125l10.6875 0l-0.84375 1.1875q0.078125 -2.8125 -1.09375 -4.3125q-1.171875 -1.515625 -3.40625 -1.515625q-2.34375 0 -3.671875 1.65625q-1.328125 1.640625 -1.328125 4.5625q0 3.125 1.390625 4.734375q1.390625 1.59375 4.078125 1.59375q1.421875 0 2.703125 -0.453125q1.296875 -0.46875 2.484375 -1.4375l0.875 1.890625zm12.57254 1.921875l0 -16.09375l2.59375 0l0 16.09375l-2.59375 0zm-0.234375 -22.5625l3.171875 0l0 2.953125l-3.171875 0l0 -2.953125zm5.5691223 8.515625l0 -2.046875l10.34375 0l0 2.046875l-10.34375 0zm10.28125 11.75l0 2.203125q-0.546875 0.15625 -1.078125 0.234375q-0.53125 0.078125 -1.171875 0.078125q-2.234375 0 -3.5625 -1.28125q-1.328125 -1.28125 -1.328125 -3.828125l0 -15.328125l2.59375 -0.9375l0 15.90625q0 1.28125 0.359375 1.984375q0.375 0.703125 1.015625 0.984375q0.640625 0.265625 1.4375 0.265625q0.484375 0 0.859375 -0.0625q0.390625 -0.0625 0.875 -0.21875zm11.552032 2.296875l0 -11.578125q0 -1.125 -0.046875 -2.25q-0.046875 -1.140625 -0.21875 -2.265625l2.46875 0l0.359375 3.96875l-0.359375 -0.09375q0.453125 -2.125 1.9375 -3.1875q1.484375 -1.078125 3.34375 -1.078125q0.421875 0 0.78125 0.046875q0.375 0.046875 0.6875 0.15625l-0.0625 2.359375q-0.734375 -0.25 -1.6875 -0.25q-1.671875 0 -2.6875 0.734375q-1.0 0.734375 -1.46875 1.875q-0.453125 1.125 -0.453125 2.375l0 9.1875l-2.59375 0zm24.451508 -1.921875q-1.0625 1.0 -2.71875 1.578125q-1.640625 0.5625 -3.375 0.5625q-2.484375 0 -4.296875 -0.984375q-1.8125 -1.0 -2.796875 -2.859375q-0.96875 -1.875 -0.96875 -4.46875q0 -2.5 0.953125 -4.390625q0.96875 -1.890625 2.671875 -2.9375q1.71875 -1.0625 3.96875 -1.0625q2.140625 0 3.671875 0.953125q1.546875 0.9375 2.359375 2.703125q0.8125 1.75 0.8125 4.21875l0 0.484375l-12.15625 0l0 -1.703125l10.6875 0l-0.84375 1.1875q0.078125 -2.8125 -1.09375 -4.3125q-1.171875 -1.515625 -3.40625 -1.515625q-2.34375 0 -3.671875 1.65625q-1.328125 1.640625 -1.328125 4.5625q0 3.125 1.390625 4.734375q1.390625 1.59375 4.078125 1.59375q1.421875 0 2.703125 -0.453125q1.296875 -0.46875 2.484375 -1.4375l0.875 1.890625zm18.392395 1.921875l-2.5625 0l0 -4.3125l0.390625 0.34375q-0.546875 2.015625 -2.09375 3.109375q-1.53125 1.078125 -3.734375 1.078125q-2.109375 0 -3.734375 -1.03125q-1.609375 -1.046875 -2.515625 -2.9375q-0.890625 -1.90625 -0.890625 -4.4375q0 -2.53125 0.875 -4.390625q0.890625 -1.859375 2.5 -2.875q1.625 -1.03125 3.765625 -1.03125q2.203125 0 3.734375 1.109375q1.546875 1.109375 2.09375 3.09375l-0.421875 0.3125l0 -11.578125l2.59375 0l0 23.546875zm-7.484375 -1.921875q2.328125 0 3.625 -1.609375q1.296875 -1.625 1.296875 -4.59375q0 -2.953125 -1.28125 -4.5625q-1.28125 -1.609375 -3.640625 -1.609375q-2.375 0 -3.703125 1.59375q-1.328125 1.59375 -1.328125 4.515625q0 2.96875 1.328125 4.625q1.328125 1.640625 3.703125 1.640625zm12.512543 1.921875l0 -16.09375l2.5937805 0l0 16.09375l-2.5937805 0zm-0.234375 -22.5625l3.1719055 0l0 2.953125l-3.1719055 0l0 -2.953125zm7.8503723 22.5625l0 -11.578125q0 -1.125 -0.046875 -2.25q-0.046875 -1.140625 -0.21875 -2.265625l2.46875 0l0.359375 3.96875l-0.359375 -0.09375q0.453125 -2.125 1.9375 -3.1875q1.484375 -1.078125 3.34375 -1.078125q0.421875 0 0.78125 0.046875q0.375 0.046875 0.6875 0.15625l-0.0625 2.359375q-0.734375 -0.25 -1.6875 -0.25q-1.671875 0 -2.6875 0.734375q-1.0 0.734375 -1.46875 1.875q-0.453125 1.125 -0.453125 2.375l0 9.1875l-2.59375 0zm24.451538 -1.921875q-1.0625 1.0 -2.71875 1.578125q-1.640625 0.5625 -3.375 0.5625q-2.484375 0 -4.296875 -0.984375q-1.8125 -1.0 -2.796875 -2.859375q-0.96875 -1.875 -0.96875 -4.46875q0 -2.5 0.953125 -4.390625q0.96875 -1.890625 2.671875 -2.9375q1.71875 -1.0625 3.96875 -1.0625q2.140625 0 3.671875 0.953125q1.546875 0.9375 2.359375 2.703125q0.8125 1.75 0.8125 4.21875l0 0.484375l-12.15625 0l0 -1.703125l10.6875 0l-0.84375 1.1875q0.078125 -2.8125 -1.09375 -4.3125q-1.171875 -1.515625 -3.40625 -1.515625q-2.34375 0 -3.671875 1.65625q-1.328125 1.640625 -1.328125 4.5625q0 3.125 1.390625 4.734375q1.390625 1.59375 4.078125 1.59375q1.421875 0 2.703125 -0.453125q1.296875 -0.46875 2.484375 -1.4375l0.875 1.890625zm10.97052 2.140625q-2.375 0 -4.109375 -1.015625q-1.71875 -1.03125 -2.671875 -2.875q-0.9375 -1.859375 -0.9375 -4.390625q0 -2.5 0.953125 -4.40625q0.96875 -1.90625 2.71875 -2.953125q1.765625 -1.0625 4.171875 -1.0625q1.640625 0 3.15625 0.5625q1.515625 0.5625 2.515625 1.546875l-0.875 1.921875q-1.1875 -0.921875 -2.328125 -1.375q-1.125 -0.46875 -2.34375 -0.46875q-2.421875 0 -3.859375 1.625q-1.421875 1.625 -1.421875 4.609375q0 2.9375 1.40625 4.546875q1.421875 1.59375 3.875 1.59375q1.1875 0 2.328125 -0.453125q1.15625 -0.46875 2.34375 -1.40625l0.875 1.921875q-1.03125 0.96875 -2.59375 1.53125q-1.546875 0.546875 -3.203125 0.546875zm6.8407593 -14.265625l0 -2.046875l10.34375 0l0 2.046875l-10.34375 0zm10.28125 11.75l0 2.203125q-0.546875 0.15625 -1.078125 0.234375q-0.53125 0.078125 -1.171875 0.078125q-2.234375 0 -3.5625 -1.28125q-1.328125 -1.28125 -1.328125 -3.828125l0 -15.328125l2.59375 -0.9375l0 15.90625q0 1.28125 0.359375 1.984375q0.375 0.703125 1.015625 0.984375q0.640625 0.265625 1.4375 0.265625q0.484375 0 0.859375 -0.0625q0.390625 -0.0625 0.875 -0.21875zm8.637512 2.515625q-4.0625 0 -6.4375 -2.078125l0.875 -1.921875q1.265625 1.0 2.625 1.46875q1.375 0.453125 3.03125 0.453125q1.828125 0 2.765625 -0.625q0.953125 -0.625 0.953125 -1.796875q0 -0.96875 -0.640625 -1.53125q-0.640625 -0.5625 -2.125 -0.90625l-2.71875 -0.640625q-2.015625 -0.453125 -3.125 -1.59375q-1.09375 -1.15625 -1.09375 -2.765625q0 -1.40625 0.765625 -2.46875q0.765625 -1.078125 2.140625 -1.6875q1.390625 -0.609375 3.265625 -0.609375q1.703125 0 3.203125 0.546875q1.5 0.546875 2.53125 1.5625l-0.859375 1.890625q-1.15625 -0.953125 -2.359375 -1.421875q-1.203125 -0.46875 -2.515625 -0.46875q-1.71875 0 -2.671875 0.671875q-0.9375 0.671875 -0.9375 1.828125q0 1.0 0.59375 1.578125q0.59375 0.5625 1.90625 0.890625l2.71875 0.671875q2.265625 0.484375 3.328125 1.59375q1.078125 1.09375 1.078125 2.78125q0 2.09375 -1.703125 3.34375q-1.6875 1.234375 -4.59375 1.234375zm16.50531 -14.265625l0 -2.046875l10.34375 0l0 2.046875l-10.34375 0zm10.28125 11.75l0 2.203125q-0.546875 0.15625 -1.078125 0.234375q-0.53125 0.078125 -1.171875 0.078125q-2.234375 0 -3.5625 -1.28125q-1.328125 -1.28125 -1.328125 -3.828125l0 -15.328125l2.59375 -0.9375l0 15.90625q0 1.28125 0.359375 1.984375q0.375 0.703125 1.015625 0.984375q0.640625 0.265625 1.4375 0.265625q0.484375 0 0.859375 -0.0625q0.390625 -0.0625 0.875 -0.21875zm9.856262 2.515625q-2.3125 0 -4.03125 -1.015625q-1.703125 -1.03125 -2.65625 -2.890625q-0.9375 -1.875 -0.9375 -4.4375q0 -2.53125 0.9375 -4.421875q0.953125 -1.890625 2.65625 -2.90625q1.71875 -1.03125 4.03125 -1.03125q2.296875 0 4.0 1.03125q1.71875 1.015625 2.65625 2.90625q0.953125 1.890625 0.953125 4.421875q0 2.5625 -0.953125 4.4375q-0.9375 1.859375 -2.65625 2.890625q-1.703125 1.015625 -4.0 1.015625zm0 -2.140625q2.359375 0 3.65625 -1.578125q1.296875 -1.59375 1.296875 -4.625q0 -2.984375 -1.3125 -4.578125q-1.3125 -1.59375 -3.640625 -1.59375q-2.34375 0 -3.671875 1.59375q-1.328125 1.59375 -1.328125 4.578125q0 3.03125 1.296875 4.625q1.296875 1.578125 3.703125 1.578125zm19.999817 1.921875l0 -11.578125q0 -1.125 -0.046875 -2.25q-0.046875 -1.140625 -0.21875 -2.265625l2.46875 0l0.28125 3.328125l-0.3125 0.21875q0.578125 -1.890625 2.0 -2.90625q1.421875 -1.03125 3.375 -1.03125q2.34375 0 3.625 1.15625q1.296875 1.15625 1.65625 3.515625l-0.765625 -0.40625q0.515625 -1.953125 2.0625 -3.109375q1.546875 -1.15625 3.734375 -1.15625q2.65625 0 4.0 1.59375q1.34375 1.578125 1.34375 4.78125l0 10.109375l-2.59375 0l0 -9.984375q0 -2.234375 -0.8125 -3.265625q-0.796875 -1.046875 -2.515625 -1.046875q-2.015625 0 -3.1875 1.375q-1.171875 1.375 -1.171875 3.734375l0 9.1875l-2.59375 0l0 -9.984375q0 -2.234375 -0.8125 -3.265625q-0.8125 -1.046875 -2.546875 -1.046875q-2.046875 0 -3.21875 1.375q-1.15625 1.375 -1.15625 3.734375l0 9.1875l-2.59375 0zm34.299927 0.21875q-2.140625 0 -3.765625 -1.0q-1.609375 -1.015625 -2.5 -2.875q-0.875 -1.875 -0.875 -4.40625q0 -2.53125 0.890625 -4.421875q0.90625 -1.890625 2.515625 -2.9375q1.625 -1.0625 3.734375 -1.0625q2.203125 0 3.734375 1.09375q1.546875 1.09375 2.09375 3.109375l-0.390625 0.25l0 -4.0625l2.5625 0l0 16.09375l-2.5625 0l0 -4.15625l0.390625 0.1875q-0.546875 2.015625 -2.09375 3.109375q-1.53125 1.078125 -3.734375 1.078125zm0.515625 -2.140625q2.359375 0 3.640625 -1.609375q1.28125 -1.625 1.28125 -4.59375q0 -2.984375 -1.296875 -4.578125q-1.296875 -1.59375 -3.625 -1.59375q-2.375 0 -3.703125 1.640625q-1.328125 1.640625 -1.328125 4.59375q0 2.9375 1.328125 4.546875q1.328125 1.59375 3.703125 1.59375zm11.746948 9.1875l-0.546875 -2.015625q1.46875 -0.359375 2.46875 -0.828125q1.015625 -0.453125 1.703125 -1.1875q0.6875 -0.734375 1.203125 -1.953125l1.015625 -2.375l0.578125 -0.796875l5.890625 -14.203125l2.59375 0l-7.515625 17.5625q-0.875 1.953125 -1.96875 3.125q-1.078125 1.171875 -2.4375 1.765625q-1.359375 0.609375 -2.984375 0.90625zm5.875 -6.4375l-7.21875 -16.921875l2.71875 0l5.8125 14.203125l-1.3125 2.71875zm20.234741 -0.828125l0 -11.578125q0 -1.125 -0.046875 -2.25q-0.046875 -1.140625 -0.21875 -2.265625l2.46875 0l0.28125 3.328125l-0.3125 0.25q0.671875 -1.953125 2.234375 -2.953125q1.578125 -1.015625 3.625 -1.015625q5.78125 0 5.78125 6.375l0 10.109375l-2.578125 0l0 -9.984375q0 -2.234375 -0.90625 -3.265625q-0.890625 -1.046875 -2.8125 -1.046875q-2.234375 0 -3.578125 1.375q-1.34375 1.375 -1.34375 3.703125l0 9.21875l-2.59375 0zm25.376282 0.21875q-2.3125 0 -4.03125 -1.015625q-1.703125 -1.03125 -2.65625 -2.890625q-0.9375 -1.875 -0.9375 -4.4375q0 -2.53125 0.9375 -4.421875q0.953125 -1.890625 2.65625 -2.90625q1.71875 -1.03125 4.03125 -1.03125q2.296875 0 4.0 1.03125q1.71875 1.015625 2.65625 2.90625q0.953125 1.890625 0.953125 4.421875q0 2.5625 -0.953125 4.4375q-0.9375 1.859375 -2.65625 2.890625q-1.703125 1.015625 -4.0 1.015625zm0 -2.140625q2.359375 0 3.65625 -1.578125q1.296875 -1.59375 1.296875 -4.625q0 -2.984375 -1.3125 -4.578125q-1.3125 -1.59375 -3.640625 -1.59375q-2.34375 0 -3.671875 1.59375q-1.328125 1.59375 -1.328125 4.578125q0 3.03125 1.296875 4.625q1.296875 1.578125 3.703125 1.578125zm9.334534 -12.125l0 -2.046875l10.34375 0l0 2.046875l-10.34375 0zm10.28125 11.75l0 2.203125q-0.546875 0.15625 -1.078125 0.234375q-0.53125 0.078125 -1.171875 0.078125q-2.234375 0 -3.5625 -1.28125q-1.328125 -1.28125 -1.328125 -3.828125l0 -15.328125l2.59375 -0.9375l0 15.90625q0 1.28125 0.359375 1.984375q0.375 0.703125 1.015625 0.984375q0.640625 0.265625 1.4375 0.265625q0.484375 0 0.859375 -0.0625q0.390625 -0.0625 0.875 -0.21875zm11.552002 2.296875l0 -23.546875l2.59375 0l0 11.578125l-0.359375 -0.3125q0.546875 -1.984375 2.078125 -3.09375q1.546875 -1.109375 3.71875 -1.109375q2.140625 0 3.734375 1.03125q1.609375 1.015625 2.515625 2.875q0.921875 1.859375 0.921875 4.390625q0 2.53125 -0.921875 4.4375q-0.90625 1.890625 -2.53125 2.9375q-1.609375 1.03125 -3.71875 1.03125q-2.171875 0 -3.71875 -1.078125q-1.53125 -1.09375 -2.078125 -3.109375l0.359375 -0.34375l0 4.3125l-2.59375 0zm7.546875 -1.921875q2.34375 0 3.65625 -1.640625q1.3125 -1.65625 1.3125 -4.625q0 -2.921875 -1.3125 -4.515625q-1.3125 -1.59375 -3.65625 -1.59375q-2.40625 0 -3.6875 1.609375q-1.265625 1.609375 -1.265625 4.5625q0 2.96875 1.265625 4.59375q1.28125 1.609375 3.6875 1.609375zm24.840698 0q-1.0625 1.0 -2.71875 1.578125q-1.640625 0.5625 -3.375 0.5625q-2.484375 0 -4.296875 -0.984375q-1.8125 -1.0 -2.796875 -2.859375q-0.96875 -1.875 -0.96875 -4.46875q0 -2.5 0.953125 -4.390625q0.96875 -1.890625 2.671875 -2.9375q1.71875 -1.0625 3.96875 -1.0625q2.140625 0 3.671875 0.953125q1.546875 0.9375 2.359375 2.703125q0.8125 1.75 0.8125 4.21875l0 0.484375l-12.15625 0l0 -1.703125l10.6875 0l-0.84375 1.1875q0.078125 -2.8125 -1.09375 -4.3125q-1.171875 -1.515625 -3.40625 -1.515625q-2.34375 0 -3.671875 1.65625q-1.328125 1.640625 -1.328125 4.5625q0 3.125 1.390625 4.734375q1.390625 1.59375 4.078125 1.59375q1.421875 0 2.703125 -0.453125q1.296875 -0.46875 2.484375 -1.4375l0.875 1.890625z" fill-rule="nonzero"/><path fill="#c6daec" d="m144.33685 481.0095l0 -2.046875l10.34375 0l0 2.046875l-10.34375 0zm10.28125 11.75l0 2.203125q-0.546875 0.15625 -1.078125 0.234375q-0.53125 0.078125 -1.171875 0.078125q-2.234375 0 -3.5625 -1.28125q-1.328125 -1.28125 -1.328125 -3.828125l0 -15.328125l2.59375 -0.9375l0 15.90625q0 1.28125 0.359375 1.984375q0.375 0.703125 1.015625 0.984375q0.640625 0.265625 1.4375 0.265625q0.484375 0 0.859375 -0.0625q0.390625 -0.0625 0.875 -0.21875zm3.2000275 2.296875l0 -23.546875l2.59375 0l0 10.71875l-0.421875 0.3125q0.671875 -1.953125 2.234375 -2.953125q1.578125 -1.015625 3.625 -1.015625q5.78125 0 5.78125 6.375l0 10.109375l-2.578125 0l0 -9.984375q0 -2.234375 -0.90625 -3.265625q-0.890625 -1.046875 -2.8125 -1.046875q-2.234375 0 -3.578125 1.375q-1.34375 1.375 -1.34375 3.703125l0 9.21875l-2.59375 0zm31.907532 -1.921875q-1.0625 1.0 -2.71875 1.578125q-1.640625 0.5625 -3.375 0.5625q-2.484375 0 -4.296875 -0.984375q-1.8125 -1.0 -2.796875 -2.859375q-0.96875 -1.875 -0.96875 -4.46875q0 -2.5 0.953125 -4.390625q0.96875 -1.890625 2.671875 -2.9375q1.71875 -1.0625 3.96875 -1.0625q2.140625 0 3.671875 0.953125q1.546875 0.9375 2.359375 2.703125q0.8125 1.75 0.8125 4.21875l0 0.484375l-12.15625 0l0 -1.703125l10.6875 0l-0.84375 1.1875q0.078125 -2.8125 -1.09375 -4.3125q-1.171875 -1.515625 -3.40625 -1.515625q-2.34375 0 -3.671875 1.65625q-1.328125 1.640625 -1.328125 4.5625q0 3.125 1.390625 4.734375q1.390625 1.59375 4.078125 1.59375q1.421875 0 2.703125 -0.453125q1.296875 -0.46875 2.484375 -1.4375l0.875 1.890625zm18.010056 2.140625q-4.0625 0 -6.4375 -2.078125l0.875 -1.921875q1.265625 1.0 2.625 1.46875q1.375 0.453125 3.03125 0.453125q1.828125 0 2.765625 -0.625q0.953125 -0.625 0.953125 -1.796875q0 -0.96875 -0.640625 -1.53125q-0.640625 -0.5625 -2.125 -0.90625l-2.71875 -0.640625q-2.015625 -0.453125 -3.125 -1.59375q-1.09375 -1.15625 -1.09375 -2.765625q0 -1.40625 0.765625 -2.46875q0.765625 -1.078125 2.140625 -1.6875q1.390625 -0.609375 3.265625 -0.609375q1.703125 0 3.203125 0.546875q1.5 0.546875 2.53125 1.5625l-0.859375 1.890625q-1.15625 -0.953125 -2.359375 -1.421875q-1.203125 -0.46875 -2.515625 -0.46875q-1.71875 0 -2.671875 0.671875q-0.9375 0.671875 -0.9375 1.828125q0 1.0 0.59375 1.578125q0.59375 0.5625 1.90625 0.890625l2.71875 0.671875q2.265625 0.484375 3.328125 1.59375q1.078125 1.09375 1.078125 2.78125q0 2.09375 -1.703125 3.34375q-1.6875 1.234375 -4.59375 1.234375zm16.606415 0q-2.140625 0 -3.765625 -1.0q-1.609375 -1.015625 -2.5 -2.875q-0.875 -1.875 -0.875 -4.40625q0 -2.53125 0.890625 -4.421875q0.90625 -1.890625 2.515625 -2.9375q1.625 -1.0625 3.734375 -1.0625q2.203125 0 3.734375 1.09375q1.546875 1.09375 2.09375 3.109375l-0.390625 0.25l0 -4.0625l2.5625 0l0 16.09375l-2.5625 0l0 -4.15625l0.390625 0.1875q-0.546875 2.015625 -2.09375 3.109375q-1.53125 1.078125 -3.734375 1.078125zm0.515625 -2.140625q2.359375 0 3.640625 -1.609375q1.28125 -1.625 1.28125 -4.59375q0 -2.984375 -1.296875 -4.578125q-1.296875 -1.59375 -3.625 -1.59375q-2.375 0 -3.703125 1.640625q-1.328125 1.640625 -1.328125 4.59375q0 2.9375 1.328125 4.546875q1.328125 1.59375 3.703125 1.59375zm12.512543 1.921875l0 -11.578125q0 -1.125 -0.046875 -2.25q-0.046875 -1.140625 -0.21875 -2.265625l2.46875 0l0.28125 3.328125l-0.3125 0.21875q0.578125 -1.890625 2.0 -2.90625q1.421875 -1.03125 3.375 -1.03125q2.34375 0 3.625 1.15625q1.296875 1.15625 1.65625 3.515625l-0.765625 -0.40625q0.515625 -1.953125 2.0625 -3.109375q1.546875 -1.15625 3.734375 -1.15625q2.65625 0 4.0 1.59375q1.34375 1.578125 1.34375 4.78125l0 10.109375l-2.59375 0l0 -9.984375q0 -2.234375 -0.8125 -3.265625q-0.796875 -1.046875 -2.515625 -1.046875q-2.015625 0 -3.1875 1.375q-1.171875 1.375 -1.171875 3.734375l0 9.1875l-2.59375 0l0 -9.984375q0 -2.234375 -0.8125 -3.265625q-0.8125 -1.046875 -2.546875 -1.046875q-2.046875 0 -3.21875 1.375q-1.15625 1.375 -1.15625 3.734375l0 9.1875l-2.59375 0zm41.31555 -1.921875q-1.0625 1.0 -2.71875 1.578125q-1.640625 0.5625 -3.375 0.5625q-2.484375 0 -4.296875 -0.984375q-1.8125 -1.0 -2.796875 -2.859375q-0.96875 -1.875 -0.96875 -4.46875q0 -2.5 0.953125 -4.390625q0.96875 -1.890625 2.671875 -2.9375q1.71875 -1.0625 3.96875 -1.0625q2.140625 0 3.671875 0.953125q1.546875 0.9375 2.359375 2.703125q0.8125 1.75 0.8125 4.21875l0 0.484375l-12.15625 0l0 -1.703125l10.6875 0l-0.84375 1.1875q0.078125 -2.8125 -1.09375 -4.3125q-1.171875 -1.515625 -3.40625 -1.515625q-2.34375 0 -3.671875 1.65625q-1.328125 1.640625 -1.328125 4.5625q0 3.125 1.390625 4.734375q1.390625 1.59375 4.078125 1.59375q1.421875 0 2.703125 -0.453125q1.296875 -0.46875 2.484375 -1.4375l0.875 1.890625zm18.01007 2.140625q-4.0625 0 -6.4375 -2.078125l0.875 -1.921875q1.265625 1.0 2.625 1.46875q1.375 0.453125 3.03125 0.453125q1.828125 0 2.765625 -0.625q0.953125 -0.625 0.953125 -1.796875q0 -0.96875 -0.640625 -1.53125q-0.640625 -0.5625 -2.125 -0.90625l-2.71875 -0.640625q-2.015625 -0.453125 -3.125 -1.59375q-1.09375 -1.15625 -1.09375 -2.765625q0 -1.40625 0.765625 -2.46875q0.765625 -1.078125 2.140625 -1.6875q1.390625 -0.609375 3.265625 -0.609375q1.703125 0 3.203125 0.546875q1.5 0.546875 2.53125 1.5625l-0.859375 1.890625q-1.15625 -0.953125 -2.359375 -1.421875q-1.203125 -0.46875 -2.515625 -0.46875q-1.71875 0 -2.671875 0.671875q-0.9375 0.671875 -0.9375 1.828125q0 1.0 0.59375 1.578125q0.59375 0.5625 1.90625 0.890625l2.71875 0.671875q2.265625 0.484375 3.328125 1.59375q1.078125 1.09375 1.078125 2.78125q0 2.09375 -1.703125 3.34375q-1.6875 1.234375 -4.59375 1.234375zm23.62204 -2.140625q-1.0625 1.0 -2.71875 1.578125q-1.640625 0.5625 -3.375 0.5625q-2.484375 0 -4.296875 -0.984375q-1.8125 -1.0 -2.796875 -2.859375q-0.96875 -1.875 -0.96875 -4.46875q0 -2.5 0.953125 -4.390625q0.96875 -1.890625 2.671875 -2.9375q1.71875 -1.0625 3.96875 -1.0625q2.140625 0 3.671875 0.953125q1.546875 0.9375 2.359375 2.703125q0.8125 1.75 0.8125 4.21875l0 0.484375l-12.15625 0l0 -1.703125l10.6875 0l-0.84375 1.1875q0.078125 -2.8125 -1.09375 -4.3125q-1.171875 -1.515625 -3.40625 -1.515625q-2.34375 0 -3.671875 1.65625q-1.328125 1.640625 -1.328125 4.5625q0 3.125 1.390625 4.734375q1.390625 1.59375 4.078125 1.59375q1.421875 0 2.703125 -0.453125q1.296875 -0.46875 2.484375 -1.4375l0.875 1.890625zm4.22052 1.921875l0 -11.578125q0 -1.125 -0.046875 -2.25q-0.046875 -1.140625 -0.21875 -2.265625l2.46875 0l0.359375 3.96875l-0.359375 -0.09375q0.453125 -2.125 1.9375 -3.1875q1.484375 -1.078125 3.34375 -1.078125q0.421875 0 0.78125 0.046875q0.375 0.046875 0.6875 0.15625l-0.0625 2.359375q-0.734375 -0.25 -1.6875 -0.25q-1.671875 0 -2.6875 0.734375q-1.0 0.734375 -1.46875 1.875q-0.453125 1.125 -0.453125 2.375l0 9.1875l-2.59375 0zm17.278412 0l-6.84375 -16.0625l2.71875 0l5.8125 14.171875l-0.765625 0l5.890625 -14.171875l2.59375 0l-6.9375 16.0625l-2.46875 0zm25.253174 -1.921875q-1.0625 1.0 -2.71875 1.578125q-1.640625 0.5625 -3.375 0.5625q-2.484375 0 -4.296875 -0.984375q-1.8125 -1.0 -2.796875 -2.859375q-0.96875 -1.875 -0.96875 -4.46875q0 -2.5 0.953125 -4.390625q0.96875 -1.890625 2.671875 -2.9375q1.71875 -1.0625 3.96875 -1.0625q2.140625 0 3.671875 0.953125q1.546875 0.9375 2.359375 2.703125q0.8125 1.75 0.8125 4.21875l0 0.484375l-12.15625 0l0 -1.703125l10.6875 0l-0.84375 1.1875q0.078125 -2.8125 -1.09375 -4.3125q-1.171875 -1.515625 -3.40625 -1.515625q-2.34375 0 -3.671875 1.65625q-1.328125 1.640625 -1.328125 4.5625q0 3.125 1.390625 4.734375q1.390625 1.59375 4.078125 1.59375q1.421875 0 2.703125 -0.453125q1.296875 -0.46875 2.484375 -1.4375l0.875 1.890625zm4.22052 1.921875l0 -11.578125q0 -1.125 -0.046875 -2.25q-0.046875 -1.140625 -0.21875 -2.265625l2.46875 0l0.359375 3.96875l-0.359375 -0.09375q0.453125 -2.125 1.9375 -3.1875q1.484375 -1.078125 3.34375 -1.078125q0.421875 0 0.78125 0.046875q0.375 0.046875 0.6875 0.15625l-0.0625 2.359375q-0.734375 -0.25 -1.6875 -0.25q-1.671875 0 -2.6875 0.734375q-1.0 0.734375 -1.46875 1.875q-0.453125 1.125 -0.453125 2.375l0 9.1875l-2.59375 0zm26.10791 0.21875q-2.140625 0 -3.765625 -1.0q-1.609375 -1.015625 -2.5 -2.875q-0.8749695 -1.875 -0.8749695 -4.40625q0 -2.53125 0.8905945 -4.421875q0.90625 -1.890625 2.515625 -2.9375q1.625 -1.0625 3.734375 -1.0625q2.203125 0 3.734375 1.09375q1.546875 1.09375 2.09375 3.109375l-0.390625 0.25l0 -4.0625l2.5625 0l0 16.09375l-2.5625 0l0 -4.15625l0.390625 0.1875q-0.546875 2.015625 -2.09375 3.109375q-1.53125 1.078125 -3.734375 1.078125zm0.515625 -2.140625q2.359375 0 3.640625 -1.609375q1.28125 -1.625 1.28125 -4.59375q0 -2.984375 -1.296875 -4.578125q-1.296875 -1.59375 -3.625 -1.59375q-2.375 0 -3.703125 1.640625q-1.328125 1.640625 -1.328125 4.59375q0 2.9375 1.328125 4.546875q1.328125 1.59375 3.703125 1.59375zm17.950073 2.140625q-4.0625 0 -6.4375 -2.078125l0.875 -1.921875q1.265625 1.0 2.625 1.46875q1.375 0.453125 3.03125 0.453125q1.828125 0 2.765625 -0.625q0.953125 -0.625 0.953125 -1.796875q0 -0.96875 -0.640625 -1.53125q-0.640625 -0.5625 -2.125 -0.90625l-2.71875 -0.640625q-2.015625 -0.453125 -3.125 -1.59375q-1.09375 -1.15625 -1.09375 -2.765625q0 -1.40625 0.765625 -2.46875q0.765625 -1.078125 2.140625 -1.6875q1.390625 -0.609375 3.265625 -0.609375q1.703125 0 3.203125 0.546875q1.5 0.546875 2.53125 1.5625l-0.859375 1.890625q-1.15625 -0.953125 -2.359375 -1.421875q-1.203125 -0.46875 -2.515625 -0.46875q-1.71875 0 -2.671875 0.671875q-0.9375 0.671875 -0.9375 1.828125q0 1.0 0.59375 1.578125q0.59375 0.5625 1.90625 0.890625l2.71875 0.671875q2.265625 0.484375 3.328125 1.59375q1.078125 1.09375 1.078125 2.78125q0 2.09375 -1.703125 3.34375q-1.6875 1.234375 -4.59375 1.234375zm16.50531 -14.265625l0 -2.046875l10.34375 0l0 2.046875l-10.34375 0zm10.28125 11.75l0 2.203125q-0.546875 0.15625 -1.078125 0.234375q-0.53125 0.078125 -1.171875 0.078125q-2.234375 0 -3.5625 -1.28125q-1.328125 -1.28125 -1.328125 -3.828125l0 -15.328125l2.59375 -0.9375l0 15.90625q0 1.28125 0.359375 1.984375q0.375 0.703125 1.015625 0.984375q0.640625 0.265625 1.4375 0.265625q0.484375 0 0.859375 -0.0625q0.390625 -0.0625 0.875 -0.21875zm3.2000122 2.296875l0 -23.546875l2.59375 0l0 10.71875l-0.421875 0.3125q0.671875 -1.953125 2.234375 -2.953125q1.578125 -1.015625 3.625 -1.015625q5.78125 0 5.78125 6.375l0 10.109375l-2.578125 0l0 -9.984375q0 -2.234375 -0.90625 -3.265625q-0.890625 -1.046875 -2.8125 -1.046875q-2.234375 0 -3.578125 1.375q-1.34375 1.375 -1.34375 3.703125l0 9.21875l-2.59375 0zm31.907532 -1.921875q-1.0625 1.0 -2.71875 1.578125q-1.640625 0.5625 -3.375 0.5625q-2.484375 0 -4.296875 -0.984375q-1.8125 -1.0 -2.796875 -2.859375q-0.96875 -1.875 -0.96875 -4.46875q0 -2.5 0.953125 -4.390625q0.96875 -1.890625 2.671875 -2.9375q1.71875 -1.0625 3.96875 -1.0625q2.140625 0 3.671875 0.953125q1.546875 0.9375 2.359375 2.703125q0.8125 1.75 0.8125 4.21875l0 0.484375l-12.15625 0l0 -1.703125l10.6875 0l-0.84375 1.1875q0.078125 -2.8125 -1.09375 -4.3125q-1.171875 -1.515625 -3.40625 -1.515625q-2.34375 0 -3.671875 1.65625q-1.328125 1.640625 -1.328125 4.5625q0 3.125 1.390625 4.734375q1.390625 1.59375 4.078125 1.59375q1.421875 0 2.703125 -0.453125q1.296875 -0.46875 2.484375 -1.4375l0.875 1.890625zm12.57254 8.828125l0 -18.484375q0 -1.125 -0.046875 -2.25q-0.046875 -1.140625 -0.21875 -2.265625l2.46875 0l0.28125 3.328125l-0.25 0.484375q0.546875 -2.015625 2.078125 -3.109375q1.546875 -1.09375 3.71875 -1.09375q2.109375 0 3.71875 1.0625q1.625 1.046875 2.53125 2.9375q0.921875 1.890625 0.921875 4.421875q0 2.53125 -0.921875 4.40625q-0.90625 1.859375 -2.515625 2.875q-1.59375 1.0 -3.734375 1.0q-2.171875 0 -3.71875 -1.078125q-1.53125 -1.09375 -2.078125 -3.109375l0.359375 -0.3125l0 11.1875l-2.59375 0zm7.546875 -8.828125q2.34375 0 3.65625 -1.59375q1.3125 -1.609375 1.3125 -4.546875q0 -2.953125 -1.3125 -4.59375q-1.3125 -1.640625 -3.65625 -1.640625q-2.40625 0 -3.6875 1.59375q-1.265625 1.59375 -1.265625 4.578125q0 2.96875 1.265625 4.59375q1.28125 1.609375 3.6875 1.609375zm17.825043 2.140625q-2.140625 0 -3.765625 -1.0q-1.609375 -1.015625 -2.5 -2.875q-0.875 -1.875 -0.875 -4.40625q0 -2.53125 0.890625 -4.421875q0.90625 -1.890625 2.515625 -2.9375q1.625 -1.0625 3.734375 -1.0625q2.203125 0 3.734375 1.09375q1.546875 1.09375 2.09375 3.109375l-0.390625 0.25l0 -4.0625l2.5625 0l0 16.09375l-2.5625 0l0 -4.15625l0.390625 0.1875q-0.546875 2.015625 -2.09375 3.109375q-1.53125 1.078125 -3.734375 1.078125zm0.515625 -2.140625q2.359375 0 3.640625 -1.609375q1.28125 -1.625 1.28125 -4.59375q0 -2.984375 -1.296875 -4.578125q-1.296875 -1.59375 -3.625 -1.59375q-2.375 0 -3.703125 1.640625q-1.328125 1.640625 -1.328125 4.59375q0 2.9375 1.328125 4.546875q1.328125 1.59375 3.703125 1.59375zm12.512573 1.921875l0 -11.578125q0 -1.125 -0.046875 -2.25q-0.046875 -1.140625 -0.21875 -2.265625l2.46875 0l0.359375 3.96875l-0.359375 -0.09375q0.453125 -2.125 1.9375 -3.1875q1.484375 -1.078125 3.34375 -1.078125q0.421875 0 0.78125 0.046875q0.375 0.046875 0.6875 0.15625l-0.0625 2.359375q-0.734375 -0.25 -1.6875 -0.25q-1.671875 0 -2.6875 0.734375q-1.0 0.734375 -1.46875 1.875q-0.453125 1.125 -0.453125 2.375l0 9.1875l-2.59375 0zm24.451477 -1.921875q-1.0625 1.0 -2.71875 1.578125q-1.640625 0.5625 -3.375 0.5625q-2.484375 0 -4.296875 -0.984375q-1.8125 -1.0 -2.796875 -2.859375q-0.96875 -1.875 -0.96875 -4.46875q0 -2.5 0.953125 -4.390625q0.96875 -1.890625 2.671875 -2.9375q1.71875 -1.0625 3.96875 -1.0625q2.140625 0 3.671875 0.953125q1.546875 0.9375 2.359375 2.703125q0.8125 1.75 0.8125 4.21875l0 0.484375l-12.15625 0l0 -1.703125l10.6875 0l-0.84375 1.1875q0.078125 -2.8125 -1.09375 -4.3125q-1.171875 -1.515625 -3.40625 -1.515625q-2.34375 0 -3.671875 1.65625q-1.328125 1.640625 -1.328125 4.5625q0 3.125 1.390625 4.734375q1.390625 1.59375 4.078125 1.59375q1.421875 0 2.703125 -0.453125q1.296875 -0.46875 2.484375 -1.4375l0.875 1.890625zm4.22052 1.921875l0 -11.578125q0 -1.125 -0.046875 -2.25q-0.046875 -1.140625 -0.21875 -2.265625l2.46875 0l0.28125 3.328125l-0.3125 0.25q0.671875 -1.953125 2.234375 -2.953125q1.578125 -1.015625 3.625 -1.015625q5.78125 0 5.78125 6.375l0 10.109375l-2.578125 0l0 -9.984375q0 -2.234375 -0.90625 -3.265625q-0.890625 -1.046875 -2.8125 -1.046875q-2.234375 0 -3.578125 1.375q-1.34375 1.375 -1.34375 3.703125l0 9.21875l-2.59375 0zm16.438782 -14.046875l0 -2.046875l10.34375 0l0 2.046875l-10.34375 0zm10.28125 11.75l0 2.203125q-0.546875 0.15625 -1.078125 0.234375q-0.53125 0.078125 -1.171875 0.078125q-2.234375 0 -3.5625 -1.28125q-1.328125 -1.28125 -1.328125 -3.828125l0 -15.328125l2.59375 -0.9375l0 15.90625q0 1.28125 0.359375 1.984375q0.375 0.703125 1.015625 0.984375q0.640625 0.265625 1.4375 0.265625q0.484375 0 0.859375 -0.0625q0.390625 -0.0625 0.875 -0.21875zm25.723938 2.296875l-2.5625 0l0 -4.3125l0.390625 0.34375q-0.546875 2.015625 -2.09375 3.109375q-1.53125 1.078125 -3.734375 1.078125q-2.109375 0 -3.734375 -1.03125q-1.609375 -1.046875 -2.515625 -2.9375q-0.890625 -1.90625 -0.890625 -4.4375q0 -2.53125 0.875 -4.390625q0.890625 -1.859375 2.5 -2.875q1.625 -1.03125 3.765625 -1.03125q2.203125 0 3.734375 1.109375q1.546875 1.109375 2.09375 3.09375l-0.421875 0.3125l0 -11.578125l2.59375 0l0 23.546875zm-7.484375 -1.921875q2.328125 0 3.625 -1.609375q1.296875 -1.625 1.296875 -4.59375q0 -2.953125 -1.28125 -4.5625q-1.28125 -1.609375 -3.640625 -1.609375q-2.375 0 -3.703125 1.59375q-1.328125 1.59375 -1.328125 4.515625q0 2.96875 1.328125 4.625q1.328125 1.640625 3.703125 1.640625zm19.168762 2.140625q-2.3125 0 -4.03125 -1.015625q-1.703125 -1.03125 -2.65625 -2.890625q-0.9375 -1.875 -0.9375 -4.4375q0 -2.53125 0.9375 -4.421875q0.953125 -1.890625 2.65625 -2.90625q1.71875 -1.03125 4.03125 -1.03125q2.296875 0 4.0 1.03125q1.71875 1.015625 2.65625 2.90625q0.953125 1.890625 0.953125 4.421875q0 2.5625 -0.953125 4.4375q-0.9375 1.859375 -2.65625 2.890625q-1.703125 1.015625 -4.0 1.015625zm0 -2.140625q2.359375 0 3.65625 -1.578125q1.296875 -1.59375 1.296875 -4.625q0 -2.984375 -1.3125 -4.578125q-1.3125 -1.59375 -3.640625 -1.59375q-2.34375 0 -3.671875 1.59375q-1.328125 1.59375 -1.328125 4.578125q0 3.03125 1.296875 4.625q1.296875 1.578125 3.703125 1.578125zm11.647766 1.921875l0 -11.578125q0 -1.125 -0.046875 -2.25q-0.046875 -1.140625 -0.21875 -2.265625l2.46875 0l0.28125 3.328125l-0.3125 0.21875q0.578125 -1.890625 2.0 -2.90625q1.421875 -1.03125 3.375 -1.03125q2.34375 0 3.625 1.15625q1.296875 1.15625 1.65625 3.515625l-0.765625 -0.40625q0.515625 -1.953125 2.0625 -3.109375q1.546875 -1.15625 3.734375 -1.15625q2.65625 0 4.0 1.59375q1.34375 1.578125 1.34375 4.78125l0 10.109375l-2.59375 0l0 -9.984375q0 -2.234375 -0.8125 -3.265625q-0.796875 -1.046875 -2.515625 -1.046875q-2.015625 0 -3.1875 1.375q-1.171875 1.375 -1.171875 3.734375l0 9.1875l-2.59375 0l0 -9.984375q0 -2.234375 -0.8125 -3.265625q-0.8125 -1.046875 -2.546875 -1.046875q-2.046875 0 -3.21875 1.375q-1.15625 1.375 -1.15625 3.734375l0 9.1875l-2.59375 0zm34.299927 0.21875q-2.140625 0 -3.765625 -1.0q-1.609375 -1.015625 -2.5 -2.875q-0.875 -1.875 -0.875 -4.40625q0 -2.53125 0.890625 -4.421875q0.90625 -1.890625 2.515625 -2.9375q1.625 -1.0625 3.734375 -1.0625q2.203125 0 3.734375 1.09375q1.546875 1.09375 2.09375 3.109375l-0.390625 0.25l0 -4.0625l2.5625 0l0 16.09375l-2.5625 0l0 -4.15625l0.390625 0.1875q-0.546875 2.015625 -2.09375 3.109375q-1.53125 1.078125 -3.734375 1.078125zm0.515625 -2.140625q2.359375 0 3.640625 -1.609375q1.28125 -1.625 1.28125 -4.59375q0 -2.984375 -1.296875 -4.578125q-1.296875 -1.59375 -3.625 -1.59375q-2.375 0 -3.703125 1.640625q-1.328125 1.640625 -1.328125 4.59375q0 2.9375 1.328125 4.546875q1.328125 1.59375 3.703125 1.59375zm12.512512 1.921875l0 -16.09375l2.59375 0l0 16.09375l-2.59375 0zm-0.234375 -22.5625l3.171875 0l0 2.953125l-3.171875 0l0 -2.953125zm7.850403 22.5625l0 -11.578125q0 -1.125 -0.046875 -2.25q-0.046875 -1.140625 -0.21875 -2.265625l2.46875 0l0.28125 3.328125l-0.3125 0.25q0.671875 -1.953125 2.234375 -2.953125q1.578125 -1.015625 3.625 -1.015625q5.78125 0 5.78125 6.375l0 10.109375l-2.578125 0l0 -9.984375q0 -2.234375 -0.90625 -3.265625q-0.890625 -1.046875 -2.8125 -1.046875q-2.234375 0 -3.578125 1.375q-1.34375 1.375 -1.34375 3.703125l0 9.21875l-2.59375 0zm18.266907 -3.296875l3.296875 0l0 3.296875l-3.296875 0l0 -3.296875z" fill-rule="nonzero"/></g></svg>