<?xml version="1.0" encoding="UTF-8" standalone="no"?>
<!-- Generator: Adobe Illustrator 19.0.0, SVG Export Plug-In . SVG Version: 6.00 Build 0)  -->

<svg
   xmlns:dc="http://purl.org/dc/elements/1.1/"
   xmlns:cc="http://creativecommons.org/ns#"
   xmlns:rdf="http://www.w3.org/1999/02/22-rdf-syntax-ns#"
   xmlns:svg="http://www.w3.org/2000/svg"
   xmlns="http://www.w3.org/2000/svg"
   xmlns:sodipodi="http://sodipodi.sourceforge.net/DTD/sodipodi-0.dtd"
   xmlns:inkscape="http://www.inkscape.org/namespaces/inkscape"
   version="1.1"
   id="Layer_1"
   x="0px"
   y="0px"
   viewBox="0 0 512 564.76202"
   xml:space="preserve"
   sodipodi:docname="emaillogo.svg"
   inkscape:version="0.92.5 (2060ec1f9f, 2020-04-08)"
   width="512"
   height="564.76202"><metadata
   id="metadata51"><rdf:RDF><cc:Work
       rdf:about=""><dc:format>image/svg+xml</dc:format><dc:type
         rdf:resource="http://purl.org/dc/dcmitype/StillImage" /><dc:title></dc:title></cc:Work></rdf:RDF></metadata><defs
   id="defs49" /><sodipodi:namedview
   pagecolor="#ffffff"
   bordercolor="#666666"
   borderopacity="1"
   objecttolerance="10"
   gridtolerance="10"
   guidetolerance="10"
   inkscape:pageopacity="0"
   inkscape:pageshadow="2"
   inkscape:window-width="3840"
   inkscape:window-height="2096"
   id="namedview47"
   showgrid="false"
   inkscape:zoom="1.84375"
   inkscape:cx="363.66036"
   inkscape:cy="201.26583"
   inkscape:window-x="0"
   inkscape:window-y="27"
   inkscape:window-maximized="1"
   inkscape:current-layer="Layer_1" />

<path
   inkscape:connector-curvature="0"
   style="fill:#d32e2a;fill-opacity:1"
   d="M 512,213.43859 V 186.59358 L 452.288,143.06758 256,-4.14e-4 59.711999,143.06758 1e-6,186.59358 v 26.84501 c 0,13.327 10.811998,24.139 24.138998,24.139 h 13.975 L 256,78.768582 473.886,237.57759 h 13.962 c 13.34,0 24.152,-10.811 24.152,-24.139 z"
   id="path12-3" /><path
   style="fill:#49a355;fill-opacity:1;stroke:#49a355;stroke-width:0.77073723px;stroke-linecap:butt;stroke-linejoin:miter;stroke-opacity:1"
   d="m 263.40363,146.8141 c 0,0 20.49302,-21.02458 47.14949,-13.72091 26.6565,7.30368 34.61493,33.50014 34.61493,33.50014"
   id="path35-3"
   inkscape:connector-curvature="0" /><path
   style="fill:#721817;fill-opacity:1;stroke:none;stroke-width:0.99999994px;stroke-linecap:butt;stroke-linejoin:miter;stroke-opacity:1"
   d="m 281.63922,338.13004 c 0,0 -27.6182,-63.21933 -49.71144,-85.88493 -22.09327,-22.66557 -96.39585,-35.02085 -96.39585,-35.02085 z"
   id="path1064"
   inkscape:connector-curvature="0" /><path
   style="fill:#49a355;fill-opacity:1;stroke:none;stroke-width:0.29046893px;stroke-linecap:butt;stroke-linejoin:miter;stroke-opacity:1"
   d="m 434.05335,392.57061 c 0,0 18.7154,2.36686 27.83046,6.42576 9.11501,4.05887 18.9802,3.71907 19.67318,11.23975 0.26093,2.83187 -7.13443,1.12067 -6.50973,5.51464 0.62471,4.39398 4.7042,7.41384 3.00709,10.71113 -1.37985,2.68081 -6.74068,-0.17505 -8.50795,3.07112 -1.76724,3.2462 0.40531,4.95346 -0.79984,6.94977 -1.25917,2.08601 -4.2412,1.38422 -6.03666,4.12196 -1.79561,2.73761 1.05039,5.25034 -0.4545,7.07049 -1.48267,1.79463 -5.52043,-0.30943 -6.76086,1.74981 -1.2406,2.05916 0.45997,4.42959 -0.85628,5.9329 -1.9783,2.25958 -7.80225,-0.23456 -8.66914,2.45387 -0.86686,2.68843 0.87319,7.262 -1.72311,8.62129 -3.11312,1.62987 -6.22702,-5.41768 -9.67271,-4.19153 -3.44561,1.22608 -2.0446,5.67627 -4.46572,5.73066 -10.82523,0.24309 -18.92976,-19.20647 -21.09714,-24.70059 -2.16735,-5.49414 -6.30307,-20.52611 -6.30307,-20.52611 z"
   id="path50"
   inkscape:connector-curvature="0"
   sodipodi:nodetypes="csasacacacacacaccc" /><path
   style="fill:#49a355;fill-opacity:1;stroke:none;stroke-width:0.42636606px;stroke-linecap:butt;stroke-linejoin:miter;stroke-opacity:1"
   d="m 432.80735,366.59778 c 0,0 4.99917,3.43001 6.55253,5.1718 1.55337,1.74178 4.35293,3.46668 4.69041,6.56927 0.33747,3.10261 -1.68352,20.01035 -14.05837,35.1378 -12.37481,15.1274 -31.27179,26.42686 -36.50229,24.78621 -5.2305,-1.64064 -12.36699,-8.98601 -12.36699,-8.98601 z"
   id="path106"
   inkscape:connector-curvature="0" /><path
   style="fill:#e0e0e0;fill-opacity:1;stroke:none;stroke-width:0.99999994px;stroke-linecap:butt;stroke-linejoin:miter;stroke-opacity:1"
   d="m 166.45366,230.75329 c 0,0 -0.0896,-19.91434 11.78257,-31.88906 11.87217,-11.97473 10.54022,-13.87179 10.54022,-13.87179 0,0 0.35112,-7.90296 -21.30864,3.90927 -21.65974,11.81225 -26.97363,20.84637 -26.97363,20.84637 z"
   id="path4616"
   inkscape:connector-curvature="0"
   sodipodi:nodetypes="cccccc" /><path
   style="fill:#e0e0e0;fill-opacity:1;stroke:none;stroke-width:0.99999994px;stroke-linecap:butt;stroke-linejoin:miter;stroke-opacity:1"
   d="m 187.97782,249.28369 c 0,0 -3.65704,-9.91287 1.0539,-17.36385 4.71096,-7.45098 2.21286,-7.94436 2.21286,-7.94436 0,0 -3.98535,-3.42619 -8.5708,2.74331 -4.58539,6.16944 -9.29615,16.1584 -9.29615,16.1584 l 13.82117,6.23069 z"
   id="path4618"
   inkscape:connector-curvature="0"
   sodipodi:nodetypes="cscsccc" /><path
   style="fill:#e0e0e0;fill-opacity:1;stroke:none;stroke-width:0.99999994px;stroke-linecap:butt;stroke-linejoin:miter;stroke-opacity:1"
   d="m 265.23748,238.03263 c 0,0 -23.81952,-9.37086 -38.65601,-6.98859 -14.83651,2.38222 -16.74696,-1.4645 -16.74696,-1.4645 0,0 -6.39721,-6.53825 11.61022,-17.58294 18.00745,-11.04467 28.74827,-14.00405 28.74827,-14.00405 z"
   id="path4620"
   inkscape:connector-curvature="0"
   sodipodi:nodetypes="cccccc" /><path
   style="fill:#e0e0e0;fill-opacity:1;stroke:none;stroke-width:0.99999994px;stroke-linecap:butt;stroke-linejoin:miter;stroke-opacity:1"
   d="m 243.74167,181.94813 c 0,0 -14.54363,-0.96715 -20.14026,4.07961 -8.12195,6.44158 -5.61903,5.39031 -5.61903,5.39031 0,0 0.7421,0.57141 8.64026,1.48585 7.89819,0.9144 19.89221,4.20055 19.89221,4.20055 z"
   id="path4622"
   inkscape:connector-curvature="0"
   sodipodi:nodetypes="cccscc" /><path
   style="fill:#e0e0e0;fill-opacity:1;stroke:none;stroke-width:0.99999994px;stroke-linecap:butt;stroke-linejoin:miter;stroke-opacity:1"
   d="m 260.04028,239.00148 c 0,0 -7.61412,-3.45534 -13.45959,0.89845 -5.84545,4.35378 -3.97088,4.25592 -3.97088,4.25592 0,0 -0.58626,1.31489 5.36621,1.61645 5.95248,0.30157 17.76018,6.2086 17.76018,6.2086 z"
   id="path4624"
   inkscape:connector-curvature="0"
   sodipodi:nodetypes="cscccc" /><path
   style="fill:#e0e0e0;fill-opacity:1;stroke:none;stroke-width:0.99999994px;stroke-linecap:butt;stroke-linejoin:miter;stroke-opacity:1"
   d="m 203.13878,264.88615 c 0,0 -0.10731,-8.24456 6.38673,-12.39408 6.49405,-4.14948 5.72128,-2.00831 5.72128,-2.00831 0,0 -0.10638,2.52315 -1.10105,6.92979 -0.99465,4.40668 -0.97611,13.55748 -0.97611,13.55748 z"
   id="path4626"
   inkscape:connector-curvature="0"
   sodipodi:nodetypes="cccccc" /><path
   style="fill:#e0e0e0;fill-opacity:1;stroke:none;stroke-width:0.99999994px;stroke-linecap:butt;stroke-linejoin:miter;stroke-opacity:1"
   d="m 271.47493,266.37026 c 0,0 -9.87578,-3.57999 -14.51151,2.08688 -4.63573,5.66688 -1.86609,3.55446 -1.86609,3.55446 0,0 0.15772,-0.33779 4.85665,-0.30056 4.69901,0.0373 12.89742,2.70649 12.89742,2.70649 z"
   id="path4628"
   inkscape:connector-curvature="0"
   sodipodi:nodetypes="cscccc" /><path
   style="fill:#e0e0e0;fill-opacity:1;stroke:none;stroke-width:0.99999994px;stroke-linecap:butt;stroke-linejoin:miter;stroke-opacity:1"
   d="m 280.70006,301.48652 c 0,0 -6.82891,-2.93317 -9.76238,0.0888 -2.93352,3.02194 -1.20976,2.37746 -1.20976,2.37746 0,0 0.59437,0.349 3.00668,0.36138 2.41231,0.0123 10.57934,3.00196 10.57934,3.00196 z"
   id="path4630"
   inkscape:connector-curvature="0"
   sodipodi:nodetypes="cccscc" /><path
   style="fill:#e0e0e0;fill-opacity:1;stroke:none;stroke-width:0.99999994px;stroke-linecap:butt;stroke-linejoin:miter;stroke-opacity:1"
   d="m 247.4928,301.89141 c 0,0 1.92796,-7.99733 8.05925,-10.13364 6.13116,-2.13646 2.69641,0.0121 2.69641,0.0121 0,0 -0.259,0.25154 -1.87927,5.61664 -1.62033,5.36504 -0.52675,11.21989 -0.52675,11.21989 z"
   id="path4634"
   inkscape:connector-curvature="0"
   sodipodi:nodetypes="cccccc" /><path
   style="fill:#e0e0e0;fill-opacity:1;stroke:none;stroke-width:0.99999994px;stroke-linecap:butt;stroke-linejoin:miter;stroke-opacity:1"
   d="m 218.95729,276.70254 c 0,0 0.23149,-11.00002 11.53266,-15.36709 11.30116,-4.367 7.89483,-0.2908 7.89483,-0.2908 0,0 -0.23686,1.36442 -2.23998,11.14585 -2.00318,9.78143 -0.86531,19.24849 -0.86531,19.24849 z"
   id="path4636"
   inkscape:connector-curvature="0"
   sodipodi:nodetypes="cccccc" /><path
   style="fill:#e0e0e0;fill-opacity:1;stroke:none;stroke-width:0.99999994px;stroke-linecap:butt;stroke-linejoin:miter;stroke-opacity:1"
   d="m 229.50599,145.50613 c 0,0 -19.94742,-0.27791 -24.12603,0.70712 -15.81015,3.72691 -23.03996,4.1993 -45.063,18.06233 -10.89764,6.85982 -10.31239,9.48804 -10.31239,9.48804 0,0 -1.18277,2.96866 15.59062,2.00773 16.77339,-0.96093 49.92927,-3.20258 60.5374,0.5812 10.60813,3.78379 17.60908,5.59558 17.60908,5.59558 z"
   id="path43"
   inkscape:connector-curvature="0"
   sodipodi:nodetypes="csscsscc" /><path
   style="fill:#e0e0e0;fill-opacity:1;stroke:none;stroke-width:0.99999994px;stroke-linecap:butt;stroke-linejoin:miter;stroke-opacity:1"
   d="m 134.85239,208.04956 c 0,0 -5.77451,-5.58798 4.17305,-36.15286 10.19793,-31.33428 31.16094,-48.66367 42.54188,-53.54777 11.38092,-4.88409 11.48698,-11.8582 11.48698,-11.8582 -2.26394,-16.337381 -49.35317,12.8343 -73.89802,38.12259 -15.06542,16.042 -27.089742,22.905 -29.324852,26.41942 -2.23504,3.51447 1.63564,-1.97561 1.63564,-1.97561 z"
   id="path41"
   inkscape:connector-curvature="0"
   sodipodi:nodetypes="cscccscc" /><path
   style="opacity:1;fill:#49a355;fill-opacity:1;stroke:#49a355;stroke-width:0.99999994px;stroke-linecap:butt;stroke-linejoin:miter;stroke-opacity:1"
   d="m 258.68168,142.94497 c 0,0 17.87538,2.87697 28.8568,8.59749 10.98146,5.72054 17.14764,11.74355 17.14764,11.74355 l 84.26191,42.17527 c 0,0 21.5534,1.97048 37.15521,14.4071 15.60182,12.43662 27.95213,26.45495 30.22723,34.8415 2.27507,8.38653 9.10156,47.90315 8.5866,51.72343 -0.51496,3.82027 3.19984,17.6261 -0.79706,29.69126 -3.99689,12.06517 -14.56669,40.93992 -39.31593,68.00349 -24.74925,27.06356 -68.23722,75.55894 -125.24372,77.32152 -41.12031,1.2714 -106.08869,-31.46396 -165.22622,-77.23061 C 75.196578,358.45229 59.569528,272.5048 66.228718,211.47186 l 1.2891,-11.81487 229.946582,145.24382"
   id="path45"
   inkscape:connector-curvature="0"
   sodipodi:nodetypes="csccsscssssscc" /><path
   style="fill:#2b6032;fill-opacity:1;stroke:#2b6032;stroke-width:0.99999994px;stroke-linecap:butt;stroke-linejoin:miter;stroke-opacity:1"
   d="m 402.59852,295.45974 c 0,0 -5.70251,19.09816 -19.43386,35.31975 -13.73135,16.22159 -35.65505,26.66438 -35.65505,26.66438"
   id="path65"
   inkscape:connector-curvature="0" /><path
   style="fill:#2b6032;fill-opacity:1;stroke:#2b6032;stroke-width:0.99999994px;stroke-linecap:butt;stroke-linejoin:miter;stroke-opacity:1"
   d="m 383.67731,301.6681 c 0,0 -4.14498,14.37384 -12.1602,23.04387 -8.01526,8.67001 -23.30524,16.92602 -23.30524,16.92602"
   id="path67"
   inkscape:connector-curvature="0" /><path
   style="fill:#2b6032;fill-opacity:1;stroke:#2b6032;stroke-width:0.99999994px;stroke-linecap:butt;stroke-linejoin:miter;stroke-opacity:1"
   d="m 365.81176,310.8164 c 0,0 -1.24329,6.59635 -5.11271,11.04441 -3.86957,4.44795 -10.33976,6.99915 -10.33976,6.99915"
   id="path69"
   inkscape:connector-curvature="0" /><path
   style="fill:#2b6032;fill-opacity:1;stroke:#2b6032;stroke-width:0.99999994px;stroke-linecap:butt;stroke-linejoin:miter;stroke-opacity:1"
   d="m 404.38222,318.72532 c 0,0 -4.14498,14.37384 -12.16023,23.04384 -8.01525,8.67002 -23.30523,16.92602 -23.30523,16.92602"
   id="path67-8"
   inkscape:connector-curvature="0" /><path
   style="fill:#49a355;fill-opacity:1;stroke:#49a355;stroke-width:0.99999994px;stroke-linecap:butt;stroke-linejoin:miter;stroke-opacity:1"
   d="m 304.68612,163.28601 c 0,0 35.37593,-14.12899 63.13227,8.57679 27.75637,22.70581 23.38831,57.95892 23.38831,57.95892"
   id="path35"
   inkscape:connector-curvature="0" /><circle
   id="path33"
   cx="-393.48953"
   cy="-51.624393"
   r="41.893398"
   style="stroke-width:0.79796946"
   transform="matrix(-0.77401129,-0.63317179,-0.63317179,0.77401129,0,0)" /><path
   style="fill:#2b6032;fill-opacity:1;stroke:none;stroke-width:3.77952766;stroke-linecap:butt;stroke-linejoin:miter;stroke-miterlimit:4;stroke-dasharray:none;stroke-opacity:1"
   d="m 257.91713,137.09919 c 45.94758,147.96518 72.41145,216.3609 55.70094,228.0867 C 289.42229,382.16412 127.11322,257.24585 56.800188,195.09502 44.931928,184.60449 73.291308,146.73575 85.297628,157.06797 198.83486,254.7741 289.33092,334.41591 289.33092,334.41591 c 0,0 -58.70333,-143.38812 -67.52022,-206.62435 -1.71633,-12.30987 32.4205,-2.56218 36.10643,9.30763 z"
   id="path37"
   inkscape:connector-curvature="0"
   sodipodi:nodetypes="sssscss" /><path
   style="fill:#49a355;fill-opacity:1;stroke:none;stroke-width:0.99999994px;stroke-linecap:butt;stroke-linejoin:miter;stroke-opacity:1"
   d="m 407.81899,214.69929 c 0,0 6.5662,-95.77287 -59.30631,-149.659181 C 282.64016,11.153786 189.19709,29.658794 189.19709,29.658794 l -1.56434,-8.457683 c 0,0 101.27909,-17.315175 163.04677,33.213218 61.76769,50.528411 70.44827,162.362751 70.44827,162.362751 z"
   id="path4638"
   inkscape:connector-curvature="0" /><path
   style="fill:#bfe2c4;fill-opacity:1;stroke:none;stroke-width:0.99999994px;stroke-linecap:butt;stroke-linejoin:miter;stroke-opacity:1"
   d="m 192.63495,25.456245 -3.43786,4.202549 c 0,0 -13.99149,14.411455 -28.65037,15.878619 -14.65892,1.467147 -26.9286,-4.573114 -29.07054,-14.31896 -2.14195,-9.745853 4.48463,-22.433147 18.14865,-22.185547 13.66402,0.24759 38.00792,12.168205 38.00792,12.168205 z"
   id="path4640"
   inkscape:connector-curvature="0" /><path
   style="fill:#49a355;fill-opacity:1;stroke:none;stroke-width:0.99999994px;stroke-linecap:butt;stroke-linejoin:miter;stroke-opacity:1"
   d="m 425.84576,221.77851 c 0,0 9.93174,-10.14666 10.6066,-14.1624 0.67487,-4.01575 4.47644,-14.44619 3.33904,-16.84485 -1.13741,-2.39867 6.52931,-7.38337 7.8088,-5.35789 1.27952,2.02552 -3.53495,11.3011 -3.53495,11.3011 0,0 -1.02979,9.43516 -3.06396,13.31775 -2.03416,3.88259 -11.40608,15.13977 -11.40608,15.13977 z"
   id="path860"
   inkscape:connector-curvature="0" /><path
   style="fill:#49a355;fill-opacity:1;stroke:none;stroke-width:0.99999994px;stroke-linecap:butt;stroke-linejoin:miter;stroke-opacity:1"
   d="m 443.26044,239.77654 c 0,0 8.21754,-4.86038 10.67804,-9.86244 2.46051,-5.00205 5.33779,-19.2882 4.6447,-20.83398 -0.69313,-1.54582 5.8365,-5.33993 5.8365,-5.33993 l 0.82669,5.57034 c 0,0 -1.90997,1.53714 -2.27411,2.38122 -0.36424,0.84399 -2.55732,15.68982 -4.98241,19.25262 -2.42511,3.56279 -11.32647,11.45277 -11.32647,11.45277 z"
   id="path862"
   inkscape:connector-curvature="0" /><path
   style="fill:#49a355;fill-opacity:1;stroke:none;stroke-width:0.99999994px;stroke-linecap:butt;stroke-linejoin:miter;stroke-opacity:1"
   d="m 452.92772,253.88392 c 0,0 4.33553,0.28392 7.08957,-0.88902 2.75402,-1.17295 5.7199,-18.15993 9.4955,-20.7811 3.77559,-2.62118 14.42779,-2.87974 14.42779,-2.87974 l 0.93309,3.04722 c 0,0 -9.62164,-0.20349 -12.04691,1.56466 -2.42524,1.76818 -7.05247,19.1906 -9.3356,20.58563 -2.28314,1.39502 -9.39046,2.10639 -9.39046,2.10639 z"
   id="path864"
   inkscape:connector-curvature="0" /><path
   style="fill:#49a355;fill-opacity:1;stroke:none;stroke-width:0.99999994px;stroke-linecap:butt;stroke-linejoin:miter;stroke-opacity:1"
   d="m 457.16723,273.82873 c 0,0 7.32971,2.407 11.274,-1.21812 3.94433,-3.62509 15.17303,-15.15783 15.65257,-17.53886 0.47954,-2.38103 5.09965,0.74586 5.09965,0.74586 0,0 -0.97704,2.78974 -2.44294,3.38507 -1.46587,0.59536 -15.20844,16.59709 -18.62882,17.38808 -3.42039,0.79098 -9.99468,1.44897 -9.99468,1.44897 z"
   id="path866"
   inkscape:connector-curvature="0" /><path
   style="fill:#49a355;fill-opacity:1;stroke:none;stroke-width:0.99999994px;stroke-linecap:butt;stroke-linejoin:miter;stroke-opacity:1"
   d="m 460.57194,297.98474 c 0,0 14.08125,-3.65263 15.97346,-5.36744 1.89218,-1.71484 11.85979,-7.91691 14.43613,-9.07208 2.57636,-1.15516 9.02647,0.53231 9.02647,0.53231 0,0 -4.79715,4.06939 -6.574,4.24722 -1.77684,0.17783 -12.92607,6.22896 -15.49343,8.37029 -2.56736,2.14134 -16.39995,4.69229 -16.39995,4.69229 l -1.34184,-3.54471 z"
   id="path868"
   inkscape:connector-curvature="0" /><path
   style="fill:#bfe2c4;fill-opacity:1;stroke:none;stroke-width:0.99999994px;stroke-linecap:butt;stroke-linejoin:miter;stroke-opacity:1"
   d="m 440.94256,198.23839 3.12269,-1.52392 c 0,0 5.83232,-2.24378 7.3247,-4.36724 1.49242,-2.12343 5.62284,-10.16409 1.77576,-12.74018 -3.84711,-2.57611 -11.94912,2.54191 -13.41473,5.82922 -1.46564,3.28729 0.023,9.64387 0.023,9.64387 z"
   id="path870"
   inkscape:connector-curvature="0"
   sodipodi:nodetypes="cccsccc" /><path
   style="fill:#bfe2c4;fill-opacity:1;stroke:none;stroke-width:0.99999994px;stroke-linecap:butt;stroke-linejoin:miter;stroke-opacity:1"
   d="m 460.3531,214.80689 2.14548,-1.17208 c 0,0 6.4002,-3.95335 7.53886,-6.28566 1.13862,-2.33235 3.94873,-10.92395 -0.25663,-12.86078 -4.2054,-1.93686 -11.39838,4.39541 -12.32699,7.87277 -0.92858,3.47739 1.29943,9.81647 1.29943,9.81647 z"
   id="path870-2"
   inkscape:connector-curvature="0"
   sodipodi:nodetypes="cccsscc" /><path
   style="fill:#bfe2c4;fill-opacity:1;stroke:none;stroke-width:0.99999994px;stroke-linecap:butt;stroke-linejoin:miter;stroke-opacity:1"
   d="m 479.47085,231.35808 2.37036,1.23999 c 0,0 7.06571,2.56604 9.52465,1.73544 2.45894,-0.8306 10.54343,-4.87452 8.96315,-9.22645 -1.58028,-4.35193 -11.1406,-5.01295 -14.2659,-3.22778 -3.12531,1.78517 -5.97703,7.49515 -5.97703,7.49515 z"
   id="path870-0"
   inkscape:connector-curvature="0"
   sodipodi:nodetypes="cccsccc" /><path
   style="fill:#bfe2c4;fill-opacity:1;stroke:none;stroke-width:0.99999994px;stroke-linecap:butt;stroke-linejoin:miter;stroke-opacity:1"
   d="m 482.63108,260.48785 2.80294,-0.23569 c 0,0 8.66638,-2.61715 10.15876,-4.74061 1.49241,-2.12344 5.62285,-10.16409 1.77577,-12.74018 -3.84711,-2.57611 -11.94913,2.5419 -13.41474,5.82922 -1.46563,3.28729 -1.06536,9.07978 -1.06536,9.07978 z"
   id="path870-7"
   inkscape:connector-curvature="0"
   sodipodi:nodetypes="cccsccc" /><path
   style="fill:#bfe2c4;fill-opacity:1;stroke:none;stroke-width:0.99999994px;stroke-linecap:butt;stroke-linejoin:miter;stroke-opacity:1"
   d="m 489.07579,287.33207 2.87225,1.25229 c 0,0 5.70168,2.55763 8.26002,2.12041 2.55835,-0.43721 11.17432,-3.1717 10.2916,-7.71675 -0.88268,-4.54504 -10.22314,-6.68799 -13.58851,-5.41175 -3.36533,1.27627 -6.8259,6.63954 -6.8259,6.63954 z"
   id="path870-1"
   inkscape:connector-curvature="0"
   sodipodi:nodetypes="cccsccc" /><circle
   style="opacity:1;fill:#bfe2c4;fill-opacity:1;stroke:none;stroke-width:3.77952766;stroke-linecap:butt;stroke-miterlimit:4;stroke-dasharray:none;stroke-opacity:1"
   id="path858"
   cx="-392.7923"
   cy="-52.360661"
   r="28.789349"
   transform="matrix(-0.77401129,-0.63317179,-0.63317179,0.77401129,0,0)" /><circle
   id="path33-6"
   cx="-324.05066"
   cy="-85.002411"
   r="24.214828"
   style="stroke-width:0.46123481"
   transform="matrix(-0.77401129,-0.63317179,-0.63317179,0.77401129,0,0)" /><circle
   style="opacity:1;fill:#bfe2c4;fill-opacity:1;stroke:none;stroke-width:2.18460679;stroke-linecap:butt;stroke-miterlimit:4;stroke-dasharray:none;stroke-opacity:1"
   id="path858-7"
   cx="-323.64761"
   cy="-85.427986"
   r="16.640547"
   transform="matrix(-0.77401129,-0.63317179,-0.63317179,0.77401129,0,0)" /><circle
   style="opacity:1;fill:#2b6032;fill-opacity:1;stroke:#2b6032;stroke-width:3.77952766;stroke-linecap:round;stroke-miterlimit:4;stroke-dasharray:none;stroke-dashoffset:0;stroke-opacity:1"
   id="path4570"
   cx="331.43658"
   cy="209.3645"
   r="5.6821079"
   transform="rotate(39.284521)" /><circle
   style="opacity:1;fill:#2b6032;fill-opacity:1;stroke:#2b6032;stroke-width:2.79934287;stroke-linecap:round;stroke-miterlimit:4;stroke-dasharray:none;stroke-dashoffset:0;stroke-opacity:1"
   id="path4572"
   cx="380.93402"
   cy="210.62718"
   r="8.6975822"
   transform="rotate(39.284521)" /><circle
   style="opacity:1;fill:#2b6032;fill-opacity:1;stroke:#2b6032;stroke-width:3.77952766;stroke-linecap:round;stroke-miterlimit:4;stroke-dasharray:none;stroke-dashoffset:0;stroke-opacity:1"
   id="path4574"
   cx="472.10031"
   cy="196.99011"
   r="2.3991122"
   transform="rotate(39.284521)" /><circle
   style="opacity:1;fill:#2b6032;fill-opacity:1;stroke:#2b6032;stroke-width:3.77952766;stroke-linecap:round;stroke-miterlimit:4;stroke-dasharray:none;stroke-dashoffset:0;stroke-opacity:1"
   id="path4576"
   cx="510.86499"
   cy="188.27757"
   r="4.5456862"
   transform="rotate(39.284521)" /><circle
   style="opacity:1;fill:#2b6032;fill-opacity:1;stroke:#2b6032;stroke-width:3.77952766;stroke-linecap:round;stroke-miterlimit:4;stroke-dasharray:none;stroke-dashoffset:0;stroke-opacity:1"
   id="path4578"
   cx="408.71326"
   cy="191.18175"
   r="3.4092648"
   transform="rotate(39.284521)" /><circle
   style="opacity:1;fill:#2b6032;fill-opacity:1;stroke:#2b6032;stroke-width:3.77952766;stroke-linecap:round;stroke-miterlimit:4;stroke-dasharray:none;stroke-dashoffset:0;stroke-opacity:1"
   id="path4580"
   cx="261.84198"
   cy="175.00011"
   r="3.9143407"
   transform="rotate(39.284521)" /><circle
   style="opacity:1;fill:#2b6032;fill-opacity:1;stroke:#2b6032;stroke-width:3.77952766;stroke-linecap:round;stroke-miterlimit:4;stroke-dasharray:none;stroke-dashoffset:0;stroke-opacity:1"
   id="path4582"
   cx="440.9137"
   cy="196.37108"
   r="6.8185296"
   transform="rotate(39.284521)" /><circle
   style="opacity:1;fill:#2b6032;fill-opacity:1;stroke:#2b6032;stroke-width:3.77952766;stroke-linecap:round;stroke-miterlimit:4;stroke-dasharray:none;stroke-dashoffset:0;stroke-opacity:1"
   id="path4584"
   cx="542.93732"
   cy="146.60873"
   r="5.8083773"
   transform="rotate(39.284521)" /><circle
   style="opacity:1;fill:#2b6032;fill-opacity:1;stroke:#2b6032;stroke-width:2.4776566;stroke-linecap:round;stroke-miterlimit:4;stroke-dasharray:none;stroke-dashoffset:0;stroke-opacity:1"
   id="path4584-2"
   cx="553.16504"
   cy="-42.416019"
   r="3.807662"
   transform="rotate(39.284521)" /><circle
   style="opacity:1;fill:#2b6032;fill-opacity:1;stroke:#2b6032;stroke-width:3.65553999;stroke-linecap:round;stroke-miterlimit:4;stroke-dasharray:none;stroke-dashoffset:0;stroke-opacity:1"
   id="path4584-2-3"
   cx="528.41638"
   cy="-62.871624"
   r="5.6178327"
   transform="rotate(39.284521)" /><circle
   style="opacity:1;fill:#2b6032;fill-opacity:1;stroke:#2b6032;stroke-width:1.23777962;stroke-linecap:round;stroke-miterlimit:4;stroke-dasharray:none;stroke-dashoffset:0;stroke-opacity:1"
   id="path4584-2-9"
   cx="503.79388"
   cy="-80.423004"
   r="1.9022192"
   transform="rotate(39.284521)" />

<path
   style="fill:#feffff;fill-opacity:1;stroke:#000000;stroke-width:1px;stroke-linecap:butt;stroke-linejoin:miter;stroke-opacity:1"
   d="M 17.898305,228.18468 253.28814,370.82875 468.0678,228.72705 481.62712,538.96434 46.644068,542.76095 Z"
   id="path5479"
   inkscape:connector-curvature="0" /><path
   id="path12"
   style="fill:#f14336;fill-opacity:1"
   d="m 512,198.866 v 26.845 L 452.288,269.237 256,412.305 59.712,269.237 0,225.711 V 198.866 C 0,185.539 10.812,174.727 24.139,174.727 H 38.114 L 256,333.536 473.886,174.727 h 13.962 c 13.34,0 24.152,10.811 24.152,24.139 z m 0,26.845 v 314.912 c 0,13.327 -10.812,24.139 -24.152,24.139 h -35.56 V 269.237 L 471.98,222.712 Z M 59.712,269.237 V 564.761 H 24.139 C 10.812,564.761 0,553.95 0,540.622 V 225.711 l 39,1.063 z M 25.76334,523.32411 h 457.91754 v 41.41968 H 25.76334 Z"
   inkscape:connector-curvature="0" />

<g
   id="g16"
   transform="translate(0,52.762)">
</g>
<g
   id="g18"
   transform="translate(0,52.762)">
</g>
<g
   id="g20"
   transform="translate(0,52.762)">
</g>
<g
   id="g22"
   transform="translate(0,52.762)">
</g>
<g
   id="g24"
   transform="translate(0,52.762)">
</g>
<g
   id="g26"
   transform="translate(0,52.762)">
</g>
<g
   id="g28"
   transform="translate(0,52.762)">
</g>
<g
   id="g30"
   transform="translate(0,52.762)">
</g>
<g
   id="g32"
   transform="translate(0,52.762)">
</g>
<g
   id="g34"
   transform="translate(0,52.762)">
</g>
<g
   id="g36"
   transform="translate(0,52.762)">
</g>
<g
   id="g38"
   transform="translate(0,52.762)">
</g>
<g
   id="g40"
   transform="translate(0,52.762)">
</g>
<g
   id="g42"
   transform="translate(0,52.762)">
</g>
<g
   id="g44"
   transform="translate(0,52.762)">
</g>
</svg>